_RobotoSerifText-HairlineWide.ufo
<glyph name="numbersign" format="2">
  <advance width="732"/>
  <unicode hex="0023"/>
  <outline>
    <contour>
      <point x="111" y="0" type="line"/>
      <point x="142" y="0" type="line"/>
      <point x="382" y="750" type="line"/>
      <point x="351" y="750" type="line"/>
    </contour>
    <contour>
      <point x="57" y="260" type="line"/>
      <point x="643" y="260" type="line"/>
      <point x="643" y="301" type="line"/>
      <point x="57" y="301" type="line"/>
    </contour>
    <contour>
      <point x="111" y="470" type="line"/>
      <point x="697" y="470" type="line"/>
      <point x="697" y="511" type="line"/>
      <point x="111" y="511" type="line"/>
    </contour>
    <contour>
      <point x="350" y="0" type="line"/>
      <point x="381" y="0" type="line"/>
      <point x="622" y="750" type="line"/>
      <point x="588" y="750" type="line"/>
    </contour>
  </outline>
</glyph>
<glyph name="percent" format="2">
  <advance width="858"/>
  <unicode hex="0025"/>
  <outline>
    <contour>
      <point x="221" y="382" type="curve" smooth="yes"/>
      <point x="315" y="382"/>
      <point x="383" y="454"/>
      <point x="383" y="551" type="curve" smooth="yes"/>
      <point x="383" y="649"/>
      <point x="315" y="720"/>
      <point x="221" y="720" type="curve" smooth="yes"/>
      <point x="127" y="720"/>
      <point x="59" y="648"/>
      <point x="59" y="551" type="curve" smooth="yes"/>
      <point x="59" y="453"/>
      <point x="127" y="382"/>
    </contour>
    <contour>
      <point x="221" y="413" type="curve" smooth="yes"/>
      <point x="149" y="413"/>
      <point x="105" y="469"/>
      <point x="105" y="551" type="curve" smooth="yes"/>
      <point x="105" y="633"/>
      <point x="149" y="689"/>
      <point x="221" y="689" type="curve" smooth="yes"/>
      <point x="293" y="689"/>
      <point x="337" y="633"/>
      <point x="337" y="551" type="curve" smooth="yes"/>
      <point x="337" y="469"/>
      <point x="293" y="413"/>
    </contour>
    <contour>
      <point x="630" y="-10" type="curve" smooth="yes"/>
      <point x="724" y="-10"/>
      <point x="792" y="62"/>
      <point x="792" y="159" type="curve" smooth="yes"/>
      <point x="792" y="257"/>
      <point x="724" y="328"/>
      <point x="630" y="328" type="curve" smooth="yes"/>
      <point x="536" y="328"/>
      <point x="468" y="256"/>
      <point x="468" y="159" type="curve" smooth="yes"/>
      <point x="468" y="61"/>
      <point x="536" y="-10"/>
    </contour>
    <contour>
      <point x="42" y="0" type="line"/>
      <point x="84" y="0" type="line"/>
      <point x="813" y="710" type="line"/>
      <point x="771" y="710" type="line"/>
    </contour>
    <contour>
      <point x="630" y="21" type="curve" smooth="yes"/>
      <point x="558" y="21"/>
      <point x="514" y="77"/>
      <point x="514" y="159" type="curve" smooth="yes"/>
      <point x="514" y="241"/>
      <point x="558" y="297"/>
      <point x="630" y="297" type="curve" smooth="yes"/>
      <point x="702" y="297"/>
      <point x="746" y="241"/>
      <point x="746" y="159" type="curve" smooth="yes"/>
      <point x="746" y="77"/>
      <point x="702" y="21"/>
    </contour>
  </outline>
</glyph>
<glyph name="ampersand" format="2">
  <advance width="807"/>
  <unicode hex="0026"/>
  <outline>
    <contour>
      <point x="677" y="326" type="curve" smooth="yes"/>
      <point x="684" y="359"/>
      <point x="717" y="364"/>
      <point x="768" y="364" type="curve" smooth="yes"/>
      <point x="770" y="364" type="line"/>
      <point x="770" y="394" type="line"/>
      <point x="551" y="394" type="line"/>
      <point x="551" y="364" type="line"/>
      <point x="554" y="364" type="line" smooth="yes"/>
      <point x="586" y="364"/>
      <point x="639" y="361"/>
      <point x="639" y="354" type="curve" smooth="yes"/>
      <point x="639" y="241"/>
      <point x="542" y="21"/>
      <point x="331" y="21" type="curve" smooth="yes"/>
      <point x="182" y="21"/>
      <point x="106" y="94"/>
      <point x="106" y="197" type="curve" smooth="yes"/>
      <point x="106" y="301"/>
      <point x="174" y="350"/>
      <point x="291" y="387" type="curve"/>
      <point x="286" y="413" type="line"/>
      <point x="161" y="380"/>
      <point x="67" y="311"/>
      <point x="67" y="197" type="curve" smooth="yes"/>
      <point x="67" y="74"/>
      <point x="165" y="-10"/>
      <point x="327" y="-10" type="curve" smooth="yes"/>
      <point x="574" y="-10"/>
      <point x="653" y="223"/>
    </contour>
    <contour>
      <point x="799" y="0" type="line"/>
      <point x="799" y="31" type="line"/>
      <point x="768" y="31" type="line" smooth="yes"/>
      <point x="717" y="31"/>
      <point x="695" y="47"/>
      <point x="658" y="75" type="curve" smooth="yes"/>
      <point x="371" y="286"/>
      <point x="272" y="420"/>
      <point x="272" y="552" type="curve" smooth="yes"/>
      <point x="272" y="643"/>
      <point x="329" y="687"/>
      <point x="409" y="687" type="curve" smooth="yes"/>
      <point x="482" y="687"/>
      <point x="520" y="645"/>
      <point x="520" y="587" type="curve" smooth="yes"/>
      <point x="520" y="496"/>
      <point x="419" y="451"/>
      <point x="299" y="416" type="curve"/>
      <point x="314" y="392" type="line"/>
      <point x="438" y="427"/>
      <point x="562" y="487"/>
      <point x="562" y="587" type="curve" smooth="yes"/>
      <point x="562" y="665"/>
      <point x="507" y="718"/>
      <point x="409" y="718" type="curve" smooth="yes"/>
      <point x="304" y="718"/>
      <point x="231" y="656"/>
      <point x="231" y="552" type="curve" smooth="yes"/>
      <point x="231" y="374"/>
      <point x="424" y="192"/>
      <point x="692" y="0" type="curve"/>
    </contour>
  </outline>
</glyph>
<glyph name="comma" format="2">
  <advance width="243"/>
  <unicode hex="002C"/>
  <outline>
    <contour>
      <point x="91" y="-124" type="line"/>
      <point x="149" y="-84"/>
      <point x="173" y="-35"/>
      <point x="173" y="15" type="curve" smooth="yes"/>
      <point x="173" y="49"/>
      <point x="154" y="66"/>
      <point x="128" y="66" type="curve" smooth="yes"/>
      <point x="106" y="66"/>
      <point x="89" y="50"/>
      <point x="89" y="28" type="curve" smooth="yes"/>
      <point x="89" y="5"/>
      <point x="102" y="-10"/>
      <point x="126" y="-10" type="curve" smooth="yes"/>
      <point x="143" y="-10"/>
      <point x="157" y="-3"/>
      <point x="160" y="12" type="curve"/>
      <point x="143" y="19"/>
      <point x="148" y="6"/>
      <point x="149" y="5" type="curve"/>
      <point x="149" y="-25"/>
      <point x="121" y="-75"/>
      <point x="65" y="-108" type="curve"/>
    </contour>
  </outline>
</glyph>
<glyph name="five" format="2">
  <advance width="652"/>
  <unicode hex="0035"/>
  <outline>
    <contour>
      <point x="328" y="-90" type="curve"/>
      <point x="185" y="-90"/>
      <point x="104" y="-26"/>
      <point x="65" y="56" type="curve"/>
      <point x="96" y="73" type="line"/>
      <point x="133" y="-2"/>
      <point x="206" y="-59"/>
      <point x="328" y="-59" type="curve"/>
      <point x="469" y="-59"/>
      <point x="553" y="28"/>
      <point x="553" y="151" type="curve" smooth="yes"/>
      <point x="553" y="267"/>
      <point x="461" y="335"/>
      <point x="346" y="335" type="curve" smooth="yes"/>
      <point x="253" y="335"/>
      <point x="193" y="300"/>
      <point x="139" y="240" type="curve"/>
      <point x="112" y="240" type="line"/>
      <point x="112" y="609" type="line"/>
      <point x="547" y="609" type="line"/>
      <point x="538" y="571" type="line"/>
      <point x="129" y="571" type="line"/>
      <point x="145" y="589" type="line"/>
      <point x="145" y="266" type="line"/>
      <point x="142" y="256"/>
      <point x="136" y="247"/>
      <point x="124" y="260" type="curve"/>
      <point x="175" y="321"/>
      <point x="244" y="366"/>
      <point x="351" y="366" type="curve" smooth="yes"/>
      <point x="508" y="366"/>
      <point x="597" y="265"/>
      <point x="597" y="151" type="curve" smooth="yes"/>
      <point x="597" y="16"/>
      <point x="494" y="-90"/>
    </contour>
  </outline>
</glyph>
<glyph name="seven" format="2">
  <advance width="652"/>
  <unicode hex="0037"/>
  <outline>
    <contour>
      <point x="274" y="571" type="line" smooth="yes"/>
      <point x="174" y="571"/>
      <point x="133" y="564"/>
      <point x="128" y="528" type="curve" smooth="yes"/>
      <point x="118" y="438" type="line"/>
      <point x="91" y="438" type="line"/>
      <point x="91" y="609" type="line"/>
      <point x="622" y="609" type="line"/>
      <point x="622" y="571" type="line"/>
      <point x="476" y="403"/>
      <point x="338" y="238"/>
      <point x="308" y="-77" type="curve"/>
      <point x="263" y="-77" type="line"/>
      <point x="298" y="244"/>
      <point x="454" y="440"/>
      <point x="594" y="586" type="curve"/>
      <point x="610" y="571" type="line"/>
    </contour>
  </outline>
</glyph>
<glyph name="at" format="2">
  <advance width="1028"/>
  <unicode hex="0040"/>
  <outline>
    <contour>
      <point x="535" y="-124" type="curve" smooth="yes"/>
      <point x="269" y="-124"/>
      <point x="83" y="14"/>
      <point x="83" y="234" type="curve" smooth="yes"/>
      <point x="83" y="468"/>
      <point x="288" y="645"/>
      <point x="565" y="645" type="curve" smooth="yes"/>
      <point x="810" y="645"/>
      <point x="949" y="512"/>
      <point x="949" y="342" type="curve" smooth="yes"/>
      <point x="949" y="166"/>
      <point x="854" y="76"/>
      <point x="750" y="76" type="curve" smooth="yes"/>
      <point x="674" y="76"/>
      <point x="640" y="110"/>
      <point x="655" y="179" type="curve"/>
      <point x="713" y="468" type="line"/>
      <point x="689" y="468" type="line"/>
      <point x="658" y="399" type="line"/>
      <point x="654" y="393" type="line"/>
      <point x="603" y="139" type="line"/>
      <point x="607" y="143" type="line"/>
      <point x="612" y="90"/>
      <point x="661" y="53"/>
      <point x="748" y="53" type="curve" smooth="yes"/>
      <point x="869" y="53"/>
      <point x="981" y="159"/>
      <point x="981" y="342" type="curve" smooth="yes"/>
      <point x="981" y="532"/>
      <point x="819" y="673"/>
      <point x="565" y="673" type="curve" smooth="yes"/>
      <point x="274" y="673"/>
      <point x="52" y="487"/>
      <point x="52" y="234" type="curve" smooth="yes"/>
      <point x="52" y="-5"/>
      <point x="254" y="-153"/>
      <point x="535" y="-153" type="curve" smooth="yes"/>
      <point x="661" y="-153"/>
      <point x="767" y="-120"/>
      <point x="829" y="-88" type="curve"/>
      <point x="819" y="-62" type="line"/>
      <point x="756" y="-93"/>
      <point x="659" y="-124"/>
    </contour>
    <contour>
      <point x="473" y="49" type="curve" smooth="yes"/>
      <point x="545" y="49"/>
      <point x="587" y="96"/>
      <point x="634" y="161" type="curve"/>
      <point x="632" y="193" type="line"/>
      <point x="581" y="125"/>
      <point x="541" y="77"/>
      <point x="472" y="77" type="curve" smooth="yes"/>
      <point x="397" y="77"/>
      <point x="358" y="124"/>
      <point x="358" y="221" type="curve" smooth="yes"/>
      <point x="358" y="329"/>
      <point x="435" y="446"/>
      <point x="544" y="446" type="curve" smooth="yes"/>
      <point x="606" y="446"/>
      <point x="643" y="419"/>
      <point x="668" y="329" type="curve"/>
      <point x="672" y="377" type="line"/>
      <point x="658" y="445"/>
      <point x="613" y="474"/>
      <point x="548" y="474" type="curve" smooth="yes"/>
      <point x="413" y="474"/>
      <point x="314" y="353"/>
      <point x="314" y="221" type="curve" smooth="yes"/>
      <point x="314" y="111"/>
      <point x="380" y="49"/>
    </contour>
  </outline>
</glyph>
<glyph name="C" format="2">
  <advance width="797"/>
  <unicode hex="0043"/>
  <anchor x="417" y="741" name="top"/>
  <anchor x="417" y="0" name="bottom"/>
  <outline>
    <contour>
      <point x="416" y="689" type="curve" smooth="yes"/>
      <point x="561" y="689"/>
      <point x="652" y="610"/>
      <point x="688" y="506" type="curve"/>
      <point x="721" y="506" type="line"/>
      <point x="721" y="710" type="line"/>
      <point x="695" y="710" type="line"/>
      <point x="681" y="548" type="line"/>
      <point x="685" y="554"/>
      <point x="690" y="560"/>
      <point x="696" y="567" type="curve"/>
      <point x="651" y="658"/>
      <point x="545" y="720"/>
      <point x="416" y="720" type="curve" smooth="yes"/>
      <point x="221" y="720"/>
      <point x="55" y="569"/>
      <point x="55" y="355" type="curve" smooth="yes"/>
      <point x="55" y="138"/>
      <point x="209" y="-10"/>
      <point x="424" y="-10" type="curve" smooth="yes"/>
      <point x="593" y="-10"/>
      <point x="698" y="76"/>
      <point x="736" y="200" type="curve"/>
      <point x="705" y="216" type="line"/>
      <point x="673" y="108"/>
      <point x="584" y="21"/>
      <point x="423" y="21" type="curve" smooth="yes"/>
      <point x="227" y="21"/>
      <point x="98" y="154"/>
      <point x="98" y="355" type="curve" smooth="yes"/>
      <point x="98" y="556"/>
      <point x="244" y="689"/>
    </contour>
  </outline>
</glyph>
<glyph name="F" format="2">
  <advance width="676"/>
  <unicode hex="0046"/>
  <outline>
    <contour>
      <point x="205" y="679" type="line"/>
      <point x="415" y="679" type="line" smooth="yes"/>
      <point x="515" y="679"/>
      <point x="555" y="672"/>
      <point x="561" y="636" type="curve" smooth="yes"/>
      <point x="571" y="546" type="line"/>
      <point x="598" y="546" type="line"/>
      <point x="598" y="710" type="line"/>
      <point x="52" y="710" type="line"/>
      <point x="52" y="679" type="line"/>
      <point x="65" y="679" type="line" smooth="yes"/>
      <point x="122" y="679"/>
      <point x="164" y="672"/>
      <point x="164" y="643" type="curve" smooth="yes"/>
      <point x="164" y="67" type="line" smooth="yes"/>
      <point x="164" y="38"/>
      <point x="122" y="31"/>
      <point x="65" y="31" type="curve" smooth="yes"/>
      <point x="52" y="31" type="line"/>
      <point x="52" y="0" type="line"/>
      <point x="335" y="0" type="line"/>
      <point x="335" y="31" type="line"/>
      <point x="316" y="31" type="line" smooth="yes"/>
      <point x="265" y="31"/>
      <point x="205" y="32"/>
      <point x="205" y="67" type="curve" smooth="yes"/>
    </contour>
    <contour>
      <point x="190" y="371" type="curve"/>
      <point x="190" y="343" type="line"/>
      <point x="295" y="342"/>
      <point x="401" y="339"/>
      <point x="506" y="338" type="curve"/>
      <point x="506" y="376" type="line"/>
      <point x="401" y="374"/>
      <point x="296" y="373"/>
    </contour>
  </outline>
</glyph>
<glyph name="K" format="2">
  <advance width="775"/>
  <unicode hex="004B"/>
  <anchor x="400" y="741" name="top"/>
  <anchor x="400" y="0" name="bottom"/>
  <outline>
    <contour>
      <point x="52" y="0" type="line"/>
      <point x="316" y="0" type="line"/>
      <point x="316" y="31" type="line"/>
      <point x="306" y="31" type="line" smooth="yes"/>
      <point x="262" y="31"/>
      <point x="205" y="34"/>
      <point x="205" y="41" type="curve" smooth="yes"/>
      <point x="205" y="669" type="line" smooth="yes"/>
      <point x="205" y="676"/>
      <point x="262" y="679"/>
      <point x="306" y="679" type="curve" smooth="yes"/>
      <point x="316" y="679" type="line"/>
      <point x="316" y="710" type="line"/>
      <point x="52" y="710" type="line"/>
      <point x="52" y="679" type="line"/>
      <point x="65" y="679" type="line" smooth="yes"/>
      <point x="122" y="679"/>
      <point x="164" y="672"/>
      <point x="164" y="643" type="curve" smooth="yes"/>
      <point x="164" y="67" type="line" smooth="yes"/>
      <point x="164" y="38"/>
      <point x="122" y="31"/>
      <point x="65" y="31" type="curve" smooth="yes"/>
      <point x="52" y="31" type="line"/>
    </contour>
    <contour>
      <point x="507" y="0" type="line"/>
      <point x="758" y="0" type="line"/>
      <point x="758" y="31" type="line"/>
      <point x="744" y="31" type="line" smooth="yes"/>
      <point x="692" y="31"/>
      <point x="673" y="35"/>
      <point x="641" y="64" type="curve" smooth="yes"/>
      <point x="286" y="383" type="line"/>
      <point x="291" y="358" type="line"/>
      <point x="632" y="650" type="line" smooth="yes"/>
      <point x="658" y="673"/>
      <point x="682" y="679"/>
      <point x="725" y="679" type="curve" smooth="yes"/>
      <point x="743" y="679" type="line"/>
      <point x="743" y="710" type="line"/>
      <point x="503" y="710" type="line"/>
      <point x="503" y="679" type="line"/>
      <point x="513" y="679" type="line" smooth="yes"/>
      <point x="556" y="679"/>
      <point x="604" y="676"/>
      <point x="606" y="669" type="curve"/>
      <point x="255" y="367" type="line"/>
      <point x="255" y="362" type="line"/>
      <point x="615" y="41" type="line"/>
      <point x="615" y="34"/>
      <point x="560" y="31"/>
      <point x="517" y="31" type="curve" smooth="yes"/>
      <point x="507" y="31" type="line"/>
    </contour>
  </outline>
</glyph>
<glyph name="N" format="2">
  <advance width="879"/>
  <unicode hex="004E"/>
  <anchor x="447" y="741" name="top"/>
  <anchor x="447" y="0" name="bottom"/>
  <outline>
    <contour>
      <point x="52" y="0" type="line"/>
      <point x="325" y="0" type="line"/>
      <point x="325" y="31" type="line"/>
      <point x="309" y="31" type="line" smooth="yes"/>
      <point x="258" y="31"/>
      <point x="202" y="39"/>
      <point x="202" y="46" type="curve" smooth="yes"/>
      <point x="202" y="695" type="line"/>
      <point x="181" y="701" type="line"/>
      <point x="667" y="0" type="line"/>
      <point x="712" y="0" type="line"/>
      <point x="712" y="638" type="line" smooth="yes"/>
      <point x="712" y="667"/>
      <point x="754" y="679"/>
      <point x="811" y="679" type="curve" smooth="yes"/>
      <point x="825" y="679" type="line"/>
      <point x="825" y="710" type="line"/>
      <point x="552" y="710" type="line"/>
      <point x="552" y="679" type="line"/>
      <point x="569" y="679" type="line" smooth="yes"/>
      <point x="619" y="679"/>
      <point x="676" y="671"/>
      <point x="676" y="664" type="curve" smooth="yes"/>
      <point x="676" y="39" type="line"/>
      <point x="685" y="45" type="line"/>
      <point x="224" y="710" type="line"/>
      <point x="52" y="710" type="line"/>
      <point x="52" y="679" type="line"/>
      <point x="65" y="679" type="line" smooth="yes"/>
      <point x="122" y="679"/>
      <point x="164" y="672"/>
      <point x="164" y="643" type="curve" smooth="yes"/>
      <point x="164" y="72" type="line" smooth="yes"/>
      <point x="164" y="43"/>
      <point x="122" y="31"/>
      <point x="65" y="31" type="curve" smooth="yes"/>
      <point x="52" y="31" type="line"/>
    </contour>
  </outline>
</glyph>
<glyph name="O" format="2">
  <advance width="865"/>
  <unicode hex="004F"/>
  <anchor x="433" y="741" name="top"/>
  <anchor x="433" y="0" name="bottom"/>
  <outline>
    <contour>
      <point x="432" y="-10" type="curve" smooth="yes"/>
      <point x="647" y="-10"/>
      <point x="810" y="139"/>
      <point x="810" y="355" type="curve" smooth="yes"/>
      <point x="810" y="572"/>
      <point x="647" y="720"/>
      <point x="432" y="720" type="curve" smooth="yes"/>
      <point x="217" y="720"/>
      <point x="55" y="572"/>
      <point x="55" y="355" type="curve" smooth="yes"/>
      <point x="55" y="139"/>
      <point x="217" y="-10"/>
    </contour>
    <contour>
      <point x="432" y="21" type="curve" smooth="yes"/>
      <point x="236" y="21"/>
      <point x="98" y="151"/>
      <point x="98" y="355" type="curve" smooth="yes"/>
      <point x="98" y="559"/>
      <point x="236" y="689"/>
      <point x="432" y="689" type="curve" smooth="yes"/>
      <point x="628" y="689"/>
      <point x="767" y="559"/>
      <point x="767" y="355" type="curve" smooth="yes"/>
      <point x="767" y="151"/>
      <point x="628" y="21"/>
    </contour>
  </outline>
</glyph>
<glyph name="Q" format="2">
  <advance width="865"/>
  <unicode hex="0051"/>
  <outline>
    <contour>
      <point x="418" y="-6" type="line"/>
      <point x="419" y="-123"/>
      <point x="499" y="-179"/>
      <point x="635" y="-179" type="curve" smooth="yes"/>
      <point x="689" y="-179"/>
      <point x="746" y="-169"/>
      <point x="787" y="-154" type="curve"/>
      <point x="787" y="-110" type="line"/>
      <point x="739" y="-128"/>
      <point x="684" y="-144"/>
      <point x="626" y="-144" type="curve" smooth="yes"/>
      <point x="509" y="-144"/>
      <point x="445" y="-95"/>
      <point x="449" y="9" type="curve"/>
    </contour>
    <contour>
      <point x="432" y="-10" type="curve" smooth="yes"/>
      <point x="647" y="-10"/>
      <point x="810" y="139"/>
      <point x="810" y="355" type="curve" smooth="yes"/>
      <point x="810" y="572"/>
      <point x="647" y="720"/>
      <point x="432" y="720" type="curve" smooth="yes"/>
      <point x="217" y="720"/>
      <point x="55" y="572"/>
      <point x="55" y="355" type="curve" smooth="yes"/>
      <point x="55" y="139"/>
      <point x="217" y="-10"/>
    </contour>
    <contour>
      <point x="432" y="21" type="curve" smooth="yes"/>
      <point x="236" y="21"/>
      <point x="98" y="151"/>
      <point x="98" y="355" type="curve" smooth="yes"/>
      <point x="98" y="559"/>
      <point x="236" y="689"/>
      <point x="432" y="689" type="curve" smooth="yes"/>
      <point x="628" y="689"/>
      <point x="767" y="559"/>
      <point x="767" y="355" type="curve" smooth="yes"/>
      <point x="767" y="151"/>
      <point x="628" y="21"/>
    </contour>
  </outline>
</glyph>
<glyph name="V" format="2">
  <advance width="788"/>
  <unicode hex="0056"/>
  <outline>
    <contour>
      <point x="405" y="7" type="line"/>
      <point x="131" y="669" type="line"/>
      <point x="131" y="676"/>
      <point x="186" y="679"/>
      <point x="231" y="679" type="curve" smooth="yes"/>
      <point x="251" y="679" type="line"/>
      <point x="251" y="710" type="line"/>
      <point x="12" y="710" type="line"/>
      <point x="12" y="679" type="line"/>
      <point x="17" y="679" type="line"/>
      <point x="58" y="679"/>
      <point x="83" y="677"/>
      <point x="93" y="651" type="curve" smooth="yes"/>
      <point x="365" y="0" type="line"/>
      <point x="426" y="0" type="line"/>
      <point x="688" y="636" type="line" smooth="yes"/>
      <point x="703" y="673"/>
      <point x="727" y="679"/>
      <point x="770" y="679" type="curve"/>
      <point x="775" y="679" type="line"/>
      <point x="775" y="710" type="line"/>
      <point x="544" y="710" type="line"/>
      <point x="544" y="679" type="line"/>
      <point x="561" y="679" type="line" smooth="yes"/>
      <point x="606" y="679"/>
      <point x="659" y="672"/>
      <point x="659" y="661" type="curve"/>
      <point x="395" y="22" type="line"/>
    </contour>
  </outline>
</glyph>
<glyph name="Z" format="2">
  <advance width="679"/>
  <unicode hex="005A"/>
  <anchor x="356" y="741" name="top"/>
  <anchor x="356" y="0" name="bottom"/>
  <outline>
    <contour>
      <point x="73" y="31" type="line"/>
      <point x="88" y="15" type="line"/>
      <point x="613" y="679" type="line"/>
      <point x="613" y="710" type="line"/>
      <point x="78" y="710" type="line"/>
      <point x="78" y="540" type="line"/>
      <point x="105" y="540" type="line"/>
      <point x="116" y="636" type="line" smooth="yes"/>
      <point x="119" y="672"/>
      <point x="161" y="679"/>
      <point x="261" y="679" type="curve" smooth="yes"/>
      <point x="582" y="679" type="line"/>
      <point x="571" y="689" type="line"/>
      <point x="52" y="34" type="line"/>
      <point x="52" y="0" type="line"/>
      <point x="627" y="0" type="line"/>
      <point x="627" y="194" type="line"/>
      <point x="599" y="194" type="line"/>
      <point x="588" y="74" type="line" smooth="yes"/>
      <point x="585" y="38"/>
      <point x="543" y="31"/>
      <point x="443" y="31" type="curve" smooth="yes"/>
    </contour>
  </outline>
</glyph>
<glyph name="grave" format="2">
  <advance width="583"/>
  <unicode hex="0060"/>
  <anchor x="246" y="531" name="_top"/>
  <outline>
    <contour>
      <point x="231" y="707" type="curve" smooth="yes"/>
      <point x="296" y="590" type="line"/>
      <point x="296" y="576" type="line"/>
      <point x="281" y="576" type="line"/>
      <point x="184" y="682" type="line" smooth="yes"/>
      <point x="168" y="699"/>
      <point x="153" y="715"/>
      <point x="153" y="730" type="curve" smooth="yes"/>
      <point x="153" y="744"/>
      <point x="164" y="754"/>
      <point x="182" y="754" type="curve" smooth="yes"/>
      <point x="204" y="754"/>
      <point x="214" y="737"/>
    </contour>
  </outline>
</glyph>
<glyph name="e" format="2">
  <advance width="592"/>
  <unicode hex="0065"/>
  <anchor x="301" y="508" name="top"/>
  <anchor x="444" y="1" name="right"/>
  <anchor x="320" y="0" name="bottom"/>
  <outline>
    <contour>
      <point x="318" y="-10" type="curve" smooth="yes"/>
      <point x="431" y="-10"/>
      <point x="495" y="43"/>
      <point x="533" y="107" type="curve"/>
      <point x="502" y="124" type="line"/>
      <point x="480" y="85"/>
      <point x="426" y="21"/>
      <point x="318" y="21" type="curve" smooth="yes"/>
      <point x="193" y="21"/>
      <point x="94" y="105"/>
      <point x="94" y="250" type="curve" smooth="yes"/>
      <point x="94" y="396"/>
      <point x="184" y="487"/>
      <point x="308" y="487" type="curve" smooth="yes"/>
      <point x="433" y="487"/>
      <point x="491" y="413"/>
      <point x="498" y="265" type="curve"/>
      <point x="515" y="281" type="line"/>
      <point x="73" y="281" type="line"/>
      <point x="73" y="250" type="line"/>
      <point x="540" y="250" type="line"/>
      <point x="539" y="423"/>
      <point x="461" y="518"/>
      <point x="308" y="518" type="curve" smooth="yes"/>
      <point x="161" y="518"/>
      <point x="51" y="409"/>
      <point x="51" y="252" type="curve" smooth="yes"/>
      <point x="51" y="92"/>
      <point x="170" y="-10"/>
    </contour>
  </outline>
</glyph>
<glyph name="g" format="2">
  <advance width="640"/>
  <unicode hex="0067"/>
  <anchor x="307" y="508" name="top"/>
  <outline>
    <contour>
      <point x="609" y="478" type="curve"/>
      <point x="609" y="523" type="line"/>
      <point x="531" y="530"/>
      <point x="475" y="496"/>
      <point x="438" y="436" type="curve"/>
      <point x="456" y="421" type="line"/>
      <point x="494" y="475"/>
      <point x="533" y="484"/>
    </contour>
    <contour>
      <point x="298" y="157" type="curve" smooth="yes"/>
      <point x="417" y="157"/>
      <point x="513" y="227"/>
      <point x="513" y="336" type="curve" smooth="yes"/>
      <point x="513" y="444"/>
      <point x="416" y="518"/>
      <point x="298" y="518" type="curve" smooth="yes"/>
      <point x="179" y="518"/>
      <point x="84" y="444"/>
      <point x="84" y="336" type="curve" smooth="yes"/>
      <point x="84" y="227"/>
      <point x="178" y="157"/>
    </contour>
    <contour>
      <point x="298" y="188" type="curve" smooth="yes"/>
      <point x="199" y="188"/>
      <point x="128" y="241"/>
      <point x="128" y="336" type="curve" smooth="yes"/>
      <point x="128" y="430"/>
      <point x="201" y="487"/>
      <point x="298" y="487" type="curve" smooth="yes"/>
      <point x="395" y="487"/>
      <point x="469" y="430"/>
      <point x="469" y="336" type="curve" smooth="yes"/>
      <point x="469" y="241"/>
      <point x="396" y="188"/>
    </contour>
    <contour>
      <point x="275" y="-236" type="curve" smooth="yes"/>
      <point x="309" y="-236" type="line" smooth="yes"/>
      <point x="463" y="-236"/>
      <point x="596" y="-175"/>
      <point x="596" y="-66" type="curve" smooth="yes"/>
      <point x="596" y="10"/>
      <point x="537" y="42"/>
      <point x="420" y="42" type="curve" smooth="yes"/>
      <point x="204" y="42" type="line" smooth="yes"/>
      <point x="144" y="42"/>
      <point x="111" y="57"/>
      <point x="111" y="94" type="curve" smooth="yes"/>
      <point x="111" y="131"/>
      <point x="153" y="161"/>
      <point x="215" y="184" type="curve"/>
      <point x="200" y="203" type="line"/>
      <point x="118" y="171"/>
      <point x="70" y="134"/>
      <point x="70" y="85" type="curve" smooth="yes"/>
      <point x="70" y="42"/>
      <point x="106" y="16"/>
      <point x="172" y="2" type="curve"/>
      <point x="172" y="2" type="line"/>
      <point x="420" y="2" type="line" smooth="yes"/>
      <point x="521" y="2"/>
      <point x="554" y="-19"/>
      <point x="554" y="-71" type="curve" smooth="yes"/>
      <point x="554" y="-150"/>
      <point x="451" y="-205"/>
      <point x="309" y="-205" type="curve" smooth="yes"/>
      <point x="275" y="-205" type="line" smooth="yes"/>
      <point x="139" y="-205"/>
      <point x="72" y="-169"/>
      <point x="72" y="-107" type="curve" smooth="yes"/>
      <point x="72" y="-59"/>
      <point x="112" y="-25"/>
      <point x="190" y="7" type="curve"/>
      <point x="181" y="27" type="line"/>
      <point x="78" y="-12"/>
      <point x="30" y="-49"/>
      <point x="30" y="-110" type="curve" smooth="yes"/>
      <point x="30" y="-203"/>
      <point x="141" y="-236"/>
    </contour>
  </outline>
</glyph>
<glyph name="j" format="2">
  <advance width="287"/>
  <unicode hex="006A"/>
  <outline>
    <contour>
      <point x="133" y="-74" type="line" smooth="yes"/>
      <point x="133" y="-171"/>
      <point x="86" y="-203"/>
      <point x="11" y="-203" type="curve" smooth="yes"/>
      <point x="-33" y="-203"/>
      <point x="-65" y="-194"/>
      <point x="-91" y="-185" type="curve"/>
      <point x="-91" y="-220" type="line"/>
      <point x="-69" y="-229"/>
      <point x="-38" y="-236"/>
      <point x="11" y="-236" type="curve" smooth="yes"/>
      <point x="90" y="-236"/>
      <point x="173" y="-204"/>
      <point x="173" y="-74" type="curve" smooth="yes"/>
      <point x="173" y="508" type="line"/>
      <point x="36" y="508" type="line"/>
      <point x="36" y="482" type="line"/>
      <point x="47" y="480" type="line" smooth="yes"/>
      <point x="105" y="470"/>
      <point x="133" y="464"/>
      <point x="133" y="435" type="curve" smooth="yes"/>
    </contour>
    <contour>
      <point x="135" y="656" type="curve" smooth="yes"/>
      <point x="160" y="656"/>
      <point x="179" y="670"/>
      <point x="179" y="696" type="curve" smooth="yes"/>
      <point x="179" y="723"/>
      <point x="160" y="737"/>
      <point x="135" y="737" type="curve" smooth="yes"/>
      <point x="109" y="737"/>
      <point x="90" y="723"/>
      <point x="90" y="696" type="curve" smooth="yes"/>
      <point x="90" y="670"/>
      <point x="109" y="656"/>
    </contour>
  </outline>
</glyph>
<glyph name="m" format="2">
  <advance width="1007"/>
  <unicode hex="006D"/>
  <anchor x="510" y="-10" name="bottom"/>
  <outline>
    <contour>
      <point x="40" y="0" type="line"/>
      <point x="267" y="0" type="line"/>
      <point x="267" y="28" type="line"/>
      <point x="263" y="28" type="line" smooth="yes"/>
      <point x="231" y="28"/>
      <point x="179" y="31"/>
      <point x="179" y="38" type="curve" smooth="yes"/>
      <point x="179" y="398" type="line"/>
      <point x="181" y="398" type="line"/>
      <point x="181" y="508" type="line"/>
      <point x="40" y="508" type="line"/>
      <point x="40" y="482" type="line"/>
      <point x="52" y="480" type="line" smooth="yes"/>
      <point x="110" y="470"/>
      <point x="138" y="464"/>
      <point x="138" y="435" type="curve" smooth="yes"/>
      <point x="138" y="64" type="line" smooth="yes"/>
      <point x="138" y="35"/>
      <point x="98" y="28"/>
      <point x="43" y="28" type="curve" smooth="yes"/>
      <point x="40" y="28" type="line"/>
    </contour>
    <contour>
      <point x="616" y="0" type="line"/>
      <point x="616" y="28" type="line"/>
      <point x="613" y="28" type="line" smooth="yes"/>
      <point x="581" y="28"/>
      <point x="528" y="31"/>
      <point x="528" y="38" type="curve" smooth="yes"/>
      <point x="528" y="357" type="line" smooth="yes"/>
      <point x="528" y="468"/>
      <point x="470" y="518"/>
      <point x="371" y="518" type="curve"/>
      <point x="289" y="518"/>
      <point x="232" y="484"/>
      <point x="176" y="418" type="curve"/>
      <point x="176" y="373" type="line"/>
      <point x="226" y="442"/>
      <point x="284" y="484"/>
      <point x="363" y="484" type="curve"/>
      <point x="454" y="484"/>
      <point x="487" y="441"/>
      <point x="487" y="346" type="curve" smooth="yes"/>
      <point x="487" y="38" type="line" smooth="yes"/>
      <point x="487" y="31"/>
      <point x="434" y="28"/>
      <point x="401" y="28" type="curve" smooth="yes"/>
      <point x="399" y="28" type="line"/>
      <point x="399" y="0" type="line"/>
    </contour>
    <contour>
      <point x="974" y="0" type="line"/>
      <point x="974" y="28" type="line"/>
      <point x="972" y="28" type="line" smooth="yes"/>
      <point x="916" y="28"/>
      <point x="876" y="35"/>
      <point x="876" y="64" type="curve" smooth="yes"/>
      <point x="876" y="357" type="line" smooth="yes"/>
      <point x="876" y="468"/>
      <point x="819" y="518"/>
      <point x="719" y="518" type="curve"/>
      <point x="635" y="518"/>
      <point x="575" y="482"/>
      <point x="518" y="411" type="curve"/>
      <point x="518" y="366" type="line"/>
      <point x="571" y="438"/>
      <point x="629" y="484"/>
      <point x="712" y="484" type="curve"/>
      <point x="803" y="484"/>
      <point x="836" y="441"/>
      <point x="836" y="346" type="curve" smooth="yes"/>
      <point x="836" y="38" type="line" smooth="yes"/>
      <point x="836" y="31"/>
      <point x="783" y="28"/>
      <point x="750" y="28" type="curve" smooth="yes"/>
      <point x="748" y="28" type="line"/>
      <point x="748" y="0" type="line"/>
    </contour>
  </outline>
</glyph>
<glyph name="q" format="2">
  <advance width="668"/>
  <unicode hex="0071"/>
  <outline>
    <contour>
      <point x="405" y="-223" type="line"/>
      <point x="663" y="-223" type="line"/>
      <point x="663" y="-195" type="line"/>
      <point x="661" y="-195" type="line"/>
      <point x="605" y="-195"/>
      <point x="565" y="-188"/>
      <point x="565" y="-159" type="curve" smooth="yes"/>
      <point x="565" y="511" type="line"/>
      <point x="540" y="511" type="line"/>
      <point x="525" y="391" type="line"/>
      <point x="525" y="391" type="line"/>
      <point x="525" y="-185" type="line" smooth="yes"/>
      <point x="525" y="-192"/>
      <point x="470" y="-195"/>
      <point x="439" y="-195" type="curve" smooth="yes"/>
      <point x="405" y="-195" type="line"/>
    </contour>
    <contour>
      <point x="312" y="518" type="curve" smooth="yes"/>
      <point x="156" y="518"/>
      <point x="51" y="408"/>
      <point x="51" y="250" type="curve" smooth="yes"/>
      <point x="51" y="93"/>
      <point x="144" y="-10"/>
      <point x="292" y="-10" type="curve" smooth="yes"/>
      <point x="397" y="-10"/>
      <point x="466" y="39"/>
      <point x="528" y="119" type="curve"/>
      <point x="528" y="171" type="line"/>
      <point x="466" y="82"/>
      <point x="394" y="21"/>
      <point x="299" y="21" type="curve" smooth="yes"/>
      <point x="163" y="21"/>
      <point x="95" y="109"/>
      <point x="95" y="250" type="curve" smooth="yes"/>
      <point x="95" y="392"/>
      <point x="174" y="487"/>
      <point x="315" y="487" type="curve" smooth="yes"/>
      <point x="416" y="487"/>
      <point x="484" y="426"/>
      <point x="528" y="333" type="curve"/>
      <point x="528" y="395" type="line"/>
      <point x="478" y="474"/>
      <point x="415" y="518"/>
    </contour>
  </outline>
</glyph>
<glyph name="s" format="2">
  <advance width="515"/>
  <unicode hex="0073"/>
  <anchor x="259" y="508" name="top"/>
  <anchor x="262" y="0" name="bottom"/>
  <outline>
    <contour>
      <point x="426" y="127" type="curve" smooth="yes"/>
      <point x="426" y="62"/>
      <point x="364" y="21"/>
      <point x="263" y="21" type="curve" smooth="yes"/>
      <point x="190" y="21"/>
      <point x="132" y="35"/>
      <point x="79" y="71" type="curve"/>
      <point x="80" y="60"/>
      <point x="85" y="43"/>
      <point x="98" y="27" type="curve"/>
      <point x="98" y="128" type="line"/>
      <point x="47" y="128" type="line"/>
      <point x="47" y="44" type="line"/>
      <point x="97" y="12"/>
      <point x="170" y="-10"/>
      <point x="263" y="-10" type="curve" smooth="yes"/>
      <point x="392" y="-10"/>
      <point x="467" y="53"/>
      <point x="467" y="132" type="curve" smooth="yes"/>
      <point x="467" y="226"/>
      <point x="374" y="254"/>
      <point x="283" y="278" type="curve" smooth="yes"/>
      <point x="198" y="301"/>
      <point x="115" y="314"/>
      <point x="115" y="390" type="curve" smooth="yes"/>
      <point x="115" y="445"/>
      <point x="167" y="487"/>
      <point x="263" y="487" type="curve" smooth="yes"/>
      <point x="324" y="487"/>
      <point x="371" y="470"/>
      <point x="402" y="443" type="curve"/>
      <point x="399" y="453"/>
      <point x="392" y="464"/>
      <point x="384" y="472" type="curve"/>
      <point x="384" y="395" type="line"/>
      <point x="435" y="395" type="line"/>
      <point x="435" y="473" type="line"/>
      <point x="402" y="494"/>
      <point x="349" y="518"/>
      <point x="263" y="518" type="curve" smooth="yes"/>
      <point x="147" y="518"/>
      <point x="73" y="465"/>
      <point x="73" y="385" type="curve" smooth="yes"/>
      <point x="73" y="294"/>
      <point x="164" y="269"/>
      <point x="254" y="246" type="curve" smooth="yes"/>
      <point x="341" y="224"/>
      <point x="426" y="204"/>
    </contour>
  </outline>
</glyph>
<glyph name="t" format="2">
  <advance width="387"/>
  <unicode hex="0074"/>
  <anchor x="165" y="675" name="top"/>
  <anchor x="287" y="681" name="right"/>
  <anchor x="244" y="0" name="bottom"/>
  <outline>
    <contour>
      <point x="18" y="477" type="line"/>
      <point x="344" y="477" type="line"/>
      <point x="344" y="508" type="line"/>
      <point x="149" y="508" type="line"/>
      <point x="131" y="553" type="line"/>
      <point x="131" y="512"/>
      <point x="90" y="503"/>
      <point x="24" y="503" type="curve" smooth="yes"/>
      <point x="18" y="503" type="line"/>
    </contour>
    <contour>
      <point x="167" y="135" type="curve" smooth="yes"/>
      <point x="167" y="648" type="line"/>
      <point x="131" y="648" type="line"/>
      <point x="131" y="500" type="line"/>
      <point x="126" y="492" type="line"/>
      <point x="126" y="135" type="line" smooth="yes"/>
      <point x="126" y="27"/>
      <point x="196" y="-10"/>
      <point x="274" y="-10" type="curve" smooth="yes"/>
      <point x="309" y="-10"/>
      <point x="337" y="-3"/>
      <point x="357" y="5" type="curve"/>
      <point x="357" y="36" type="line"/>
      <point x="337" y="31"/>
      <point x="315" y="24"/>
      <point x="283" y="24" type="curve" smooth="yes"/>
      <point x="217" y="24"/>
      <point x="167" y="56"/>
    </contour>
  </outline>
</glyph>
<glyph name="w" format="2">
  <advance width="919"/>
  <unicode hex="0077"/>
  <anchor x="465" y="508" name="top"/>
  <outline>
    <contour>
      <point x="463" y="474" type="line"/>
      <point x="305" y="0" type="line"/>
      <point x="248" y="0" type="line"/>
      <point x="91" y="447" type="line" smooth="yes"/>
      <point x="82" y="472"/>
      <point x="50" y="478"/>
      <point x="13" y="478" type="curve"/>
      <point x="12" y="478" type="line"/>
      <point x="12" y="508" type="line"/>
      <point x="230" y="508" type="line"/>
      <point x="230" y="478" type="line"/>
      <point x="228" y="478" type="line" smooth="yes"/>
      <point x="174" y="478"/>
      <point x="124" y="476"/>
      <point x="124" y="469" type="curve"/>
      <point x="282" y="21" type="line"/>
      <point x="271" y="17" type="line"/>
      <point x="434" y="508" type="line"/>
      <point x="481" y="508" type="line"/>
      <point x="648" y="19" type="line"/>
      <point x="633" y="14" type="line"/>
      <point x="790" y="457" type="line"/>
      <point x="787" y="470"/>
      <point x="745" y="478"/>
      <point x="690" y="478" type="curve" smooth="yes"/>
      <point x="688" y="478" type="line"/>
      <point x="688" y="508" type="line"/>
      <point x="907" y="508" type="line"/>
      <point x="907" y="478" type="line"/>
      <point x="905" y="478" type="line"/>
      <point x="869" y="478"/>
      <point x="831" y="466"/>
      <point x="820" y="435" type="curve" smooth="yes"/>
      <point x="668" y="0" type="line"/>
      <point x="612" y="0" type="line"/>
      <point x="444" y="489" type="line"/>
    </contour>
  </outline>
</glyph>
<glyph name="braceleft" format="2">
  <advance width="366"/>
  <unicode hex="007B"/>
  <outline>
    <contour>
      <point x="259" y="245" type="curve" smooth="yes"/>
      <point x="259" y="266"/>
      <point x="251" y="272"/>
      <point x="129" y="299" type="curve"/>
      <point x="129" y="304" type="line"/>
      <point x="251" y="331"/>
      <point x="259" y="337"/>
      <point x="259" y="358" type="curve" smooth="yes"/>
      <point x="259" y="388"/>
      <point x="123" y="527"/>
      <point x="123" y="615" type="curve" smooth="yes"/>
      <point x="123" y="687"/>
      <point x="205" y="723"/>
      <point x="343" y="725" type="curve"/>
      <point x="327" y="751" type="line"/>
      <point x="205" y="747"/>
      <point x="83" y="717"/>
      <point x="83" y="616" type="curve" smooth="yes"/>
      <point x="83" y="538"/>
      <point x="167" y="442"/>
      <point x="230" y="354" type="curve"/>
      <point x="239" y="360" type="line"/>
      <point x="58" y="310" type="line"/>
      <point x="58" y="293" type="line"/>
      <point x="239" y="243" type="line"/>
      <point x="230" y="249" type="line"/>
      <point x="167" y="161"/>
      <point x="83" y="65"/>
      <point x="83" y="-13" type="curve" smooth="yes"/>
      <point x="83" y="-114"/>
      <point x="205" y="-144"/>
      <point x="327" y="-148" type="curve"/>
      <point x="343" y="-122" type="line"/>
      <point x="205" y="-120"/>
      <point x="123" y="-84"/>
      <point x="123" y="-12" type="curve" smooth="yes"/>
      <point x="123" y="76"/>
      <point x="259" y="215"/>
    </contour>
  </outline>
</glyph>
<glyph name="yen" format="2">
  <advance width="652"/>
  <unicode hex="00A5"/>
  <outline>
    <contour>
      <point x="95" y="344" type="line"/>
      <point x="95" y="314" type="line"/>
      <point x="557" y="314" type="line"/>
      <point x="557" y="344" type="line"/>
    </contour>
    <contour>
      <point x="95" y="208" type="line"/>
      <point x="95" y="177" type="line"/>
      <point x="557" y="177" type="line"/>
      <point x="557" y="208" type="line"/>
    </contour>
    <contour>
      <point x="307" y="351" type="line"/>
      <point x="307" y="67" type="line" smooth="yes"/>
      <point x="307" y="38"/>
      <point x="265" y="31"/>
      <point x="208" y="31" type="curve" smooth="yes"/>
      <point x="189" y="31" type="line"/>
      <point x="189" y="0" type="line"/>
      <point x="465" y="0" type="line"/>
      <point x="465" y="31" type="line"/>
      <point x="447" y="31" type="line" smooth="yes"/>
      <point x="390" y="31"/>
      <point x="347" y="38"/>
      <point x="347" y="67" type="curve" smooth="yes"/>
      <point x="347" y="351" type="line"/>
    </contour>
    <contour>
      <point x="336" y="318" type="line"/>
      <point x="534" y="638" type="line" smooth="yes"/>
      <point x="558" y="675"/>
      <point x="594" y="679"/>
      <point x="634" y="679" type="curve" smooth="yes"/>
      <point x="640" y="679" type="line"/>
      <point x="640" y="710" type="line"/>
      <point x="394" y="710" type="line"/>
      <point x="394" y="679" type="line"/>
      <point x="412" y="679" type="line" smooth="yes"/>
      <point x="457" y="679"/>
      <point x="510" y="672"/>
      <point x="510" y="661" type="curve"/>
      <point x="309" y="339" type="line"/>
      <point x="342" y="348" type="line"/>
      <point x="144" y="669" type="line"/>
      <point x="144" y="676"/>
      <point x="200" y="679"/>
      <point x="242" y="679" type="curve" smooth="yes"/>
      <point x="262" y="679" type="line"/>
      <point x="262" y="710" type="line"/>
      <point x="12" y="710" type="line"/>
      <point x="12" y="679" type="line"/>
      <point x="18" y="679" type="line" smooth="yes"/>
      <point x="58" y="679"/>
      <point x="90" y="680"/>
      <point x="107" y="653" type="curve" smooth="yes"/>
      <point x="317" y="318" type="line"/>
    </contour>
  </outline>
</glyph>
<glyph name="registered" format="2">
  <advance width="979"/>
  <unicode hex="00AE"/>
  <outline>
    <contour>
      <point x="489" y="3" type="curve" smooth="yes"/>
      <point x="255" y="3"/>
      <point x="86" y="155"/>
      <point x="86" y="355" type="curve" smooth="yes"/>
      <point x="86" y="555"/>
      <point x="255" y="707"/>
      <point x="489" y="707" type="curve" smooth="yes"/>
      <point x="724" y="707"/>
      <point x="892" y="555"/>
      <point x="892" y="355" type="curve" smooth="yes"/>
      <point x="892" y="155"/>
      <point x="724" y="3"/>
    </contour>
    <contour>
      <point x="489" y="-28" type="curve" smooth="yes"/>
      <point x="739" y="-28"/>
      <point x="932" y="138"/>
      <point x="932" y="355" type="curve" smooth="yes"/>
      <point x="932" y="572"/>
      <point x="739" y="738"/>
      <point x="489" y="738" type="curve" smooth="yes"/>
      <point x="239" y="738"/>
      <point x="47" y="572"/>
      <point x="47" y="355" type="curve" smooth="yes"/>
      <point x="47" y="138"/>
      <point x="239" y="-28"/>
    </contour>
    <contour>
      <point x="309" y="153" type="line"/>
      <point x="499" y="153" type="line"/>
      <point x="499" y="181" type="line"/>
      <point x="467" y="181" type="line" smooth="yes"/>
      <point x="445" y="181"/>
      <point x="416" y="182"/>
      <point x="416" y="186" type="curve" smooth="yes"/>
      <point x="416" y="322" type="line"/>
      <point x="498" y="322" type="line" smooth="yes"/>
      <point x="600" y="322"/>
      <point x="671" y="369"/>
      <point x="671" y="443" type="curve" smooth="yes"/>
      <point x="671" y="515"/>
      <point x="606" y="557"/>
      <point x="502" y="557" type="curve" smooth="yes"/>
      <point x="309" y="557" type="line"/>
      <point x="309" y="530" type="line"/>
      <point x="316" y="530" type="line" smooth="yes"/>
      <point x="349" y="530"/>
      <point x="374" y="526"/>
      <point x="374" y="510" type="curve" smooth="yes"/>
      <point x="374" y="201" type="line" smooth="yes"/>
      <point x="374" y="185"/>
      <point x="349" y="181"/>
      <point x="316" y="181" type="curve" smooth="yes"/>
      <point x="309" y="181" type="line"/>
    </contour>
    <contour>
      <point x="502" y="527" type="line" smooth="yes"/>
      <point x="585" y="527"/>
      <point x="625" y="503"/>
      <point x="625" y="443" type="curve" smooth="yes"/>
      <point x="625" y="384"/>
      <point x="585" y="352"/>
      <point x="498" y="352" type="curve" smooth="yes"/>
      <point x="416" y="352" type="line"/>
      <point x="416" y="527" type="line"/>
    </contour>
    <contour>
      <point x="506" y="341" type="line"/>
      <point x="619" y="152" type="line"/>
      <point x="696" y="152" type="line"/>
      <point x="696" y="180" type="line"/>
      <point x="686" y="180" type="line" smooth="yes"/>
      <point x="669" y="180"/>
      <point x="653" y="183"/>
      <point x="645" y="196" type="curve" smooth="yes"/>
      <point x="546" y="348" type="line"/>
    </contour>
  </outline>
</glyph>
<glyph name="paragraph" format="2">
  <advance width="687"/>
  <unicode hex="00B6"/>
  <outline>
    <contour>
      <point x="341" y="0" type="line"/>
      <point x="304" y="0" type="line"/>
      <point x="304" y="355" type="line"/>
      <point x="298" y="355" type="line" smooth="yes"/>
      <point x="166" y="355"/>
      <point x="84" y="431"/>
      <point x="84" y="538" type="curve" smooth="yes"/>
      <point x="84" y="643"/>
      <point x="167" y="710"/>
      <point x="305" y="710" type="curve" smooth="yes"/>
      <point x="341" y="710" type="line"/>
    </contour>
    <contour>
      <point x="543" y="710" type="line"/>
      <point x="543" y="679" type="line"/>
      <point x="323" y="679" type="line"/>
      <point x="323" y="710" type="line"/>
    </contour>
    <contour>
      <point x="521" y="0" type="line"/>
      <point x="484" y="0" type="line"/>
      <point x="484" y="710" type="line"/>
      <point x="633" y="710" type="line"/>
      <point x="633" y="679" type="line"/>
      <point x="621" y="679" type="line" smooth="yes"/>
      <point x="563" y="679"/>
      <point x="521" y="672"/>
      <point x="521" y="643" type="curve" smooth="yes"/>
    </contour>
  </outline>
</glyph>
<glyph name="multiply" format="2">
  <advance width="652"/>
  <unicode hex="00D7"/>
  <outline>
    <contour>
      <point x="142" y="522" type="line"/>
      <point x="118" y="499" type="line"/>
      <point x="511" y="159" type="line"/>
      <point x="534" y="182" type="line"/>
    </contour>
    <contour>
      <point x="510" y="522" type="line"/>
      <point x="118" y="182" type="line"/>
      <point x="141" y="159" type="line"/>
      <point x="534" y="499" type="line"/>
    </contour>
  </outline>
</glyph>
<glyph name="Thorn" format="2">
  <advance width="679"/>
  <unicode hex="00DE"/>
  <outline>
    <contour>
      <point x="326" y="710" type="line"/>
      <point x="326" y="679" type="line"/>
      <point x="294" y="679" type="line" smooth="yes"/>
      <point x="255" y="679"/>
      <point x="205" y="676"/>
      <point x="205" y="669" type="curve" smooth="yes"/>
      <point x="205" y="41" type="line" smooth="yes"/>
      <point x="205" y="34"/>
      <point x="255" y="31"/>
      <point x="294" y="31" type="curve" smooth="yes"/>
      <point x="326" y="31" type="line"/>
      <point x="326" y="0" type="line"/>
      <point x="52" y="0" type="line"/>
      <point x="52" y="31" type="line"/>
      <point x="65" y="31" type="line" smooth="yes"/>
      <point x="122" y="31"/>
      <point x="164" y="38"/>
      <point x="164" y="67" type="curve" smooth="yes"/>
      <point x="164" y="643" type="line" smooth="yes"/>
      <point x="164" y="672"/>
      <point x="122" y="679"/>
      <point x="65" y="679" type="curve" smooth="yes"/>
      <point x="52" y="679" type="line"/>
      <point x="52" y="710" type="line"/>
    </contour>
    <contour>
      <point x="643" y="361" type="curve" smooth="yes"/>
      <point x="643" y="241"/>
      <point x="557" y="159"/>
      <point x="358" y="159" type="curve" smooth="yes"/>
      <point x="194" y="159" type="line"/>
      <point x="194" y="190" type="line"/>
      <point x="358" y="190" type="line" smooth="yes"/>
      <point x="537" y="190"/>
      <point x="600" y="257"/>
      <point x="600" y="360" type="curve" smooth="yes"/>
      <point x="600" y="466"/>
      <point x="535" y="525"/>
      <point x="363" y="525" type="curve" smooth="yes"/>
      <point x="194" y="525" type="line"/>
      <point x="192" y="556" type="line"/>
      <point x="363" y="556" type="line" smooth="yes"/>
      <point x="562" y="556"/>
      <point x="643" y="481"/>
    </contour>
  </outline>
</glyph>
<glyph name="divide" format="2">
  <advance width="652"/>
  <unicode hex="00F7"/>
  <outline>
    <contour>
      <point x="373" y="509" type="curve" smooth="yes"/>
      <point x="373" y="535"/>
      <point x="354" y="552"/>
      <point x="326" y="552" type="curve" smooth="yes"/>
      <point x="298" y="552"/>
      <point x="279" y="535"/>
      <point x="279" y="509" type="curve" smooth="yes"/>
      <point x="279" y="483"/>
      <point x="298" y="466"/>
      <point x="326" y="466" type="curve" smooth="yes"/>
      <point x="354" y="466"/>
      <point x="373" y="483"/>
    </contour>
    <contour>
      <point x="373" y="175" type="curve" smooth="yes"/>
      <point x="373" y="201"/>
      <point x="354" y="218"/>
      <point x="326" y="218" type="curve" smooth="yes"/>
      <point x="298" y="218"/>
      <point x="279" y="201"/>
      <point x="279" y="175" type="curve" smooth="yes"/>
      <point x="279" y="149"/>
      <point x="298" y="132"/>
      <point x="326" y="132" type="curve" smooth="yes"/>
      <point x="354" y="132"/>
      <point x="373" y="149"/>
    </contour>
    <component base="minus"/>
  </outline>
</glyph>
<glyph name="Hbar" format="2">
  <advance width="947"/>
  <unicode hex="0126"/>
  <outline>
    <contour>
      <point x="52" y="513" type="line"/>
      <point x="849" y="513" type="line"/>
      <point x="849" y="544" type="line"/>
      <point x="52" y="544" type="line"/>
    </contour>
    <contour>
      <point x="197" y="381" type="line"/>
      <point x="197" y="351" type="line"/>
      <point x="730" y="351" type="line"/>
      <point x="730" y="381" type="line"/>
    </contour>
    <contour>
      <point x="52" y="0" type="line"/>
      <point x="316" y="0" type="line"/>
      <point x="316" y="31" type="line"/>
      <point x="306" y="31" type="line" smooth="yes"/>
      <point x="262" y="31"/>
      <point x="205" y="34"/>
      <point x="205" y="41" type="curve" smooth="yes"/>
      <point x="205" y="669" type="line" smooth="yes"/>
      <point x="205" y="676"/>
      <point x="262" y="679"/>
      <point x="306" y="679" type="curve" smooth="yes"/>
      <point x="316" y="679" type="line"/>
      <point x="316" y="710" type="line"/>
      <point x="52" y="710" type="line"/>
      <point x="52" y="679" type="line"/>
      <point x="65" y="679" type="line" smooth="yes"/>
      <point x="122" y="679"/>
      <point x="164" y="672"/>
      <point x="164" y="643" type="curve" smooth="yes"/>
      <point x="164" y="67" type="line" smooth="yes"/>
      <point x="164" y="38"/>
      <point x="122" y="31"/>
      <point x="65" y="31" type="curve" smooth="yes"/>
      <point x="52" y="31" type="line"/>
    </contour>
    <contour>
      <point x="585" y="0" type="line"/>
      <point x="849" y="0" type="line"/>
      <point x="849" y="31" type="line"/>
      <point x="836" y="31" type="line" smooth="yes"/>
      <point x="779" y="31"/>
      <point x="737" y="38"/>
      <point x="737" y="67" type="curve" smooth="yes"/>
      <point x="737" y="643" type="line" smooth="yes"/>
      <point x="737" y="672"/>
      <point x="779" y="679"/>
      <point x="836" y="679" type="curve" smooth="yes"/>
      <point x="849" y="679" type="line"/>
      <point x="849" y="710" type="line"/>
      <point x="585" y="710" type="line"/>
      <point x="585" y="679" type="line"/>
      <point x="595" y="679" type="line" smooth="yes"/>
      <point x="640" y="679"/>
      <point x="696" y="676"/>
      <point x="696" y="669" type="curve" smooth="yes"/>
      <point x="696" y="41" type="line" smooth="yes"/>
      <point x="696" y="34"/>
      <point x="640" y="31"/>
      <point x="595" y="31" type="curve" smooth="yes"/>
      <point x="585" y="31" type="line"/>
    </contour>
  </outline>
</glyph>
<glyph name="hbar" format="2">
  <advance width="694"/>
  <unicode hex="0127"/>
  <outline>
    <contour>
      <point x="661" y="0" type="line"/>
      <point x="661" y="28" type="line"/>
      <point x="658" y="28" type="line" smooth="yes"/>
      <point x="602" y="28"/>
      <point x="562" y="35"/>
      <point x="562" y="64" type="curve" smooth="yes"/>
      <point x="562" y="357" type="line" smooth="yes"/>
      <point x="562" y="468"/>
      <point x="500" y="518"/>
      <point x="392" y="518" type="curve" smooth="yes"/>
      <point x="289" y="518"/>
      <point x="217" y="468"/>
      <point x="144" y="365" type="curve"/>
      <point x="153" y="334" type="line"/>
      <point x="217" y="427"/>
      <point x="288" y="484"/>
      <point x="384" y="484" type="curve" smooth="yes"/>
      <point x="485" y="484"/>
      <point x="521" y="441"/>
      <point x="521" y="346" type="curve" smooth="yes"/>
      <point x="521" y="38" type="line" smooth="yes"/>
      <point x="521" y="31"/>
      <point x="469" y="28"/>
      <point x="436" y="28" type="curve" smooth="yes"/>
      <point x="434" y="28" type="line"/>
      <point x="434" y="0" type="line"/>
    </contour>
    <contour>
      <point x="437" y="632" type="line"/>
      <point x="25" y="632" type="line"/>
      <point x="25" y="601" type="line"/>
      <point x="437" y="601" type="line"/>
    </contour>
    <contour>
      <point x="138" y="735" type="line"/>
      <point x="138" y="64" type="line" smooth="yes"/>
      <point x="138" y="35"/>
      <point x="98" y="28"/>
      <point x="43" y="28" type="curve" smooth="yes"/>
      <point x="40" y="28" type="line"/>
      <point x="40" y="0" type="line"/>
      <point x="266" y="0" type="line"/>
      <point x="266" y="28" type="line"/>
      <point x="263" y="28" type="line" smooth="yes"/>
      <point x="230" y="28"/>
      <point x="179" y="31"/>
      <point x="179" y="38" type="curve"/>
      <point x="179" y="735" type="line"/>
    </contour>
  </outline>
</glyph>
<glyph name="dotlessi" format="2">
  <advance width="319"/>
  <unicode hex="0131"/>
  <anchor x="169" y="508" name="top"/>
  <outline>
    <contour>
      <point x="179" y="508" type="line"/>
      <point x="40" y="508" type="line"/>
      <point x="40" y="482" type="line"/>
      <point x="52" y="480" type="line" smooth="yes"/>
      <point x="110" y="470"/>
      <point x="138" y="464"/>
      <point x="138" y="435" type="curve" smooth="yes"/>
      <point x="138" y="64" type="line" smooth="yes"/>
      <point x="138" y="35"/>
      <point x="98" y="28"/>
      <point x="43" y="28" type="curve" smooth="yes"/>
      <point x="40" y="28" type="line"/>
      <point x="40" y="0" type="line"/>
      <point x="277" y="0" type="line"/>
      <point x="277" y="28" type="line"/>
      <point x="274" y="28" type="line" smooth="yes"/>
      <point x="219" y="28"/>
      <point x="179" y="35"/>
      <point x="179" y="64" type="curve" smooth="yes"/>
    </contour>
  </outline>
</glyph>
<glyph name="eng" format="2">
  <advance width="669"/>
  <unicode hex="014B"/>
  <outline>
    <contour>
      <point x="40" y="0" type="line"/>
      <point x="266" y="0" type="line"/>
      <point x="266" y="28" type="line"/>
      <point x="263" y="28" type="line" smooth="yes"/>
      <point x="231" y="28"/>
      <point x="179" y="31"/>
      <point x="179" y="38" type="curve" smooth="yes"/>
      <point x="179" y="398" type="line"/>
      <point x="180" y="389" type="line"/>
      <point x="180" y="508" type="line"/>
      <point x="40" y="508" type="line"/>
      <point x="40" y="482" type="line"/>
      <point x="52" y="480" type="line" smooth="yes"/>
      <point x="110" y="470"/>
      <point x="138" y="464"/>
      <point x="138" y="435" type="curve" smooth="yes"/>
      <point x="138" y="64" type="line" smooth="yes"/>
      <point x="138" y="35"/>
      <point x="98" y="28"/>
      <point x="43" y="28" type="curve" smooth="yes"/>
      <point x="40" y="28" type="line"/>
    </contour>
    <contour>
      <point x="562" y="357" type="line" smooth="yes"/>
      <point x="562" y="468"/>
      <point x="500" y="518"/>
      <point x="392" y="518" type="curve" smooth="yes"/>
      <point x="289" y="518"/>
      <point x="217" y="468"/>
      <point x="144" y="365" type="curve"/>
      <point x="153" y="334" type="line"/>
      <point x="217" y="427"/>
      <point x="288" y="484"/>
      <point x="384" y="484" type="curve" smooth="yes"/>
      <point x="486" y="484"/>
      <point x="522" y="441"/>
      <point x="522" y="346" type="curve"/>
      <point x="522" y="-74" type="line" smooth="yes"/>
      <point x="522" y="-171"/>
      <point x="475" y="-203"/>
      <point x="400" y="-203" type="curve" smooth="yes"/>
      <point x="356" y="-203"/>
      <point x="324" y="-194"/>
      <point x="298" y="-185" type="curve"/>
      <point x="298" y="-220" type="line"/>
      <point x="320" y="-229"/>
      <point x="351" y="-236"/>
      <point x="400" y="-236" type="curve" smooth="yes"/>
      <point x="479" y="-236"/>
      <point x="562" y="-204"/>
      <point x="562" y="-74" type="curve" smooth="yes"/>
    </contour>
  </outline>
</glyph>
<glyph name="uogonek" format="2">
  <advance width="664"/>
  <unicode hex="0173"/>
  <outline>
    <contour>
      <point x="162" y="508" type="line"/>
      <point x="23" y="508" type="line"/>
      <point x="23" y="480" type="line"/>
      <point x="25" y="480" type="line" smooth="yes"/>
      <point x="80" y="480"/>
      <point x="121" y="473"/>
      <point x="121" y="444" type="curve" smooth="yes"/>
      <point x="121" y="151" type="line" smooth="yes"/>
      <point x="121" y="40"/>
      <point x="182" y="-10"/>
      <point x="290" y="-10" type="curve" smooth="yes"/>
      <point x="375" y="-10"/>
      <point x="441" y="26"/>
      <point x="503" y="99" type="curve"/>
      <point x="503" y="143" type="line"/>
      <point x="445" y="69"/>
      <point x="382" y="24"/>
      <point x="297" y="24" type="curve" smooth="yes"/>
      <point x="197" y="24"/>
      <point x="162" y="67"/>
      <point x="162" y="162" type="curve"/>
    </contour>
    <contour>
      <point x="541" y="508" type="line"/>
      <point x="393" y="508" type="line"/>
      <point x="393" y="480" type="line"/>
      <point x="393" y="480" type="line"/>
      <point x="459" y="480"/>
      <point x="500" y="473"/>
      <point x="500" y="444" type="curve" smooth="yes"/>
      <point x="500" y="117" type="line"/>
      <point x="499" y="117" type="line"/>
      <point x="499" y="0" type="line"/>
      <point x="641" y="0" type="line"/>
      <point x="641" y="28" type="line"/>
      <point x="638" y="28" type="line" smooth="yes"/>
      <point x="581" y="28"/>
      <point x="541" y="35"/>
      <point x="541" y="64" type="curve" smooth="yes"/>
    </contour>
    <contour>
      <point x="530" y="21" type="line"/>
      <point x="462" y="-22"/>
      <point x="387" y="-69"/>
      <point x="387" y="-140" type="curve" smooth="yes"/>
      <point x="387" y="-198"/>
      <point x="437" y="-233"/>
      <point x="496" y="-233" type="curve" smooth="yes"/>
      <point x="545" y="-233"/>
      <point x="584" y="-211"/>
      <point x="616" y="-180" type="curve"/>
      <point x="595" y="-160" type="line"/>
      <point x="568" y="-183"/>
      <point x="542" y="-202"/>
      <point x="501" y="-202" type="curve" smooth="yes"/>
      <point x="462" y="-202"/>
      <point x="427" y="-181"/>
      <point x="427" y="-140" type="curve" smooth="yes"/>
      <point x="427" y="-83"/>
      <point x="471" y="-50"/>
      <point x="550" y="1" type="curve"/>
    </contour>
  </outline>
</glyph>
<glyph name="ohorn" format="2">
  <advance width="661"/>
  <unicode hex="01A1"/>
  <anchor x="327" y="508" name="top"/>
  <outline>
    <contour>
      <point x="323" y="19" type="curve"/>
      <point x="182" y="19"/>
      <point x="95" y="111"/>
      <point x="95" y="253" type="curve" smooth="yes"/>
      <point x="95" y="392"/>
      <point x="182" y="487"/>
      <point x="323" y="487" type="curve" smooth="yes"/>
      <point x="464" y="487"/>
      <point x="551" y="392"/>
      <point x="551" y="253" type="curve" smooth="yes"/>
      <point x="551" y="110"/>
      <point x="464" y="19"/>
    </contour>
    <contour>
      <point x="409" y="490" type="line"/>
      <point x="429" y="487"/>
      <point x="446" y="484"/>
      <point x="460" y="484" type="curve"/>
      <point x="562" y="484"/>
      <point x="618" y="570"/>
      <point x="631" y="685" type="curve"/>
      <point x="590" y="685" type="line"/>
      <point x="581" y="579"/>
      <point x="534" y="508"/>
      <point x="449" y="508" type="curve" smooth="yes"/>
      <point x="414" y="508"/>
      <point x="382" y="518"/>
      <point x="323" y="518" type="curve" smooth="yes"/>
      <point x="165" y="518"/>
      <point x="51" y="410"/>
      <point x="51" y="253" type="curve" smooth="yes"/>
      <point x="51" y="95"/>
      <point x="165" y="-12"/>
      <point x="323" y="-12" type="curve"/>
      <point x="481" y="-12"/>
      <point x="595" y="95"/>
      <point x="595" y="253" type="curve" smooth="yes"/>
      <point x="595" y="369"/>
      <point x="522" y="460"/>
      <point x="409" y="492" type="curve"/>
      <point x="423" y="484" type="line"/>
      <point x="423" y="490" type="line"/>
    </contour>
  </outline>
</glyph>
<glyph name="Uhorn" format="2">
  <advance width="953"/>
  <unicode hex="01AF"/>
  <anchor x="488" y="663" name="top"/>
  <outline>
    <contour>
      <point x="873" y="695" type="curve" smooth="yes"/>
      <point x="968" y="721"/>
      <point x="1002" y="783"/>
      <point x="1006" y="878" type="curve"/>
      <point x="965" y="878" type="line"/>
      <point x="955" y="738"/>
      <point x="887" y="710"/>
      <point x="707" y="710" type="curve" smooth="yes"/>
      <point x="600" y="710" type="line"/>
      <point x="600" y="679" type="line"/>
      <point x="610" y="679" type="line" smooth="yes"/>
      <point x="654" y="679"/>
      <point x="711" y="671"/>
      <point x="711" y="657" type="curve" smooth="yes"/>
      <point x="711" y="271" type="line" smooth="yes"/>
      <point x="711" y="90"/>
      <point x="601" y="25"/>
      <point x="459" y="25" type="curve" smooth="yes"/>
      <point x="318" y="25"/>
      <point x="205" y="87"/>
      <point x="205" y="271" type="curve" smooth="yes"/>
      <point x="205" y="669" type="line" smooth="yes"/>
      <point x="205" y="676"/>
      <point x="262" y="679"/>
      <point x="306" y="679" type="curve" smooth="yes"/>
      <point x="317" y="679" type="line"/>
      <point x="317" y="710" type="line"/>
      <point x="52" y="710" type="line"/>
      <point x="52" y="679" type="line"/>
      <point x="66" y="679" type="line" smooth="yes"/>
      <point x="122" y="679"/>
      <point x="164" y="672"/>
      <point x="164" y="643" type="curve" smooth="yes"/>
      <point x="164" y="271" type="line" smooth="yes"/>
      <point x="164" y="68"/>
      <point x="287" y="-10"/>
      <point x="455" y="-10" type="curve" smooth="yes"/>
      <point x="618" y="-10"/>
      <point x="746" y="69"/>
      <point x="746" y="271" type="curve" smooth="yes"/>
      <point x="746" y="643" type="line" smooth="yes"/>
      <point x="746" y="677"/>
      <point x="777" y="671"/>
    </contour>
  </outline>
</glyph>
<glyph name="circumflex" format="2">
  <advance width="583"/>
  <unicode hex="02C6"/>
  <anchor x="286" y="529" name="_top"/>
  <outline>
    <contour>
      <point x="326" y="739" type="line"/>
      <point x="444" y="606" type="line"/>
      <point x="444" y="596" type="line"/>
      <point x="418" y="596" type="line"/>
      <point x="262" y="725" type="line"/>
      <point x="312" y="725" type="line"/>
      <point x="159" y="596" type="line"/>
      <point x="141" y="596" type="line"/>
      <point x="141" y="606" type="line"/>
      <point x="254" y="739" type="line"/>
    </contour>
  </outline>
</glyph>
<glyph name="thai:baht" format="2">
  <advance width="654"/>
  <unicode hex="0E3F"/>
  <outline>
    <contour>
      <point x="323" y="386" type="curve"/>
      <point x="169" y="386" type="line"/>
      <point x="169" y="679" type="line"/>
      <point x="351" y="679" type="line"/>
      <point x="469" y="679"/>
      <point x="520" y="629"/>
      <point x="520" y="540" type="curve" smooth="yes"/>
      <point x="520" y="450"/>
      <point x="462" y="386"/>
    </contour>
    <contour>
      <point x="327" y="358" type="line"/>
      <point x="478" y="358"/>
      <point x="549" y="290"/>
      <point x="549" y="193" type="curve" smooth="yes"/>
      <point x="549" y="89"/>
      <point x="487" y="31"/>
      <point x="357" y="31" type="curve" smooth="yes"/>
      <point x="169" y="31" type="line"/>
      <point x="169" y="358" type="line"/>
    </contour>
    <contour>
      <point x="313" y="790" type="line"/>
      <point x="313" y="698" type="line"/>
      <point x="313" y="690" type="line"/>
      <point x="313" y="22" type="line"/>
      <point x="313" y="12" type="line"/>
      <point x="313" y="-120" type="line"/>
      <point x="349" y="-120" type="line"/>
      <point x="349" y="12" type="line"/>
      <point x="350" y="22" type="line"/>
      <point x="350" y="690" type="line"/>
      <point x="349" y="698" type="line"/>
      <point x="349" y="790" type="line"/>
    </contour>
    <contour>
      <point x="284" y="363" type="line"/>
      <point x="483" y="363"/>
      <point x="565" y="435"/>
      <point x="565" y="542" type="curve" smooth="yes"/>
      <point x="565" y="645"/>
      <point x="492" y="710"/>
      <point x="351" y="710" type="curve"/>
      <point x="32" y="710" type="line"/>
      <point x="32" y="679" type="line"/>
      <point x="45" y="679" type="line" smooth="yes"/>
      <point x="93" y="679"/>
      <point x="128" y="672"/>
      <point x="128" y="643" type="curve" smooth="yes"/>
      <point x="128" y="67" type="line" smooth="yes"/>
      <point x="128" y="38"/>
      <point x="93" y="31"/>
      <point x="45" y="31" type="curve" smooth="yes"/>
      <point x="32" y="31" type="line"/>
      <point x="32" y="0" type="line"/>
      <point x="357" y="0" type="line" smooth="yes"/>
      <point x="511" y="0"/>
      <point x="596" y="73"/>
      <point x="596" y="192" type="curve" smooth="yes"/>
      <point x="596" y="309"/>
      <point x="499" y="384"/>
      <point x="289" y="384" type="curve"/>
      <point x="377" y="365" type="line"/>
      <point x="377" y="382" type="line"/>
    </contour>
  </outline>
</glyph>
<glyph name="emdash" format="2">
  <advance width="1080"/>
  <unicode hex="2014"/>
  <outline>
    <contour>
      <point x="81" y="331" type="line"/>
      <point x="81" y="300" type="line"/>
      <point x="1000" y="300" type="line"/>
      <point x="1000" y="331" type="line"/>
    </contour>
  </outline>
</glyph>
<glyph name="colonmonetary" format="2">
  <advance width="652"/>
  <unicode hex="20A1"/>
  <outline>
    <contour>
      <point x="376" y="700" type="curve" smooth="yes"/>
      <point x="182" y="700"/>
      <point x="41" y="570"/>
      <point x="41" y="355" type="curve" smooth="yes"/>
      <point x="41" y="150"/>
      <point x="173" y="10"/>
      <point x="361" y="10" type="curve" smooth="yes"/>
      <point x="510" y="10"/>
      <point x="598" y="98"/>
      <point x="632" y="220" type="curve"/>
      <point x="599" y="232" type="line"/>
      <point x="570" y="131"/>
      <point x="499" y="41"/>
      <point x="360" y="41" type="curve" smooth="yes"/>
      <point x="193" y="41"/>
      <point x="85" y="165"/>
      <point x="85" y="355" type="curve" smooth="yes"/>
      <point x="85" y="557"/>
      <point x="206" y="669"/>
      <point x="376" y="669" type="curve" smooth="yes"/>
      <point x="497" y="669"/>
      <point x="570" y="627"/>
      <point x="599" y="586" type="curve"/>
      <point x="613" y="573"/>
      <point x="618" y="617"/>
      <point x="571" y="630" type="curve"/>
      <point x="571" y="529" type="line"/>
      <point x="623" y="529" type="line"/>
      <point x="623" y="626" type="line"/>
      <point x="583" y="659"/>
      <point x="504" y="700"/>
    </contour>
    <contour>
      <point x="289" y="790" type="line"/>
      <point x="271" y="673" type="line"/>
      <point x="270" y="665" type="line"/>
      <point x="177" y="97" type="line"/>
      <point x="176" y="87" type="line"/>
      <point x="143" y="-120" type="line"/>
      <point x="182" y="-120" type="line"/>
      <point x="211" y="63" type="line"/>
      <point x="212" y="70" type="line"/>
      <point x="312" y="680" type="line"/>
      <point x="312" y="684" type="line"/>
      <point x="329" y="790" type="line"/>
    </contour>
    <contour>
      <point x="459" y="790" type="line"/>
      <point x="442" y="685" type="line"/>
      <point x="441" y="679" type="line"/>
      <point x="336" y="36" type="line"/>
      <point x="335" y="28" type="line"/>
      <point x="312" y="-120" type="line"/>
      <point x="352" y="-120" type="line"/>
      <point x="374" y="21" type="line"/>
      <point x="375" y="27" type="line"/>
      <point x="480" y="669" type="line"/>
      <point x="481" y="675" type="line"/>
      <point x="499" y="790" type="line"/>
    </contour>
  </outline>
</glyph>
<glyph name="Euro" format="2">
  <advance width="652"/>
  <unicode hex="20AC"/>
  <outline>
    <contour>
      <point x="26" y="286" type="line"/>
      <point x="26" y="255" type="line"/>
      <point x="397" y="255" type="line"/>
      <point x="397" y="286" type="line"/>
    </contour>
    <contour>
      <point x="26" y="437" type="line"/>
      <point x="26" y="407" type="line"/>
      <point x="441" y="407" type="line"/>
      <point x="441" y="437" type="line"/>
    </contour>
    <contour>
      <point x="402" y="-10" type="curve" smooth="yes"/>
      <point x="529" y="-10"/>
      <point x="589" y="52"/>
      <point x="625" y="132" type="curve"/>
      <point x="594" y="145" type="line"/>
      <point x="565" y="80"/>
      <point x="515" y="21"/>
      <point x="401" y="21" type="curve" smooth="yes"/>
      <point x="256" y="21"/>
      <point x="159" y="117"/>
      <point x="159" y="349" type="curve" smooth="yes"/>
      <point x="159" y="599"/>
      <point x="269" y="688"/>
      <point x="417" y="688" type="curve" smooth="yes"/>
      <point x="488" y="688"/>
      <point x="557" y="671"/>
      <point x="592" y="629" type="curve"/>
      <point x="595" y="636"/>
      <point x="578" y="665"/>
      <point x="565" y="668" type="curve"/>
      <point x="565" y="577" type="line"/>
      <point x="616" y="577" type="line"/>
      <point x="616" y="658" type="line"/>
      <point x="587" y="687"/>
      <point x="509" y="719"/>
      <point x="417" y="719" type="curve" smooth="yes"/>
      <point x="243" y="719"/>
      <point x="115" y="614"/>
      <point x="115" y="349" type="curve" smooth="yes"/>
      <point x="115" y="102"/>
      <point x="230" y="-10"/>
    </contour>
  </outline>
</glyph>
<glyph name="kip" format="2">
  <advance width="652"/>
  <unicode hex="20AD"/>
  <outline>
    <contour>
      <point x="37" y="386" type="line"/>
      <point x="37" y="356" type="line"/>
      <point x="570" y="356" type="line"/>
      <point x="570" y="386" type="line"/>
    </contour>
    <contour>
      <point x="37" y="0" type="line"/>
      <point x="305" y="0" type="line" smooth="yes"/>
      <point x="305" y="31" type="line" smooth="yes"/>
      <point x="294" y="31" type="line" smooth="yes"/>
      <point x="250" y="31"/>
      <point x="193" y="34"/>
      <point x="193" y="41" type="curve" smooth="yes"/>
      <point x="193" y="669" type="line" smooth="yes"/>
      <point x="193" y="676"/>
      <point x="250" y="679"/>
      <point x="294" y="679" type="curve" smooth="yes"/>
      <point x="305" y="679" type="line" smooth="yes"/>
      <point x="305" y="710" type="line" smooth="yes"/>
      <point x="37" y="710" type="line"/>
      <point x="37" y="679" type="line"/>
      <point x="49" y="679" type="line" smooth="yes"/>
      <point x="109" y="679"/>
      <point x="152" y="672"/>
      <point x="152" y="643" type="curve" smooth="yes"/>
      <point x="152" y="67" type="line" smooth="yes"/>
      <point x="152" y="38"/>
      <point x="109" y="31"/>
      <point x="49" y="31" type="curve" smooth="yes"/>
      <point x="37" y="31" type="line"/>
    </contour>
    <contour>
      <point x="651" y="31" type="line"/>
      <point x="638" y="31" type="line" smooth="yes"/>
      <point x="593" y="31"/>
      <point x="573" y="34"/>
      <point x="548" y="64" type="curve" smooth="yes"/>
      <point x="292" y="383" type="line"/>
      <point x="282" y="358" type="line"/>
      <point x="544" y="650" type="line" smooth="yes"/>
      <point x="564" y="673"/>
      <point x="587" y="679"/>
      <point x="623" y="679" type="curve" smooth="yes"/>
      <point x="641" y="679" type="line"/>
      <point x="641" y="710" type="line"/>
      <point x="412" y="710" type="line"/>
      <point x="412" y="679" type="line"/>
      <point x="422" y="679" type="line" smooth="yes"/>
      <point x="467" y="679"/>
      <point x="515" y="676"/>
      <point x="518" y="669" type="curve"/>
      <point x="249" y="367" type="line"/>
      <point x="262" y="362" type="line"/>
      <point x="522" y="41" type="line"/>
      <point x="522" y="34"/>
      <point x="465" y="31"/>
      <point x="421" y="31" type="curve" smooth="yes"/>
      <point x="411" y="31" type="line"/>
      <point x="411" y="0" type="line"/>
      <point x="651" y="0" type="line"/>
    </contour>
  </outline>
</glyph>
<glyph name="uni20B4" format="2">
  <advance width="652"/>
  <unicode hex="20B4"/>
  <outline>
    <contour>
      <point x="24" y="456" type="line"/>
      <point x="24" y="426" type="line"/>
      <point x="629" y="426" type="line"/>
      <point x="629" y="456" type="line"/>
    </contour>
    <contour>
      <point x="24" y="316" type="line"/>
      <point x="24" y="285" type="line"/>
      <point x="629" y="285" type="line"/>
      <point x="629" y="316" type="line"/>
    </contour>
    <contour>
      <point x="335" y="720" type="curve" smooth="yes"/>
      <point x="231" y="720"/>
      <point x="154" y="682"/>
      <point x="119" y="653" type="curve"/>
      <point x="119" y="567" type="line"/>
      <point x="173" y="567" type="line"/>
      <point x="173" y="668" type="line"/>
      <point x="156" y="664"/>
      <point x="137" y="641"/>
      <point x="143" y="620" type="curve"/>
      <point x="178" y="657"/>
      <point x="242" y="689"/>
      <point x="336" y="689" type="curve" smooth="yes"/>
      <point x="444" y="689"/>
      <point x="504" y="644"/>
      <point x="504" y="567" type="curve" smooth="yes"/>
      <point x="504" y="512"/>
      <point x="480" y="472"/>
      <point x="444" y="445" type="curve"/>
      <point x="501" y="444" type="line"/>
      <point x="528" y="473"/>
      <point x="546" y="515"/>
      <point x="546" y="563" type="curve" smooth="yes"/>
      <point x="546" y="660"/>
      <point x="466" y="720"/>
    </contour>
    <contour>
      <point x="326" y="-10" type="curve" smooth="yes"/>
      <point x="449" y="-10"/>
      <point x="537" y="39"/>
      <point x="581" y="79" type="curve"/>
      <point x="581" y="167" type="line"/>
      <point x="531" y="167" type="line"/>
      <point x="531" y="71" type="line"/>
      <point x="551" y="77"/>
      <point x="564" y="99"/>
      <point x="556" y="115" type="curve"/>
      <point x="516" y="64"/>
      <point x="434" y="21"/>
      <point x="325" y="21" type="curve" smooth="yes"/>
      <point x="205" y="21"/>
      <point x="122" y="74"/>
      <point x="122" y="167" type="curve" smooth="yes"/>
      <point x="122" y="221"/>
      <point x="144" y="263"/>
      <point x="183" y="291" type="curve"/>
      <point x="131" y="291" type="line"/>
      <point x="98" y="260"/>
      <point x="81" y="222"/>
      <point x="81" y="173" type="curve" smooth="yes"/>
      <point x="81" y="55"/>
      <point x="186" y="-10"/>
    </contour>
  </outline>
</glyph>
<glyph name="litre" format="2">
  <advance width="608"/>
  <unicode hex="2113"/>
  <outline>
    <contour>
      <point x="261" y="238" type="curve" smooth="yes"/>
      <point x="261" y="578"/>
      <point x="316" y="679"/>
      <point x="399" y="679" type="curve" smooth="yes"/>
      <point x="452" y="679"/>
      <point x="468" y="632"/>
      <point x="468" y="562" type="curve" smooth="yes"/>
      <point x="468" y="392"/>
      <point x="307" y="284"/>
      <point x="72" y="219" type="curve"/>
      <point x="80" y="191" type="line"/>
      <point x="321" y="255"/>
      <point x="507" y="395"/>
      <point x="507" y="562" type="curve" smooth="yes"/>
      <point x="507" y="638"/>
      <point x="479" y="710"/>
      <point x="398" y="710" type="curve" smooth="yes"/>
      <point x="286" y="710"/>
      <point x="216" y="580"/>
      <point x="216" y="238" type="curve" smooth="yes"/>
      <point x="216" y="55"/>
      <point x="271" y="-10"/>
      <point x="364" y="-10" type="curve" smooth="yes"/>
      <point x="446" y="-10"/>
      <point x="496" y="59"/>
      <point x="525" y="130" type="curve"/>
      <point x="501" y="145" type="line"/>
      <point x="478" y="92"/>
      <point x="438" y="21"/>
      <point x="367" y="21" type="curve" smooth="yes"/>
      <point x="313" y="21"/>
      <point x="261" y="59"/>
    </contour>
  </outline>
</glyph>
<glyph name="estimated" format="2">
  <advance width="979"/>
  <unicode hex="212E"/>
  <outline>
    <contour>
      <point x="212" y="159" type="line"/>
      <point x="280" y="81"/>
      <point x="376" y="45"/>
      <point x="489" y="45" type="curve" smooth="yes"/>
      <point x="652" y="45"/>
      <point x="772" y="122"/>
      <point x="832" y="236" type="curve"/>
      <point x="902" y="236" type="line"/>
      <point x="842" y="98"/>
      <point x="693" y="-10"/>
      <point x="489" y="-10" type="curve" smooth="yes"/>
      <point x="246" y="-10"/>
      <point x="58" y="150"/>
      <point x="58" y="355" type="curve" smooth="yes"/>
      <point x="58" y="560"/>
      <point x="246" y="720"/>
      <point x="489" y="720" type="curve" smooth="yes"/>
      <point x="733" y="720"/>
      <point x="920" y="560"/>
      <point x="920" y="355" type="curve"/>
      <point x="162" y="355" type="line"/>
      <point x="162" y="410" type="line"/>
      <point x="766" y="410" type="line"/>
      <point x="766" y="554" type="line"/>
      <point x="699" y="629"/>
      <point x="602" y="665"/>
      <point x="489" y="665" type="curve" smooth="yes"/>
      <point x="376" y="665"/>
      <point x="280" y="629"/>
      <point x="212" y="554" type="curve"/>
    </contour>
  </outline>
</glyph>
<glyph name="arrowleft" format="2">
  <advance width="861"/>
  <unicode hex="2190"/>
  <outline>
    <contour>
      <point x="481" y="560" type="line"/>
      <point x="64" y="360" type="line"/>
      <point x="64" y="346" type="line"/>
      <point x="481" y="146" type="line"/>
      <point x="493" y="159" type="line"/>
      <point x="331" y="324" type="line"/>
      <point x="797" y="324" type="line"/>
      <point x="797" y="382" type="line"/>
      <point x="331" y="382" type="line"/>
      <point x="493" y="547" type="line"/>
    </contour>
  </outline>
</glyph>
<glyph name="emptyset" format="2">
  <advance width="814"/>
  <unicode hex="2205"/>
  <outline>
    <contour>
      <point x="82" y="-40" type="line"/>
      <point x="759" y="555" type="line"/>
      <point x="731" y="580" type="line"/>
      <point x="54" y="-15" type="line"/>
    </contour>
    <contour>
      <point x="407" y="-7" type="curve" smooth="yes"/>
      <point x="585" y="-7"/>
      <point x="731" y="112"/>
      <point x="731" y="270" type="curve" smooth="yes"/>
      <point x="731" y="428"/>
      <point x="585" y="547"/>
      <point x="407" y="547" type="curve" smooth="yes"/>
      <point x="229" y="547"/>
      <point x="82" y="428"/>
      <point x="82" y="270" type="curve" smooth="yes"/>
      <point x="82" y="112"/>
      <point x="229" y="-7"/>
    </contour>
    <contour>
      <point x="407" y="30" type="curve" smooth="yes"/>
      <point x="249" y="30"/>
      <point x="126" y="128"/>
      <point x="126" y="270" type="curve" smooth="yes"/>
      <point x="126" y="411"/>
      <point x="253" y="511"/>
      <point x="407" y="511" type="curve" smooth="yes"/>
      <point x="566" y="511"/>
      <point x="687" y="413"/>
      <point x="687" y="270" type="curve" smooth="yes"/>
      <point x="687" y="130"/>
      <point x="561" y="30"/>
    </contour>
  </outline>
</glyph>
<glyph name="product" format="2">
  <advance width="809"/>
  <unicode hex="220F"/>
  <outline>
    <contour>
      <point x="52" y="710" type="line"/>
      <point x="52" y="679" type="line"/>
      <point x="65" y="679" type="line" smooth="yes"/>
      <point x="122" y="679"/>
      <point x="164" y="672"/>
      <point x="164" y="643" type="curve" smooth="yes"/>
      <point x="164" y="-156" type="line" smooth="yes"/>
      <point x="164" y="-185"/>
      <point x="122" y="-192"/>
      <point x="65" y="-192" type="curve" smooth="yes"/>
      <point x="52" y="-192" type="line"/>
      <point x="52" y="-223" type="line"/>
      <point x="317" y="-223" type="line"/>
      <point x="317" y="-192" type="line"/>
      <point x="306" y="-192" type="line" smooth="yes"/>
      <point x="262" y="-192"/>
      <point x="205" y="-189"/>
      <point x="205" y="-182" type="curve" smooth="yes"/>
      <point x="205" y="669" type="line" smooth="yes"/>
      <point x="205" y="676"/>
      <point x="262" y="679"/>
      <point x="306" y="679" type="curve" smooth="yes"/>
      <point x="502" y="679" type="line" smooth="yes"/>
      <point x="547" y="679"/>
      <point x="604" y="676"/>
      <point x="604" y="669" type="curve" smooth="yes"/>
      <point x="604" y="-182" type="line" smooth="yes"/>
      <point x="604" y="-189"/>
      <point x="547" y="-192"/>
      <point x="502" y="-192" type="curve" smooth="yes"/>
      <point x="492" y="-192" type="line"/>
      <point x="492" y="-223" type="line"/>
      <point x="756" y="-223" type="line"/>
      <point x="756" y="-192" type="line"/>
      <point x="743" y="-192" type="line" smooth="yes"/>
      <point x="686" y="-192"/>
      <point x="644" y="-185"/>
      <point x="644" y="-156" type="curve" smooth="yes"/>
      <point x="644" y="643" type="line" smooth="yes"/>
      <point x="644" y="672"/>
      <point x="686" y="679"/>
      <point x="743" y="679" type="curve" smooth="yes"/>
      <point x="756" y="679" type="line"/>
      <point x="756" y="710" type="line"/>
    </contour>
  </outline>
</glyph>
<glyph name="radical" format="2">
  <advance width="679"/>
  <unicode hex="221A"/>
  <outline>
    <contour>
      <point x="62" y="327" type="line"/>
      <point x="197" y="327" type="line"/>
      <point x="163" y="347" type="line"/>
      <point x="330" y="0" type="line"/>
      <point x="358" y="0" type="line"/>
      <point x="363" y="27" type="line"/>
      <point x="205" y="358" type="line"/>
      <point x="62" y="358" type="line"/>
    </contour>
    <contour>
      <point x="606" y="710" type="line"/>
      <point x="333" y="0" type="line"/>
      <point x="368" y="0" type="line"/>
      <point x="643" y="710" type="line"/>
    </contour>
  </outline>
</glyph>
<glyph name="infinity" format="2">
  <advance width="904"/>
  <unicode hex="221E"/>
  <outline>
    <contour>
      <point x="252" y="154" type="curve" smooth="yes"/>
      <point x="139" y="154"/>
      <point x="58" y="236"/>
      <point x="58" y="353" type="curve" smooth="yes"/>
      <point x="58" y="471"/>
      <point x="141" y="556"/>
      <point x="250" y="556" type="curve" smooth="yes"/>
      <point x="367" y="556"/>
      <point x="417" y="463"/>
      <point x="462" y="380" type="curve" smooth="yes"/>
      <point x="525" y="264"/>
      <point x="570" y="190"/>
      <point x="669" y="190" type="curve" smooth="yes"/>
      <point x="756" y="190"/>
      <point x="814" y="258"/>
      <point x="814" y="360" type="curve" smooth="yes"/>
      <point x="814" y="457"/>
      <point x="754" y="520"/>
      <point x="653" y="520" type="curve" smooth="yes"/>
      <point x="553" y="520"/>
      <point x="496" y="451"/>
      <point x="462" y="359" type="curve"/>
      <point x="442" y="360" type="line"/>
      <point x="467" y="470"/>
      <point x="544" y="556"/>
      <point x="653" y="556" type="curve" smooth="yes"/>
      <point x="766" y="556"/>
      <point x="846" y="474"/>
      <point x="846" y="357" type="curve" smooth="yes"/>
      <point x="846" y="239"/>
      <point x="764" y="154"/>
      <point x="659" y="154" type="curve" smooth="yes"/>
      <point x="542" y="154"/>
      <point x="485" y="238"/>
      <point x="442" y="332" type="curve" smooth="yes"/>
      <point x="392" y="445"/>
      <point x="335" y="520"/>
      <point x="241" y="520" type="curve" smooth="yes"/>
      <point x="149" y="520"/>
      <point x="90" y="453"/>
      <point x="90" y="350" type="curve" smooth="yes"/>
      <point x="90" y="253"/>
      <point x="152" y="190"/>
      <point x="252" y="190" type="curve" smooth="yes"/>
      <point x="354" y="190"/>
      <point x="408" y="259"/>
      <point x="441" y="351" type="curve"/>
      <point x="461" y="350" type="line"/>
      <point x="438" y="240"/>
      <point x="363" y="154"/>
    </contour>
  </outline>
</glyph>
<glyph name="integral" format="2">
  <advance width="617"/>
  <unicode hex="222B"/>
  <outline>
    <contour>
      <point x="304" y="-69" type="curve" smooth="yes"/>
      <point x="328" y="570" type="line" smooth="yes"/>
      <point x="331" y="672"/>
      <point x="387" y="706"/>
      <point x="470" y="706" type="curve" smooth="yes"/>
      <point x="521" y="706"/>
      <point x="557" y="687"/>
      <point x="573" y="670" type="curve"/>
      <point x="581" y="678"/>
      <point x="567" y="706"/>
      <point x="537" y="705" type="curve"/>
      <point x="537" y="620" type="line"/>
      <point x="589" y="620" type="line"/>
      <point x="589" y="710" type="line"/>
      <point x="574" y="720"/>
      <point x="529" y="737"/>
      <point x="470" y="737" type="curve" smooth="yes"/>
      <point x="362" y="737"/>
      <point x="292" y="685"/>
      <point x="287" y="570" type="curve" smooth="yes"/>
      <point x="262" y="-69" type="line" smooth="yes"/>
      <point x="259" y="-171"/>
      <point x="204" y="-205"/>
      <point x="121" y="-205" type="curve" smooth="yes"/>
      <point x="70" y="-205"/>
      <point x="34" y="-186"/>
      <point x="18" y="-169" type="curve"/>
      <point x="9" y="-177"/>
      <point x="23" y="-205"/>
      <point x="53" y="-204" type="curve"/>
      <point x="53" y="-119" type="line"/>
      <point x="2" y="-119" type="line"/>
      <point x="2" y="-209" type="line"/>
      <point x="16" y="-219"/>
      <point x="61" y="-236"/>
      <point x="121" y="-236" type="curve" smooth="yes"/>
      <point x="229" y="-236"/>
      <point x="299" y="-184"/>
    </contour>
  </outline>
</glyph>
<glyph name="notequal" format="2">
  <advance width="652"/>
  <unicode hex="2260"/>
  <outline>
    <contour>
      <point x="522" y="567" type="line"/>
      <point x="98" y="88" type="line"/>
      <point x="133" y="88" type="line"/>
      <point x="557" y="567" type="line"/>
    </contour>
    <component base="equal" xOffset="1"/>
  </outline>
</glyph>
<glyph name="uni27F7" format="2">
  <advance width="1514"/>
  <unicode hex="27F7"/>
  <outline>
    <contour>
      <point x="1182" y="324" type="line"/>
      <point x="1079" y="192" type="line"/>
      <point x="1091" y="179" type="line"/>
      <point x="1449" y="346" type="line"/>
      <point x="1449" y="360" type="line"/>
      <point x="1091" y="527" type="line"/>
      <point x="1079" y="514" type="line"/>
      <point x="1182" y="382" type="line"/>
      <point x="331" y="382" type="line"/>
      <point x="435" y="514" type="line"/>
      <point x="423" y="527" type="line"/>
      <point x="64" y="360" type="line"/>
      <point x="64" y="346" type="line"/>
      <point x="423" y="179" type="line"/>
      <point x="435" y="192" type="line"/>
      <point x="331" y="324" type="line"/>
    </contour>
  </outline>
</glyph>
<glyph name="zero.den" format="2">
  <advance width="382"/>
  <unicode hex="E402"/>
  <outline>
    <contour>
      <point x="191" y="347" type="curve" smooth="yes"/>
      <point x="103" y="347"/>
      <point x="41" y="277"/>
      <point x="41" y="170" type="curve" smooth="yes"/>
      <point x="41" y="64"/>
      <point x="103" y="-6"/>
      <point x="191" y="-6" type="curve" smooth="yes"/>
      <point x="279" y="-6"/>
      <point x="341" y="64"/>
      <point x="341" y="170" type="curve" smooth="yes"/>
      <point x="341" y="277"/>
      <point x="279" y="347"/>
    </contour>
    <contour>
      <point x="191" y="21" type="curve" smooth="yes"/>
      <point x="127" y="21"/>
      <point x="86" y="73"/>
      <point x="86" y="170" type="curve" smooth="yes"/>
      <point x="86" y="267"/>
      <point x="127" y="320"/>
      <point x="191" y="320" type="curve" smooth="yes"/>
      <point x="255" y="320"/>
      <point x="297" y="267"/>
      <point x="297" y="170" type="curve" smooth="yes"/>
      <point x="297" y="73"/>
      <point x="255" y="21"/>
    </contour>
  </outline>
</glyph>
<glyph name="three.den" format="2">
  <advance width="378"/>
  <unicode hex="E405"/>
  <outline>
    <contour>
      <point x="195" y="22" type="curve" smooth="yes"/>
      <point x="262" y="22"/>
      <point x="293" y="51"/>
      <point x="293" y="97" type="curve" smooth="yes"/>
      <point x="293" y="143"/>
      <point x="262" y="166"/>
      <point x="173" y="166" type="curve" smooth="yes"/>
      <point x="124" y="166" type="line"/>
      <point x="124" y="195" type="line"/>
      <point x="165" y="195" type="line" smooth="yes"/>
      <point x="238" y="195"/>
      <point x="278" y="211"/>
      <point x="278" y="261" type="curve" smooth="yes"/>
      <point x="278" y="295"/>
      <point x="250" y="318"/>
      <point x="192" y="318" type="curve" smooth="yes"/>
      <point x="140" y="318"/>
      <point x="103" y="294"/>
      <point x="84" y="267" type="curve"/>
      <point x="85" y="287"/>
      <point x="95" y="300"/>
      <point x="111" y="303" type="curve"/>
      <point x="111" y="248" type="line"/>
      <point x="63" y="248" type="line"/>
      <point x="63" y="296" type="line"/>
      <point x="84" y="321"/>
      <point x="131" y="346"/>
      <point x="191" y="346" type="curve" smooth="yes"/>
      <point x="265" y="346"/>
      <point x="323" y="316"/>
      <point x="323" y="264" type="curve" smooth="yes"/>
      <point x="323" y="201"/>
      <point x="251" y="178"/>
      <point x="175" y="178" type="curve"/>
      <point x="184" y="186" type="line"/>
      <point x="299" y="186"/>
      <point x="342" y="152"/>
      <point x="342" y="95" type="curve" smooth="yes"/>
      <point x="342" y="35"/>
      <point x="281" y="-6"/>
      <point x="194" y="-6" type="curve" smooth="yes"/>
      <point x="112" y="-6"/>
      <point x="61" y="35"/>
      <point x="37" y="86" type="curve"/>
      <point x="65" y="104" type="line"/>
      <point x="85" y="65"/>
      <point x="129" y="22"/>
    </contour>
  </outline>
</glyph>
<glyph name="five.den" format="2">
  <advance width="377"/>
  <unicode hex="E407"/>
  <outline>
    <contour>
      <point x="190" y="-6" type="curve" smooth="yes"/>
      <point x="107" y="-6"/>
      <point x="57" y="32"/>
      <point x="32" y="78" type="curve"/>
      <point x="63" y="97" type="line"/>
      <point x="82" y="62"/>
      <point x="123" y="24"/>
      <point x="190" y="24" type="curve" smooth="yes"/>
      <point x="247" y="24"/>
      <point x="291" y="55"/>
      <point x="291" y="116" type="curve" smooth="yes"/>
      <point x="291" y="166"/>
      <point x="258" y="195"/>
      <point x="200" y="195" type="curve" smooth="yes"/>
      <point x="153" y="195"/>
      <point x="125" y="175"/>
      <point x="101" y="146" type="curve"/>
      <point x="70" y="146" type="line"/>
      <point x="70" y="341" type="line"/>
      <point x="307" y="341" type="line"/>
      <point x="300" y="299" type="line"/>
      <point x="92" y="299" type="line"/>
      <point x="107" y="330" type="line"/>
      <point x="107" y="173" type="line"/>
      <point x="105" y="166"/>
      <point x="92" y="162"/>
      <point x="90" y="173" type="curve"/>
      <point x="114" y="204"/>
      <point x="154" y="225"/>
      <point x="206" y="225" type="curve" smooth="yes"/>
      <point x="291" y="225"/>
      <point x="340" y="176"/>
      <point x="340" y="116" type="curve" smooth="yes"/>
      <point x="340" y="44"/>
      <point x="278" y="-6"/>
    </contour>
  </outline>
</glyph>
<glyph name="seven.den" format="2">
  <advance width="377"/>
  <unicode hex="E409"/>
  <outline>
    <contour>
      <point x="165" y="312" type="line" smooth="yes"/>
      <point x="114" y="312"/>
      <point x="93" y="308"/>
      <point x="90" y="288" type="curve" smooth="yes"/>
      <point x="86" y="241" type="line"/>
      <point x="56" y="241" type="line"/>
      <point x="56" y="341" type="line"/>
      <point x="341" y="341" type="line"/>
      <point x="341" y="310" type="line"/>
      <point x="254" y="221"/>
      <point x="204" y="145"/>
      <point x="197" y="0" type="curve"/>
      <point x="147" y="0" type="line"/>
      <point x="160" y="143"/>
      <point x="252" y="273"/>
      <point x="325" y="325" type="curve"/>
      <point x="325" y="312" type="line"/>
    </contour>
  </outline>
</glyph>
<glyph name="f_f" format="2">
  <advance width="807"/>
  <unicode hex="FB00"/>
  <outline>
    <contour>
      <point x="40" y="508" type="line"/>
      <point x="40" y="480" type="line"/>
      <point x="518" y="480" type="line"/>
      <point x="518" y="508" type="line"/>
    </contour>
    <contour>
      <point x="420" y="508" type="line"/>
      <point x="420" y="480" type="line"/>
      <point x="772" y="480" type="line"/>
      <point x="772" y="508" type="line"/>
    </contour>
    <contour>
      <point x="203" y="38" type="curve"/>
      <point x="203" y="576" type="line" smooth="yes"/>
      <point x="203" y="675"/>
      <point x="246" y="709"/>
      <point x="321" y="709" type="curve" smooth="yes"/>
      <point x="359" y="709"/>
      <point x="389" y="700"/>
      <point x="414" y="692" type="curve"/>
      <point x="414" y="727" type="line"/>
      <point x="392" y="733"/>
      <point x="359" y="737"/>
      <point x="324" y="737" type="curve" smooth="yes"/>
      <point x="228" y="737"/>
      <point x="162" y="690"/>
      <point x="162" y="576" type="curve" smooth="yes"/>
      <point x="162" y="64" type="line" smooth="yes"/>
      <point x="162" y="35"/>
      <point x="123" y="28"/>
      <point x="59" y="28" type="curve" smooth="yes"/>
      <point x="46" y="28" type="line"/>
      <point x="46" y="0" type="line"/>
      <point x="331" y="0" type="line"/>
      <point x="331" y="28" type="line"/>
      <point x="315" y="28" type="line" smooth="yes"/>
      <point x="251" y="28"/>
      <point x="203" y="31"/>
    </contour>
    <contour>
      <point x="541" y="38" type="line"/>
      <point x="541" y="31"/>
      <point x="487" y="28"/>
      <point x="445" y="28" type="curve" smooth="yes"/>
      <point x="426" y="28" type="line"/>
      <point x="426" y="0" type="line"/>
      <point x="708" y="0" type="line"/>
      <point x="708" y="28" type="line"/>
      <point x="693" y="28" type="line" smooth="yes"/>
      <point x="630" y="28"/>
      <point x="582" y="31"/>
      <point x="582" y="38" type="curve" smooth="yes"/>
      <point x="582" y="595" type="line" smooth="yes"/>
      <point x="582" y="694"/>
      <point x="629" y="721"/>
      <point x="705" y="721" type="curve" smooth="yes"/>
      <point x="739" y="721"/>
      <point x="769" y="715"/>
      <point x="792" y="708" type="curve"/>
      <point x="792" y="742" type="line"/>
      <point x="774" y="748"/>
      <point x="743" y="752"/>
      <point x="708" y="752" type="curve" smooth="yes"/>
      <point x="610" y="752"/>
      <point x="541" y="709"/>
      <point x="541" y="595" type="curve"/>
    </contour>
  </outline>
</glyph>
<glyph name="AE.alt" format="2">
  <advance width="1083"/>
  <outline>
    <contour>
      <point x="273" y="298" type="line"/>
      <point x="252" y="267" type="line"/>
      <point x="575" y="267" type="line"/>
      <point x="575" y="298" type="line"/>
    </contour>
    <contour>
      <point x="453" y="0" type="line"/>
      <point x="1020" y="0" type="line"/>
      <point x="1020" y="189" type="line"/>
      <point x="992" y="189" type="line"/>
      <point x="981" y="74" type="line" smooth="yes"/>
      <point x="978" y="38"/>
      <point x="936" y="31"/>
      <point x="836" y="31" type="curve" smooth="yes"/>
      <point x="605" y="31" type="line"/>
      <point x="605" y="679" type="line"/>
      <point x="802" y="679" type="line" smooth="yes"/>
      <point x="902" y="679"/>
      <point x="943" y="672"/>
      <point x="947" y="636" type="curve" smooth="yes"/>
      <point x="958" y="546" type="line"/>
      <point x="985" y="546" type="line"/>
      <point x="985" y="710" type="line"/>
      <point x="388" y="710" type="line"/>
      <point x="388" y="679" type="line"/>
      <point x="403" y="679" type="line" smooth="yes"/>
      <point x="464" y="679"/>
      <point x="504" y="672"/>
      <point x="507" y="654" type="curve"/>
      <point x="73" y="74" type="line" smooth="yes"/>
      <point x="48" y="40"/>
      <point x="30" y="31"/>
      <point x="-8" y="31" type="curve" smooth="yes"/>
      <point x="-14" y="31" type="line"/>
      <point x="-14" y="0" type="line"/>
      <point x="214" y="0" type="line"/>
      <point x="214" y="31" type="line"/>
      <point x="196" y="31" type="line" smooth="yes"/>
      <point x="152" y="31"/>
      <point x="99" y="38"/>
      <point x="99" y="49" type="curve"/>
      <point x="564" y="676" type="line"/>
      <point x="564" y="676" type="line"/>
      <point x="564" y="41" type="line"/>
      <point x="564" y="34"/>
      <point x="508" y="31"/>
      <point x="463" y="31" type="curve" smooth="yes"/>
      <point x="453" y="31" type="line"/>
    </contour>
    <contour>
      <point x="577" y="379" type="line"/>
      <point x="577" y="349" type="line"/>
      <point x="840" y="349" type="line" smooth="yes"/>
      <point x="877" y="349"/>
      <point x="889" y="319"/>
      <point x="889" y="285" type="curve" smooth="yes"/>
      <point x="889" y="278" type="line"/>
      <point x="916" y="278" type="line"/>
      <point x="916" y="451" type="line"/>
      <point x="889" y="451" type="line"/>
      <point x="889" y="443" type="line" smooth="yes"/>
      <point x="889" y="408"/>
      <point x="877" y="379"/>
      <point x="840" y="379" type="curve" smooth="yes"/>
    </contour>
  </outline>
</glyph>
<glyph name="acute.uc" format="2">
  <advance width="583"/>
  <anchor x="249" y="727" name="_top"/>
  <outline>
    <contour>
      <point x="310" y="868" type="curve" smooth="yes"/>
      <point x="208" y="780" type="line"/>
      <point x="208" y="766" type="line"/>
      <point x="223" y="766" type="line"/>
      <point x="348" y="837" type="line" smooth="yes"/>
      <point x="381" y="856"/>
      <point x="397" y="867"/>
      <point x="397" y="884" type="curve" smooth="yes"/>
      <point x="397" y="897"/>
      <point x="388" y="906"/>
      <point x="371" y="906" type="curve" smooth="yes"/>
      <point x="349" y="906"/>
      <point x="338" y="892"/>
    </contour>
  </outline>
</glyph>
<glyph name="braceleft.uc" format="2">
  <advance width="366"/>
  <outline>
    <contour>
      <point x="259" y="295" type="curve"/>
      <point x="259" y="313"/>
      <point x="251" y="320"/>
      <point x="129" y="347" type="curve"/>
      <point x="129" y="353" type="line"/>
      <point x="251" y="380"/>
      <point x="259" y="387"/>
      <point x="259" y="405" type="curve" smooth="yes"/>
      <point x="259" y="435"/>
      <point x="123" y="552"/>
      <point x="123" y="630" type="curve" smooth="yes"/>
      <point x="123" y="695"/>
      <point x="206" y="732"/>
      <point x="343" y="734" type="curve"/>
      <point x="327" y="760" type="line"/>
      <point x="205" y="756"/>
      <point x="83" y="724"/>
      <point x="83" y="630" type="curve" smooth="yes"/>
      <point x="83" y="563"/>
      <point x="165" y="484"/>
      <point x="230" y="403" type="curve"/>
      <point x="239" y="409" type="line"/>
      <point x="58" y="359" type="line"/>
      <point x="58" y="341" type="line"/>
      <point x="239" y="291" type="line"/>
      <point x="230" y="297" type="line"/>
      <point x="165" y="216"/>
      <point x="83" y="137"/>
      <point x="83" y="70" type="curve" smooth="yes"/>
      <point x="83" y="-24"/>
      <point x="205" y="-56"/>
      <point x="327" y="-60" type="curve"/>
      <point x="343" y="-34" type="line"/>
      <point x="205" y="-32"/>
      <point x="123" y="5"/>
      <point x="123" y="70" type="curve" smooth="yes"/>
      <point x="123" y="148"/>
      <point x="259" y="265"/>
    </contour>
  </outline>
</glyph>
<glyph name="breve.uc" format="2">
  <advance width="583"/>
  <anchor x="292" y="694" name="_top"/>
  <outline>
    <contour>
      <point x="295" y="759" type="curve" smooth="yes"/>
      <point x="204" y="759"/>
      <point x="150" y="808"/>
      <point x="144" y="891" type="curve"/>
      <point x="175" y="891" type="line"/>
      <point x="185" y="828"/>
      <point x="221" y="800"/>
      <point x="295" y="800" type="curve" smooth="yes"/>
      <point x="368" y="800"/>
      <point x="407" y="828"/>
      <point x="417" y="891" type="curve"/>
      <point x="446" y="891" type="line"/>
      <point x="441" y="808"/>
      <point x="387" y="759"/>
    </contour>
  </outline>
</glyph>
<glyph name="breve_hook" format="2">
  <advance width="594"/>
  <anchor x="292" y="525" name="_top"/>
  <outline>
    <contour>
      <point x="183" y="833" type="line"/>
      <point x="191" y="870"/>
      <point x="226" y="907"/>
      <point x="305" y="907" type="curve" smooth="yes"/>
      <point x="377" y="907"/>
      <point x="412" y="882"/>
      <point x="412" y="841" type="curve" smooth="yes"/>
      <point x="412" y="794"/>
      <point x="359" y="769"/>
      <point x="287" y="766" type="curve"/>
      <point x="314" y="792" type="line"/>
      <point x="314" y="734" type="line"/>
      <point x="274" y="734" type="line"/>
      <point x="274" y="793" type="line"/>
      <point x="337" y="796"/>
      <point x="369" y="808"/>
      <point x="369" y="840" type="curve" smooth="yes"/>
      <point x="369" y="862"/>
      <point x="348" y="878"/>
      <point x="305" y="878" type="curve" smooth="yes"/>
      <point x="251" y="878"/>
      <point x="235" y="857"/>
      <point x="227" y="833" type="curve"/>
    </contour>
    <contour>
      <point x="295" y="594" type="curve" smooth="yes"/>
      <point x="216" y="594"/>
      <point x="162" y="643"/>
      <point x="156" y="736" type="curve"/>
      <point x="185" y="736" type="line"/>
      <point x="196" y="662"/>
      <point x="233" y="637"/>
      <point x="296" y="637" type="curve" smooth="yes"/>
      <point x="356" y="637"/>
      <point x="397" y="662"/>
      <point x="407" y="736" type="curve"/>
      <point x="434" y="736" type="line"/>
      <point x="428" y="643"/>
      <point x="375" y="594"/>
    </contour>
  </outline>
</glyph>
<glyph name="caron.alt" format="2">
  <advance width="583"/>
  <anchor x="110" y="574" name="_right"/>
  <outline>
    <contour>
      <point x="141" y="526" type="line"/>
      <point x="117" y="526" type="line"/>
      <point x="117" y="536" type="line"/>
      <point x="137" y="710" type="line"/>
      <point x="191" y="710" type="line"/>
    </contour>
  </outline>
</glyph>
<glyph name="circumflex_acute.uc" format="2">
  <advance width="594"/>
  <anchor x="291" y="749" name="_top"/>
  <outline>
    <contour>
      <point x="487" y="925" type="curve" smooth="yes"/>
      <point x="435" y="849" type="line"/>
      <point x="435" y="835" type="line"/>
      <point x="450" y="835" type="line"/>
      <point x="530" y="904" type="line" smooth="yes"/>
      <point x="552" y="925"/>
      <point x="565" y="937"/>
      <point x="565" y="952" type="curve" smooth="yes"/>
      <point x="565" y="966"/>
      <point x="554" y="975"/>
      <point x="540" y="975" type="curve" smooth="yes"/>
      <point x="519" y="975"/>
      <point x="511" y="960"/>
    </contour>
    <component base="circumflex.uc"/>
  </outline>
</glyph>
<glyph name="colonmonetary.proportional" format="2">
  <advance width="786"/>
  <outline>
    <contour>
      <point x="445" y="700" type="curve" smooth="yes"/>
      <point x="225" y="700"/>
      <point x="61" y="557"/>
      <point x="61" y="355" type="curve" smooth="yes"/>
      <point x="61" y="150"/>
      <point x="214" y="10"/>
      <point x="429" y="10" type="curve" smooth="yes"/>
      <point x="602" y="10"/>
      <point x="699" y="98"/>
      <point x="742" y="220" type="curve"/>
      <point x="708" y="232" type="line"/>
      <point x="673" y="131"/>
      <point x="592" y="41"/>
      <point x="429" y="41" type="curve" smooth="yes"/>
      <point x="232" y="41"/>
      <point x="104" y="165"/>
      <point x="104" y="355" type="curve" smooth="yes"/>
      <point x="104" y="544"/>
      <point x="248" y="669"/>
      <point x="445" y="669" type="curve" smooth="yes"/>
      <point x="596" y="669"/>
      <point x="673" y="626"/>
      <point x="715" y="594" type="curve"/>
      <point x="705" y="617"/>
      <point x="707" y="629"/>
      <point x="680" y="629" type="curve"/>
      <point x="680" y="530" type="line"/>
      <point x="731" y="530" type="line"/>
      <point x="731" y="627" type="line"/>
      <point x="699" y="650"/>
      <point x="610" y="700"/>
    </contour>
    <contour>
      <point x="353" y="790" type="line"/>
      <point x="336" y="679" type="line"/>
      <point x="333" y="666" type="line"/>
      <point x="238" y="80" type="line"/>
      <point x="236" y="67" type="line"/>
      <point x="206" y="-120" type="line"/>
      <point x="245" y="-120" type="line"/>
      <point x="273" y="53" type="line"/>
      <point x="274" y="60" type="line"/>
      <point x="374" y="676" type="line"/>
      <point x="376" y="687" type="line"/>
      <point x="392" y="790" type="line"/>
    </contour>
    <contour>
      <point x="555" y="790" type="line"/>
      <point x="537" y="683" type="line"/>
      <point x="536" y="673" type="line"/>
      <point x="432" y="29" type="line"/>
      <point x="431" y="22" type="line"/>
      <point x="408" y="-120" type="line"/>
      <point x="447" y="-120" type="line"/>
      <point x="470" y="21" type="line"/>
      <point x="471" y="30" type="line"/>
      <point x="574" y="668" type="line"/>
      <point x="576" y="674" type="line"/>
      <point x="594" y="790" type="line"/>
    </contour>
  </outline>
</glyph>
<glyph name="commaaccent" format="2">
  <advance width="583"/>
  <anchor x="283" y="33" name="_bottom"/>
  <outline>
    <contour>
      <point x="262" y="-267" type="line"/>
      <point x="319" y="-227"/>
      <point x="347" y="-181"/>
      <point x="347" y="-132" type="curve" smooth="yes"/>
      <point x="347" y="-99"/>
      <point x="329" y="-84"/>
      <point x="305" y="-84" type="curve" smooth="yes"/>
      <point x="284" y="-84"/>
      <point x="268" y="-98"/>
      <point x="268" y="-118" type="curve" smooth="yes"/>
      <point x="268" y="-138"/>
      <point x="281" y="-153"/>
      <point x="304" y="-153" type="curve" smooth="yes"/>
      <point x="321" y="-153"/>
      <point x="332" y="-147"/>
      <point x="335" y="-132" type="curve"/>
      <point x="324" y="-139" type="line"/>
      <point x="323" y="-173"/>
      <point x="294" y="-216"/>
      <point x="236" y="-248" type="curve"/>
    </contour>
  </outline>
</glyph>
<glyph name="eight.midprop" format="2">
  <advance width="660"/>
  <outline>
    <contour>
      <point x="330" y="21" type="curve" smooth="yes"/>
      <point x="204" y="21"/>
      <point x="103" y="89"/>
      <point x="103" y="197" type="curve" smooth="yes"/>
      <point x="103" y="300"/>
      <point x="204" y="361"/>
      <point x="330" y="361" type="curve" smooth="yes"/>
      <point x="456" y="361"/>
      <point x="557" y="300"/>
      <point x="557" y="197" type="curve" smooth="yes"/>
      <point x="557" y="89"/>
      <point x="456" y="21"/>
    </contour>
    <contour>
      <point x="330" y="391" type="curve" smooth="yes"/>
      <point x="236" y="391"/>
      <point x="151" y="447"/>
      <point x="151" y="538" type="curve" smooth="yes"/>
      <point x="151" y="630"/>
      <point x="230" y="689"/>
      <point x="330" y="689" type="curve" smooth="yes"/>
      <point x="430" y="689"/>
      <point x="508" y="630"/>
      <point x="508" y="538" type="curve" smooth="yes"/>
      <point x="508" y="447"/>
      <point x="424" y="391"/>
    </contour>
    <contour>
      <point x="330" y="720" type="curve" smooth="yes"/>
      <point x="216" y="720"/>
      <point x="110" y="648"/>
      <point x="110" y="543" type="curve" smooth="yes"/>
      <point x="110" y="454"/>
      <point x="182" y="392"/>
      <point x="270" y="374" type="curve"/>
      <point x="248" y="384" type="line"/>
      <point x="248" y="371" type="line"/>
      <point x="270" y="382" type="line"/>
      <point x="155" y="364"/>
      <point x="59" y="294"/>
      <point x="59" y="192" type="curve" smooth="yes"/>
      <point x="59" y="72"/>
      <point x="185" y="-10"/>
      <point x="330" y="-10" type="curve" smooth="yes"/>
      <point x="475" y="-10"/>
      <point x="600" y="72"/>
      <point x="600" y="192" type="curve" smooth="yes"/>
      <point x="600" y="294"/>
      <point x="505" y="364"/>
      <point x="390" y="382" type="curve"/>
      <point x="412" y="371" type="line"/>
      <point x="412" y="384" type="line"/>
      <point x="390" y="374" type="line"/>
      <point x="478" y="392"/>
      <point x="550" y="454"/>
      <point x="550" y="543" type="curve" smooth="yes"/>
      <point x="550" y="648"/>
      <point x="444" y="720"/>
    </contour>
  </outline>
</glyph>
<glyph name="f.alt" format="2">
  <advance width="428"/>
  <outline>
    <contour>
      <point x="40" y="508" type="line"/>
      <point x="40" y="480" type="line"/>
      <point x="392" y="480" type="line"/>
      <point x="392" y="508" type="line"/>
    </contour>
    <contour>
      <point x="338" y="721" type="curve"/>
      <point x="387" y="721"/>
      <point x="422" y="708"/>
      <point x="453" y="677" type="curve"/>
      <point x="459" y="703"/>
      <point x="451" y="704"/>
      <point x="429" y="726" type="curve"/>
      <point x="429" y="638" type="line"/>
      <point x="481" y="638" type="line"/>
      <point x="481" y="710" type="line"/>
      <point x="452" y="732"/>
      <point x="409" y="752"/>
      <point x="337" y="752" type="curve"/>
      <point x="239" y="752"/>
      <point x="162" y="709"/>
      <point x="162" y="601" type="curve" smooth="yes"/>
      <point x="162" y="64" type="line" smooth="yes"/>
      <point x="162" y="35"/>
      <point x="123" y="28"/>
      <point x="59" y="28" type="curve" smooth="yes"/>
      <point x="46" y="28" type="line"/>
      <point x="46" y="0" type="line"/>
      <point x="328" y="0" type="line"/>
      <point x="328" y="28" type="line"/>
      <point x="313" y="28" type="line" smooth="yes"/>
      <point x="250" y="28"/>
      <point x="203" y="31"/>
      <point x="203" y="38" type="curve" smooth="yes"/>
      <point x="203" y="601" type="line" smooth="yes"/>
      <point x="203" y="695"/>
      <point x="263" y="721"/>
    </contour>
  </outline>
</glyph>
<glyph name="f_f.alt" format="2">
  <advance width="808"/>
  <outline>
    <contour>
      <point x="40" y="508" type="line"/>
      <point x="40" y="480" type="line"/>
      <point x="513" y="480" type="line"/>
      <point x="513" y="508" type="line"/>
    </contour>
    <contour>
      <point x="420" y="508" type="line"/>
      <point x="420" y="480" type="line"/>
      <point x="772" y="480" type="line"/>
      <point x="772" y="508" type="line"/>
    </contour>
    <contour>
      <point x="541" y="38" type="line" smooth="yes"/>
      <point x="541" y="31"/>
      <point x="487" y="28"/>
      <point x="445" y="28" type="curve" smooth="yes"/>
      <point x="426" y="28" type="line"/>
      <point x="426" y="0" type="line"/>
      <point x="708" y="0" type="line"/>
      <point x="708" y="28" type="line"/>
      <point x="693" y="28" type="line" smooth="yes"/>
      <point x="630" y="28"/>
      <point x="582" y="31"/>
      <point x="582" y="38" type="curve" smooth="yes"/>
      <point x="582" y="601" type="line" smooth="yes"/>
      <point x="582" y="695"/>
      <point x="642" y="721"/>
      <point x="716" y="721" type="curve" smooth="yes"/>
      <point x="767" y="721"/>
      <point x="802" y="708"/>
      <point x="833" y="677" type="curve"/>
      <point x="839" y="703"/>
      <point x="830" y="704"/>
      <point x="808" y="726" type="curve"/>
      <point x="808" y="638" type="line"/>
      <point x="860" y="638" type="line"/>
      <point x="860" y="710" type="line"/>
      <point x="833" y="732"/>
      <point x="789" y="752"/>
      <point x="716" y="752" type="curve" smooth="yes"/>
      <point x="619" y="752"/>
      <point x="541" y="709"/>
      <point x="541" y="601" type="curve" smooth="yes"/>
    </contour>
    <contour>
      <point x="46" y="0" type="line"/>
      <point x="331" y="0" type="line"/>
      <point x="331" y="28" type="line"/>
      <point x="315" y="28" type="line" smooth="yes"/>
      <point x="251" y="28"/>
      <point x="203" y="31"/>
      <point x="203" y="38" type="curve" smooth="yes"/>
      <point x="203" y="559" type="line" smooth="yes"/>
      <point x="203" y="670"/>
      <point x="292" y="701"/>
      <point x="393" y="701" type="curve" smooth="yes"/>
      <point x="466" y="701"/>
      <point x="531" y="683"/>
      <point x="571" y="636" type="curve"/>
      <point x="577" y="678"/>
      <point x="564" y="680"/>
      <point x="541" y="691" type="curve"/>
      <point x="541" y="568" type="line"/>
      <point x="580" y="618" type="line"/>
      <point x="580" y="681" type="line"/>
      <point x="548" y="707"/>
      <point x="486" y="732"/>
      <point x="393" y="732" type="curve" smooth="yes"/>
      <point x="262" y="732"/>
      <point x="162" y="686"/>
      <point x="162" y="559" type="curve" smooth="yes"/>
      <point x="162" y="64" type="line"/>
      <point x="162" y="35"/>
      <point x="123" y="28"/>
      <point x="59" y="28" type="curve" smooth="yes"/>
      <point x="46" y="28" type="line"/>
    </contour>
  </outline>
</glyph>
<glyph name="f_f_b.alt" format="2">
  <advance width="1499"/>
  <outline>
    <contour>
      <point x="46" y="0" type="line"/>
      <point x="331" y="0" type="line"/>
      <point x="331" y="28" type="line"/>
      <point x="315" y="28" type="line" smooth="yes"/>
      <point x="251" y="28"/>
      <point x="203" y="31"/>
      <point x="203" y="38" type="curve" smooth="yes"/>
      <point x="203" y="559" type="line" smooth="yes"/>
      <point x="203" y="670"/>
      <point x="292" y="701"/>
      <point x="393" y="701" type="curve" smooth="yes"/>
      <point x="466" y="701"/>
      <point x="531" y="683"/>
      <point x="571" y="636" type="curve"/>
      <point x="577" y="678"/>
      <point x="564" y="680"/>
      <point x="541" y="691" type="curve"/>
      <point x="541" y="568" type="line"/>
      <point x="580" y="618" type="line"/>
      <point x="580" y="681" type="line"/>
      <point x="548" y="707"/>
      <point x="486" y="732"/>
      <point x="393" y="732" type="curve" smooth="yes"/>
      <point x="262" y="732"/>
      <point x="162" y="686"/>
      <point x="162" y="559" type="curve" smooth="yes"/>
      <point x="162" y="64" type="line"/>
      <point x="162" y="35"/>
      <point x="123" y="28"/>
      <point x="59" y="28" type="curve" smooth="yes"/>
      <point x="46" y="28" type="line"/>
    </contour>
    <contour>
      <point x="709" y="0" type="line"/>
      <point x="709" y="28" type="line"/>
      <point x="694" y="28" type="line" smooth="yes"/>
      <point x="630" y="28"/>
      <point x="582" y="31"/>
      <point x="582" y="38" type="curve" smooth="yes"/>
      <point x="582" y="595" type="line" smooth="yes"/>
      <point x="582" y="694"/>
      <point x="638" y="721"/>
      <point x="753" y="721" type="curve" smooth="yes"/>
      <point x="821" y="721"/>
      <point x="890" y="706"/>
      <point x="945" y="671" type="curve"/>
      <point x="953" y="711" type="line"/>
      <point x="910" y="727"/>
      <point x="847" y="752"/>
      <point x="753" y="752" type="curve" smooth="yes"/>
      <point x="619" y="752"/>
      <point x="541" y="709"/>
      <point x="541" y="595" type="curve"/>
      <point x="541" y="38" type="line" smooth="yes"/>
      <point x="541" y="31"/>
      <point x="488" y="28"/>
      <point x="445" y="28" type="curve" smooth="yes"/>
      <point x="426" y="28" type="line"/>
      <point x="426" y="0" type="line"/>
    </contour>
    <contour>
      <point x="1403" y="257" type="curve" smooth="yes"/>
      <point x="1403" y="116"/>
      <point x="1328" y="21"/>
      <point x="1185" y="21" type="curve" smooth="yes"/>
      <point x="1083" y="21"/>
      <point x="1006" y="85"/>
      <point x="956" y="183" type="curve"/>
      <point x="935" y="162" type="line"/>
      <point x="996" y="52"/>
      <point x="1069" y="-10"/>
      <point x="1188" y="-10" type="curve" smooth="yes"/>
      <point x="1345" y="-10"/>
      <point x="1448" y="99"/>
      <point x="1448" y="257" type="curve" smooth="yes"/>
      <point x="1448" y="414"/>
      <point x="1349" y="518"/>
      <point x="1198" y="518" type="curve" smooth="yes"/>
      <point x="1070" y="518"/>
      <point x="996" y="449"/>
      <point x="924" y="338" type="curve"/>
      <point x="940" y="311" type="line"/>
      <point x="1006" y="416"/>
      <point x="1082" y="487"/>
      <point x="1191" y="487" type="curve" smooth="yes"/>
      <point x="1330" y="487"/>
      <point x="1403" y="398"/>
    </contour>
    <contour>
      <point x="962" y="735" type="line"/>
      <point x="860" y="735" type="line"/>
      <point x="921" y="703" type="line"/>
      <point x="921" y="-3" type="line"/>
      <point x="946" y="-3" type="line"/>
      <point x="963" y="125" type="line"/>
      <point x="962" y="140" type="line"/>
    </contour>
    <contour>
      <point x="40" y="508" type="line"/>
      <point x="40" y="480" type="line"/>
      <point x="518" y="480" type="line"/>
      <point x="518" y="508" type="line"/>
    </contour>
    <contour>
      <point x="420" y="508" type="line"/>
      <point x="420" y="480" type="line"/>
      <point x="772" y="480" type="line"/>
      <point x="772" y="508" type="line"/>
    </contour>
  </outline>
</glyph>
<glyph name="f_f_j" format="2">
  <advance width="1075"/>
  <outline>
    <contour>
      <point x="40" y="508" type="line"/>
      <point x="40" y="480" type="line"/>
      <point x="520" y="480" type="line"/>
      <point x="520" y="508" type="line"/>
    </contour>
    <contour>
      <point x="923" y="656" type="curve" smooth="yes"/>
      <point x="948" y="656"/>
      <point x="967" y="670"/>
      <point x="967" y="696" type="curve" smooth="yes"/>
      <point x="967" y="723"/>
      <point x="948" y="737"/>
      <point x="923" y="737" type="curve" smooth="yes"/>
      <point x="897" y="737"/>
      <point x="879" y="723"/>
      <point x="879" y="696" type="curve" smooth="yes"/>
      <point x="879" y="670"/>
      <point x="897" y="656"/>
    </contour>
    <contour>
      <point x="420" y="508" type="line"/>
      <point x="420" y="480" type="line"/>
      <point x="891" y="480" type="line"/>
      <point x="891" y="508" type="line"/>
    </contour>
    <contour>
      <point x="921" y="-74" type="line" smooth="yes"/>
      <point x="921" y="-171"/>
      <point x="875" y="-203"/>
      <point x="800" y="-203" type="curve" smooth="yes"/>
      <point x="756" y="-203"/>
      <point x="723" y="-194"/>
      <point x="697" y="-185" type="curve"/>
      <point x="697" y="-220" type="line"/>
      <point x="719" y="-229"/>
      <point x="750" y="-236"/>
      <point x="800" y="-236" type="curve" smooth="yes"/>
      <point x="878" y="-236"/>
      <point x="962" y="-204"/>
      <point x="962" y="-74" type="curve" smooth="yes"/>
      <point x="962" y="508" type="line"/>
      <point x="824" y="508" type="line"/>
      <point x="824" y="480" type="line"/>
      <point x="835" y="480" type="line" smooth="yes"/>
      <point x="894" y="480"/>
      <point x="921" y="466"/>
      <point x="921" y="437" type="curve" smooth="yes"/>
    </contour>
    <contour>
      <point x="203" y="38" type="curve"/>
      <point x="203" y="576" type="line" smooth="yes"/>
      <point x="203" y="675"/>
      <point x="246" y="709"/>
      <point x="321" y="709" type="curve" smooth="yes"/>
      <point x="359" y="709"/>
      <point x="389" y="700"/>
      <point x="414" y="692" type="curve"/>
      <point x="414" y="727" type="line"/>
      <point x="392" y="733"/>
      <point x="359" y="737"/>
      <point x="324" y="737" type="curve" smooth="yes"/>
      <point x="228" y="737"/>
      <point x="162" y="690"/>
      <point x="162" y="576" type="curve" smooth="yes"/>
      <point x="162" y="64" type="line" smooth="yes"/>
      <point x="162" y="35"/>
      <point x="123" y="28"/>
      <point x="59" y="28" type="curve" smooth="yes"/>
      <point x="46" y="28" type="line"/>
      <point x="46" y="0" type="line"/>
      <point x="331" y="0" type="line"/>
      <point x="331" y="28" type="line"/>
      <point x="315" y="28" type="line" smooth="yes"/>
      <point x="251" y="28"/>
      <point x="203" y="31"/>
    </contour>
    <contour>
      <point x="541" y="38" type="line"/>
      <point x="541" y="31"/>
      <point x="487" y="28"/>
      <point x="445" y="28" type="curve" smooth="yes"/>
      <point x="426" y="28" type="line"/>
      <point x="426" y="0" type="line"/>
      <point x="709" y="0" type="line"/>
      <point x="709" y="28" type="line"/>
      <point x="694" y="28" type="line" smooth="yes"/>
      <point x="630" y="28"/>
      <point x="582" y="31"/>
      <point x="582" y="38" type="curve" smooth="yes"/>
      <point x="582" y="591" type="line" smooth="yes"/>
      <point x="582" y="690"/>
      <point x="626" y="724"/>
      <point x="698" y="724" type="curve" smooth="yes"/>
      <point x="734" y="724"/>
      <point x="764" y="715"/>
      <point x="787" y="707" type="curve"/>
      <point x="787" y="742" type="line"/>
      <point x="767" y="748"/>
      <point x="734" y="752"/>
      <point x="701" y="752" type="curve" smooth="yes"/>
      <point x="607" y="752"/>
      <point x="541" y="705"/>
      <point x="541" y="591" type="curve"/>
    </contour>
  </outline>
</glyph>
<glyph name="f_f_k.alt" format="2">
  <advance width="1456"/>
  <outline>
    <contour>
      <point x="1423" y="0" type="line"/>
      <point x="1423" y="31" type="line"/>
      <point x="1421" y="31" type="line"/>
      <point x="1382" y="31"/>
      <point x="1348" y="37"/>
      <point x="1312" y="69" type="curve" smooth="yes"/>
      <point x="1050" y="292" type="line"/>
      <point x="1052" y="273" type="line"/>
      <point x="1261" y="429" type="line" smooth="yes"/>
      <point x="1304" y="462"/>
      <point x="1340" y="478"/>
      <point x="1391" y="478" type="curve"/>
      <point x="1393" y="478" type="line"/>
      <point x="1393" y="508" type="line"/>
      <point x="1144" y="508" type="line"/>
      <point x="1144" y="478" type="line"/>
      <point x="1149" y="478" type="line"/>
      <point x="1188" y="478"/>
      <point x="1247" y="475"/>
      <point x="1247" y="460" type="curve"/>
      <point x="1010" y="281" type="line"/>
      <point x="1010" y="276" type="line"/>
      <point x="1288" y="41" type="line"/>
      <point x="1288" y="34"/>
      <point x="1237" y="31"/>
      <point x="1201" y="31" type="curve"/>
      <point x="1193" y="31" type="line"/>
      <point x="1193" y="0" type="line"/>
    </contour>
    <contour>
      <point x="40" y="508" type="line"/>
      <point x="40" y="480" type="line"/>
      <point x="518" y="480" type="line"/>
      <point x="518" y="508" type="line"/>
    </contour>
    <contour>
      <point x="420" y="508" type="line"/>
      <point x="420" y="480" type="line"/>
      <point x="772" y="480" type="line"/>
      <point x="772" y="508" type="line"/>
    </contour>
    <contour>
      <point x="823" y="0" type="line"/>
      <point x="1049" y="0" type="line"/>
      <point x="1049" y="31" type="line"/>
      <point x="1046" y="31" type="line" smooth="yes"/>
      <point x="1014" y="31"/>
      <point x="962" y="34"/>
      <point x="962" y="41" type="curve"/>
      <point x="962" y="735" type="line"/>
      <point x="860" y="735" type="line"/>
      <point x="921" y="703" type="line"/>
      <point x="921" y="38" type="line"/>
      <point x="921" y="31"/>
      <point x="869" y="28"/>
      <point x="836" y="28" type="curve" smooth="yes"/>
      <point x="823" y="28" type="line"/>
    </contour>
    <contour>
      <point x="582" y="38" type="curve"/>
      <point x="582" y="595" type="line" smooth="yes"/>
      <point x="582" y="694"/>
      <point x="638" y="721"/>
      <point x="753" y="721" type="curve" smooth="yes"/>
      <point x="821" y="721"/>
      <point x="890" y="706"/>
      <point x="945" y="671" type="curve"/>
      <point x="953" y="711" type="line"/>
      <point x="910" y="727"/>
      <point x="847" y="752"/>
      <point x="753" y="752" type="curve" smooth="yes"/>
      <point x="619" y="752"/>
      <point x="541" y="709"/>
      <point x="541" y="595" type="curve"/>
      <point x="541" y="38" type="line"/>
      <point x="541" y="31"/>
      <point x="493" y="28"/>
      <point x="429" y="28" type="curve" smooth="yes"/>
      <point x="426" y="28" type="line"/>
      <point x="426" y="0" type="line"/>
      <point x="709" y="0" type="line"/>
      <point x="709" y="28" type="line"/>
      <point x="694" y="28" type="line" smooth="yes"/>
      <point x="630" y="28"/>
      <point x="582" y="31"/>
    </contour>
    <contour>
      <point x="46" y="0" type="line"/>
      <point x="331" y="0" type="line"/>
      <point x="331" y="28" type="line"/>
      <point x="315" y="28" type="line" smooth="yes"/>
      <point x="251" y="28"/>
      <point x="203" y="31"/>
      <point x="203" y="38" type="curve" smooth="yes"/>
      <point x="203" y="559" type="line" smooth="yes"/>
      <point x="203" y="670"/>
      <point x="292" y="701"/>
      <point x="393" y="701" type="curve" smooth="yes"/>
      <point x="466" y="701"/>
      <point x="531" y="683"/>
      <point x="571" y="636" type="curve"/>
      <point x="577" y="678"/>
      <point x="564" y="680"/>
      <point x="541" y="691" type="curve"/>
      <point x="541" y="568" type="line"/>
      <point x="580" y="618" type="line"/>
      <point x="580" y="681" type="line"/>
      <point x="548" y="707"/>
      <point x="486" y="732"/>
      <point x="393" y="732" type="curve" smooth="yes"/>
      <point x="262" y="732"/>
      <point x="162" y="686"/>
      <point x="162" y="559" type="curve" smooth="yes"/>
      <point x="162" y="64" type="line"/>
      <point x="162" y="35"/>
      <point x="123" y="28"/>
      <point x="59" y="28" type="curve" smooth="yes"/>
      <point x="46" y="28" type="line"/>
    </contour>
  </outline>
</glyph>
<glyph name="f_f_k" format="2">
  <advance width="1456"/>
  <outline>
    <contour>
      <point x="1423" y="0" type="line"/>
      <point x="1423" y="31" type="line"/>
      <point x="1421" y="31" type="line"/>
      <point x="1382" y="31"/>
      <point x="1348" y="37"/>
      <point x="1312" y="69" type="curve" smooth="yes"/>
      <point x="1050" y="292" type="line"/>
      <point x="1052" y="273" type="line"/>
      <point x="1261" y="429" type="line" smooth="yes"/>
      <point x="1304" y="462"/>
      <point x="1340" y="478"/>
      <point x="1391" y="478" type="curve"/>
      <point x="1393" y="478" type="line"/>
      <point x="1393" y="508" type="line"/>
      <point x="1144" y="508" type="line"/>
      <point x="1144" y="478" type="line"/>
      <point x="1149" y="478" type="line"/>
      <point x="1188" y="478"/>
      <point x="1247" y="475"/>
      <point x="1247" y="460" type="curve"/>
      <point x="1010" y="281" type="line"/>
      <point x="1010" y="276" type="line"/>
      <point x="1288" y="41" type="line"/>
      <point x="1288" y="34"/>
      <point x="1237" y="31"/>
      <point x="1201" y="31" type="curve"/>
      <point x="1193" y="31" type="line"/>
      <point x="1193" y="0" type="line"/>
    </contour>
    <contour>
      <point x="40" y="508" type="line"/>
      <point x="40" y="480" type="line"/>
      <point x="518" y="480" type="line"/>
      <point x="518" y="508" type="line"/>
    </contour>
    <contour>
      <point x="420" y="508" type="line"/>
      <point x="420" y="480" type="line"/>
      <point x="772" y="480" type="line"/>
      <point x="772" y="508" type="line"/>
    </contour>
    <contour>
      <point x="823" y="0" type="line"/>
      <point x="1049" y="0" type="line"/>
      <point x="1049" y="31" type="line"/>
      <point x="1046" y="31" type="line" smooth="yes"/>
      <point x="1014" y="31"/>
      <point x="962" y="34"/>
      <point x="962" y="41" type="curve"/>
      <point x="962" y="735" type="line"/>
      <point x="860" y="735" type="line"/>
      <point x="921" y="703" type="line"/>
      <point x="921" y="38" type="line"/>
      <point x="921" y="31"/>
      <point x="869" y="28"/>
      <point x="836" y="28" type="curve" smooth="yes"/>
      <point x="823" y="28" type="line"/>
    </contour>
    <contour>
      <point x="203" y="38" type="curve"/>
      <point x="203" y="576" type="line" smooth="yes"/>
      <point x="203" y="675"/>
      <point x="246" y="709"/>
      <point x="321" y="709" type="curve" smooth="yes"/>
      <point x="359" y="709"/>
      <point x="389" y="700"/>
      <point x="414" y="692" type="curve"/>
      <point x="414" y="727" type="line"/>
      <point x="392" y="733"/>
      <point x="359" y="737"/>
      <point x="324" y="737" type="curve" smooth="yes"/>
      <point x="228" y="737"/>
      <point x="162" y="690"/>
      <point x="162" y="576" type="curve" smooth="yes"/>
      <point x="162" y="64" type="line"/>
      <point x="162" y="35"/>
      <point x="123" y="28"/>
      <point x="59" y="28" type="curve" smooth="yes"/>
      <point x="46" y="28" type="line"/>
      <point x="46" y="0" type="line"/>
      <point x="331" y="0" type="line"/>
      <point x="331" y="28" type="line"/>
      <point x="315" y="28" type="line" smooth="yes"/>
      <point x="251" y="28"/>
      <point x="203" y="31"/>
    </contour>
    <contour>
      <point x="582" y="38" type="curve"/>
      <point x="582" y="595" type="line" smooth="yes"/>
      <point x="582" y="694"/>
      <point x="638" y="721"/>
      <point x="753" y="721" type="curve" smooth="yes"/>
      <point x="821" y="721"/>
      <point x="890" y="706"/>
      <point x="945" y="671" type="curve"/>
      <point x="953" y="711" type="line"/>
      <point x="910" y="727"/>
      <point x="847" y="752"/>
      <point x="753" y="752" type="curve" smooth="yes"/>
      <point x="619" y="752"/>
      <point x="541" y="709"/>
      <point x="541" y="595" type="curve"/>
      <point x="541" y="38" type="line"/>
      <point x="541" y="31"/>
      <point x="493" y="28"/>
      <point x="429" y="28" type="curve" smooth="yes"/>
      <point x="426" y="28" type="line"/>
      <point x="426" y="0" type="line"/>
      <point x="709" y="0" type="line"/>
      <point x="709" y="28" type="line"/>
      <point x="694" y="28" type="line" smooth="yes"/>
      <point x="630" y="28"/>
      <point x="582" y="31"/>
    </contour>
  </outline>
</glyph>
<glyph name="f_j.alt" format="2">
  <advance width="696"/>
  <outline>
    <contour>
      <point x="40" y="508" type="line"/>
      <point x="40" y="480" type="line"/>
      <point x="508" y="480" type="line"/>
      <point x="508" y="508" type="line"/>
    </contour>
    <contour>
      <point x="541" y="-74" type="line" smooth="yes"/>
      <point x="541" y="-171"/>
      <point x="495" y="-203"/>
      <point x="420" y="-203" type="curve" smooth="yes"/>
      <point x="376" y="-203"/>
      <point x="344" y="-194"/>
      <point x="317" y="-185" type="curve"/>
      <point x="317" y="-220" type="line"/>
      <point x="339" y="-229"/>
      <point x="370" y="-236"/>
      <point x="420" y="-236" type="curve" smooth="yes"/>
      <point x="499" y="-236"/>
      <point x="582" y="-204"/>
      <point x="582" y="-74" type="curve" smooth="yes"/>
      <point x="582" y="508" type="line"/>
      <point x="445" y="508" type="line"/>
      <point x="445" y="480" type="line"/>
      <point x="455" y="480" type="line" smooth="yes"/>
      <point x="515" y="480"/>
      <point x="541" y="466"/>
      <point x="541" y="437" type="curve" smooth="yes"/>
    </contour>
    <contour>
      <point x="203" y="38" type="curve" smooth="yes"/>
      <point x="203" y="579" type="line" smooth="yes"/>
      <point x="203" y="690"/>
      <point x="285" y="721"/>
      <point x="389" y="721" type="curve" smooth="yes"/>
      <point x="458" y="721"/>
      <point x="513" y="707"/>
      <point x="551" y="674" type="curve"/>
      <point x="558" y="702"/>
      <point x="544" y="704"/>
      <point x="522" y="726" type="curve"/>
      <point x="522" y="638" type="line"/>
      <point x="574" y="638" type="line"/>
      <point x="574" y="707" type="line"/>
      <point x="540" y="731"/>
      <point x="480" y="752"/>
      <point x="389" y="752" type="curve" smooth="yes"/>
      <point x="261" y="752"/>
      <point x="162" y="706"/>
      <point x="162" y="579" type="curve" smooth="yes"/>
      <point x="162" y="64" type="line"/>
      <point x="162" y="35"/>
      <point x="123" y="28"/>
      <point x="59" y="28" type="curve" smooth="yes"/>
      <point x="46" y="28" type="line"/>
      <point x="46" y="0" type="line"/>
      <point x="329" y="0" type="line"/>
      <point x="329" y="28" type="line"/>
      <point x="314" y="28" type="line" smooth="yes"/>
      <point x="251" y="28"/>
      <point x="203" y="31"/>
    </contour>
  </outline>
</glyph>
<glyph name="f_k" format="2">
  <advance width="1076"/>
  <outline>
    <contour>
      <point x="1044" y="0" type="line"/>
      <point x="1044" y="31" type="line"/>
      <point x="1041" y="31" type="line"/>
      <point x="1002" y="31"/>
      <point x="968" y="37"/>
      <point x="932" y="69" type="curve" smooth="yes"/>
      <point x="671" y="292" type="line"/>
      <point x="672" y="273" type="line"/>
      <point x="881" y="429" type="line" smooth="yes"/>
      <point x="924" y="462"/>
      <point x="961" y="478"/>
      <point x="1011" y="478" type="curve"/>
      <point x="1014" y="478" type="line"/>
      <point x="1014" y="508" type="line"/>
      <point x="764" y="508" type="line"/>
      <point x="764" y="478" type="line"/>
      <point x="769" y="478" type="line"/>
      <point x="808" y="478"/>
      <point x="867" y="475"/>
      <point x="867" y="460" type="curve"/>
      <point x="631" y="281" type="line"/>
      <point x="631" y="276" type="line"/>
      <point x="908" y="41" type="line"/>
      <point x="908" y="34"/>
      <point x="857" y="31"/>
      <point x="820" y="31" type="curve"/>
      <point x="813" y="31" type="line"/>
      <point x="813" y="0" type="line"/>
    </contour>
    <contour>
      <point x="40" y="508" type="line"/>
      <point x="40" y="480" type="line"/>
      <point x="393" y="480" type="line"/>
      <point x="393" y="508" type="line"/>
    </contour>
    <contour>
      <point x="669" y="0" type="line"/>
      <point x="669" y="28" type="line"/>
      <point x="666" y="28" type="line" smooth="yes"/>
      <point x="635" y="28"/>
      <point x="582" y="31"/>
      <point x="582" y="38" type="curve"/>
      <point x="582" y="735" type="line"/>
      <point x="479" y="735" type="line"/>
      <point x="541" y="703" type="line"/>
      <point x="541" y="38" type="line"/>
      <point x="541" y="31"/>
      <point x="489" y="28"/>
      <point x="456" y="28" type="curve" smooth="yes"/>
      <point x="444" y="28" type="line"/>
      <point x="444" y="0" type="line"/>
    </contour>
    <contour>
      <point x="203" y="38" type="curve" smooth="yes"/>
      <point x="203" y="595" type="line" smooth="yes"/>
      <point x="203" y="694"/>
      <point x="258" y="721"/>
      <point x="373" y="721" type="curve" smooth="yes"/>
      <point x="442" y="721"/>
      <point x="510" y="706"/>
      <point x="565" y="671" type="curve"/>
      <point x="574" y="711" type="line"/>
      <point x="531" y="727"/>
      <point x="467" y="752"/>
      <point x="373" y="752" type="curve" smooth="yes"/>
      <point x="240" y="752"/>
      <point x="162" y="709"/>
      <point x="162" y="595" type="curve" smooth="yes"/>
      <point x="162" y="64" type="line"/>
      <point x="162" y="35"/>
      <point x="123" y="28"/>
      <point x="59" y="28" type="curve" smooth="yes"/>
      <point x="46" y="28" type="line"/>
      <point x="46" y="0" type="line"/>
      <point x="329" y="0" type="line"/>
      <point x="329" y="28" type="line"/>
      <point x="314" y="28" type="line" smooth="yes"/>
      <point x="251" y="28"/>
      <point x="203" y="31"/>
    </contour>
  </outline>
</glyph>
<glyph name="f_l" format="2">
  <advance width="723"/>
  <outline>
    <contour>
      <point x="40" y="508" type="line"/>
      <point x="40" y="480" type="line"/>
      <point x="393" y="480" type="line"/>
      <point x="393" y="508" type="line"/>
    </contour>
    <contour>
      <point x="541" y="38" type="line"/>
      <point x="541" y="31"/>
      <point x="489" y="28"/>
      <point x="456" y="28" type="curve" smooth="yes"/>
      <point x="444" y="28" type="line"/>
      <point x="444" y="0" type="line"/>
      <point x="680" y="0" type="line"/>
      <point x="680" y="28" type="line"/>
      <point x="678" y="28" type="line" smooth="yes"/>
      <point x="622" y="28"/>
      <point x="582" y="35"/>
      <point x="582" y="64" type="curve"/>
      <point x="582" y="735" type="line"/>
      <point x="479" y="735" type="line"/>
      <point x="541" y="703" type="line"/>
    </contour>
    <contour>
      <point x="329" y="0" type="line"/>
      <point x="329" y="28" type="line"/>
      <point x="314" y="28" type="line" smooth="yes"/>
      <point x="251" y="28"/>
      <point x="203" y="31"/>
      <point x="203" y="38" type="curve" smooth="yes"/>
      <point x="203" y="595" type="line" smooth="yes"/>
      <point x="203" y="694"/>
      <point x="258" y="721"/>
      <point x="373" y="721" type="curve" smooth="yes"/>
      <point x="442" y="721"/>
      <point x="510" y="706"/>
      <point x="565" y="671" type="curve"/>
      <point x="574" y="711" type="line"/>
      <point x="531" y="727"/>
      <point x="467" y="752"/>
      <point x="373" y="752" type="curve" smooth="yes"/>
      <point x="240" y="752"/>
      <point x="162" y="709"/>
      <point x="162" y="595" type="curve" smooth="yes"/>
      <point x="162" y="64" type="line"/>
      <point x="162" y="35"/>
      <point x="123" y="28"/>
      <point x="59" y="28" type="curve" smooth="yes"/>
      <point x="46" y="28" type="line"/>
      <point x="46" y="0" type="line"/>
    </contour>
  </outline>
</glyph>
<glyph name="five.midprop" format="2">
  <advance width="653"/>
  <outline>
    <contour>
      <point x="329" y="-88" type="curve" smooth="yes"/>
      <point x="195" y="-88"/>
      <point x="108" y="-21"/>
      <point x="67" y="67" type="curve"/>
      <point x="98" y="84" type="line"/>
      <point x="126" y="20"/>
      <point x="196" y="-57"/>
      <point x="329" y="-57" type="curve" smooth="yes"/>
      <point x="469" y="-57"/>
      <point x="554" y="31"/>
      <point x="554" y="154" type="curve" smooth="yes"/>
      <point x="554" y="269"/>
      <point x="464" y="339"/>
      <point x="352" y="339" type="curve" smooth="yes"/>
      <point x="260" y="339"/>
      <point x="202" y="304"/>
      <point x="149" y="244" type="curve"/>
      <point x="122" y="244" type="line"/>
      <point x="122" y="609" type="line"/>
      <point x="542" y="609" type="line"/>
      <point x="536" y="571" type="line"/>
      <point x="139" y="571" type="line"/>
      <point x="156" y="589" type="line"/>
      <point x="156" y="270" type="line"/>
      <point x="152" y="260"/>
      <point x="147" y="251"/>
      <point x="134" y="264" type="curve"/>
      <point x="184" y="325"/>
      <point x="251" y="370"/>
      <point x="356" y="370" type="curve" smooth="yes"/>
      <point x="511" y="370"/>
      <point x="598" y="267"/>
      <point x="598" y="154" type="curve" smooth="yes"/>
      <point x="598" y="19"/>
      <point x="495" y="-88"/>
    </contour>
  </outline>
</glyph>
<glyph name="five.oldprop" format="2">
  <advance width="650"/>
  <outline>
    <contour>
      <point x="324" y="-149" type="curve" smooth="yes"/>
      <point x="189" y="-149"/>
      <point x="102" y="-82"/>
      <point x="61" y="6" type="curve"/>
      <point x="92" y="23" type="line"/>
      <point x="121" y="-41"/>
      <point x="191" y="-118"/>
      <point x="324" y="-118" type="curve" smooth="yes"/>
      <point x="463" y="-118"/>
      <point x="549" y="-30"/>
      <point x="549" y="93" type="curve" smooth="yes"/>
      <point x="549" y="208"/>
      <point x="460" y="278"/>
      <point x="347" y="278" type="curve" smooth="yes"/>
      <point x="255" y="278"/>
      <point x="197" y="243"/>
      <point x="144" y="183" type="curve"/>
      <point x="117" y="183" type="line"/>
      <point x="117" y="548" type="line"/>
      <point x="532" y="548" type="line"/>
      <point x="526" y="510" type="line"/>
      <point x="134" y="510" type="line"/>
      <point x="150" y="528" type="line"/>
      <point x="150" y="209" type="line"/>
      <point x="147" y="199"/>
      <point x="141" y="190"/>
      <point x="129" y="203" type="curve"/>
      <point x="178" y="264"/>
      <point x="246" y="309"/>
      <point x="351" y="309" type="curve" smooth="yes"/>
      <point x="506" y="309"/>
      <point x="593" y="206"/>
      <point x="593" y="93" type="curve" smooth="yes"/>
      <point x="593" y="-42"/>
      <point x="490" y="-149"/>
    </contour>
  </outline>
</glyph>
<glyph name="five.oldtab" format="2">
  <advance width="652"/>
  <outline>
    <contour>
      <point x="327" y="-149" type="curve"/>
      <point x="184" y="-149"/>
      <point x="103" y="-85"/>
      <point x="64" y="-3" type="curve"/>
      <point x="95" y="14" type="line"/>
      <point x="132" y="-61"/>
      <point x="205" y="-118"/>
      <point x="327" y="-118" type="curve"/>
      <point x="468" y="-118"/>
      <point x="553" y="-32"/>
      <point x="553" y="91" type="curve" smooth="yes"/>
      <point x="553" y="207"/>
      <point x="459" y="274"/>
      <point x="345" y="274" type="curve" smooth="yes"/>
      <point x="252" y="274"/>
      <point x="192" y="239"/>
      <point x="137" y="179" type="curve"/>
      <point x="110" y="179" type="line"/>
      <point x="110" y="548" type="line"/>
      <point x="546" y="548" type="line"/>
      <point x="537" y="510" type="line"/>
      <point x="128" y="510" type="line"/>
      <point x="144" y="528" type="line"/>
      <point x="144" y="205" type="line"/>
      <point x="141" y="195"/>
      <point x="135" y="186"/>
      <point x="123" y="199" type="curve"/>
      <point x="174" y="260"/>
      <point x="243" y="305"/>
      <point x="350" y="305" type="curve" smooth="yes"/>
      <point x="507" y="305"/>
      <point x="597" y="205"/>
      <point x="597" y="91" type="curve" smooth="yes"/>
      <point x="597" y="-44"/>
      <point x="492" y="-149"/>
    </contour>
  </outline>
</glyph>
<glyph name="four.linprop" format="2">
  <advance width="696"/>
  <outline>
    <contour>
      <point x="305" y="0" type="line"/>
      <point x="636" y="0" type="line"/>
      <point x="636" y="28" type="line"/>
      <point x="626" y="28" type="line" smooth="yes"/>
      <point x="550" y="28"/>
      <point x="498" y="35"/>
      <point x="498" y="64" type="curve" smooth="yes"/>
      <point x="498" y="710" type="line"/>
      <point x="456" y="710" type="line"/>
      <point x="460" y="698" type="line"/>
      <point x="460" y="64" type="line" smooth="yes"/>
      <point x="460" y="35"/>
      <point x="413" y="28"/>
      <point x="335" y="28" type="curve" smooth="yes"/>
      <point x="305" y="28" type="line"/>
    </contour>
    <contour>
      <point x="63" y="213" type="line"/>
      <point x="658" y="213" type="line"/>
      <point x="658" y="247" type="line"/>
      <point x="83" y="247" type="line"/>
      <point x="86" y="226" type="line"/>
      <point x="475" y="705" type="line"/>
      <point x="477" y="710" type="line"/>
      <point x="436" y="710" type="line"/>
      <point x="63" y="252" type="line"/>
    </contour>
  </outline>
</glyph>
<glyph name="four.lintab" format="2">
  <advance width="652"/>
  <outline>
    <contour>
      <point x="281" y="0" type="line"/>
      <point x="615" y="0" type="line"/>
      <point x="615" y="28" type="line"/>
      <point x="604" y="28" type="line" smooth="yes"/>
      <point x="528" y="28"/>
      <point x="476" y="35"/>
      <point x="476" y="64" type="curve" smooth="yes"/>
      <point x="476" y="710" type="line"/>
      <point x="436" y="710" type="line"/>
      <point x="436" y="692" type="line"/>
      <point x="436" y="64" type="line" smooth="yes"/>
      <point x="436" y="35"/>
      <point x="389" y="28"/>
      <point x="311" y="28" type="curve" smooth="yes"/>
      <point x="281" y="28" type="line"/>
    </contour>
    <contour>
      <point x="44" y="213" type="line"/>
      <point x="626" y="213" type="line"/>
      <point x="626" y="249" type="line"/>
      <point x="66" y="249" type="line"/>
      <point x="70" y="225" type="line"/>
      <point x="455" y="704" type="line"/>
      <point x="468" y="710" type="line"/>
      <point x="414" y="710" type="line"/>
      <point x="44" y="252" type="line"/>
    </contour>
  </outline>
</glyph>
<glyph name="guarani.proportional" format="2">
  <advance width="814"/>
  <outline>
    <contour>
      <point x="399" y="790" type="line"/>
      <point x="399" y="683" type="line"/>
      <point x="399" y="678" type="line"/>
      <point x="399" y="26" type="line"/>
      <point x="399" y="21" type="line"/>
      <point x="399" y="-120" type="line"/>
      <point x="438" y="-120" type="line"/>
      <point x="438" y="22" type="line"/>
      <point x="438" y="29" type="line"/>
      <point x="438" y="683" type="line"/>
      <point x="438" y="688" type="line"/>
      <point x="438" y="790" type="line"/>
    </contour>
    <contour>
      <point x="431" y="10" type="curve" smooth="yes"/>
      <point x="570" y="10"/>
      <point x="673" y="72"/>
      <point x="712" y="122" type="curve"/>
      <point x="712" y="287" type="line"/>
      <point x="712" y="316"/>
      <point x="750" y="323"/>
      <point x="800" y="323" type="curve" smooth="yes"/>
      <point x="804" y="323" type="line"/>
      <point x="804" y="353" type="line"/>
      <point x="565" y="353" type="line"/>
      <point x="565" y="323" type="line"/>
      <point x="578" y="323" type="line" smooth="yes"/>
      <point x="636" y="323"/>
      <point x="678" y="316"/>
      <point x="678" y="287" type="curve"/>
      <point x="678" y="132" type="line"/>
      <point x="649" y="103"/>
      <point x="577" y="41"/>
      <point x="432" y="41" type="curve" smooth="yes"/>
      <point x="222" y="41"/>
      <point x="98" y="160"/>
      <point x="98" y="355" type="curve" smooth="yes"/>
      <point x="98" y="547"/>
      <point x="230" y="669"/>
      <point x="436" y="669" type="curve" smooth="yes"/>
      <point x="562" y="669"/>
      <point x="638" y="626"/>
      <point x="680" y="588" type="curve"/>
      <point x="697" y="563"/>
      <point x="706" y="595"/>
      <point x="660" y="626" type="curve"/>
      <point x="660" y="521" type="line"/>
      <point x="712" y="521" type="line"/>
      <point x="712" y="615" type="line"/>
      <point x="662" y="655"/>
      <point x="572" y="700"/>
      <point x="436" y="700" type="curve" smooth="yes"/>
      <point x="210" y="700"/>
      <point x="54" y="560"/>
      <point x="54" y="355" type="curve" smooth="yes"/>
      <point x="54" y="149"/>
      <point x="205" y="10"/>
    </contour>
  </outline>
</glyph>
<glyph name="heart" format="2">
  <advance width="1050"/>
  <outline>
    <contour>
      <point x="512" y="-10" type="line"/>
      <point x="538" y="-10" type="line"/>
      <point x="815" y="273" type="line" smooth="yes"/>
      <point x="913" y="375"/>
      <point x="968" y="437"/>
      <point x="968" y="535" type="curve" smooth="yes"/>
      <point x="968" y="632"/>
      <point x="891" y="710"/>
      <point x="756" y="710" type="curve" smooth="yes"/>
      <point x="648" y="710"/>
      <point x="570" y="657"/>
      <point x="525" y="569" type="curve"/>
      <point x="480" y="657"/>
      <point x="402" y="710"/>
      <point x="294" y="710" type="curve" smooth="yes"/>
      <point x="159" y="710"/>
      <point x="82" y="632"/>
      <point x="82" y="535" type="curve" smooth="yes"/>
      <point x="82" y="437"/>
      <point x="136" y="375"/>
      <point x="236" y="273" type="curve" smooth="yes"/>
    </contour>
  </outline>
</glyph>
<glyph name="hook.uc" format="2">
  <advance width="594"/>
  <anchor x="263" y="679" name="_top"/>
  <outline>
    <contour>
      <point x="145" y="881" type="line"/>
      <point x="153" y="926"/>
      <point x="199" y="964"/>
      <point x="280" y="964" type="curve" smooth="yes"/>
      <point x="353" y="964"/>
      <point x="397" y="937"/>
      <point x="397" y="889" type="curve" smooth="yes"/>
      <point x="397" y="836"/>
      <point x="333" y="807"/>
      <point x="260" y="803" type="curve"/>
      <point x="290" y="829" type="line"/>
      <point x="290" y="762" type="line"/>
      <point x="248" y="762" type="line"/>
      <point x="248" y="828" type="line"/>
      <point x="309" y="831"/>
      <point x="355" y="848"/>
      <point x="355" y="888" type="curve" smooth="yes"/>
      <point x="355" y="919"/>
      <point x="325" y="936"/>
      <point x="280" y="936" type="curve" smooth="yes"/>
      <point x="221" y="936"/>
      <point x="197" y="913"/>
      <point x="189" y="881" type="curve"/>
    </contour>
  </outline>
</glyph>
<glyph name="kgreenlandic" format="2">
  <advance width="674"/>
  <outline>
    <contour>
      <point x="641" y="0" type="line"/>
      <point x="641" y="31" type="line"/>
      <point x="639" y="31" type="line"/>
      <point x="600" y="31"/>
      <point x="566" y="37"/>
      <point x="530" y="69" type="curve" smooth="yes"/>
      <point x="269" y="292" type="line"/>
      <point x="270" y="273" type="line"/>
      <point x="479" y="429" type="line" smooth="yes"/>
      <point x="522" y="462"/>
      <point x="559" y="478"/>
      <point x="609" y="478" type="curve"/>
      <point x="612" y="478" type="line"/>
      <point x="612" y="508" type="line"/>
      <point x="362" y="508" type="line"/>
      <point x="362" y="478" type="line"/>
      <point x="367" y="478" type="line"/>
      <point x="406" y="478"/>
      <point x="465" y="475"/>
      <point x="465" y="460" type="curve"/>
      <point x="229" y="281" type="line"/>
      <point x="229" y="276" type="line"/>
      <point x="506" y="41" type="line"/>
      <point x="506" y="34"/>
      <point x="455" y="31"/>
      <point x="419" y="31" type="curve"/>
      <point x="411" y="31" type="line"/>
      <point x="411" y="0" type="line"/>
    </contour>
    <contour>
      <point x="180" y="508" type="line"/>
      <point x="42" y="508" type="line"/>
      <point x="42" y="482" type="line"/>
      <point x="53" y="480" type="line" smooth="yes"/>
      <point x="111" y="470"/>
      <point x="139" y="464"/>
      <point x="139" y="435" type="curve" smooth="yes"/>
      <point x="139" y="64" type="line" smooth="yes"/>
      <point x="139" y="35"/>
      <point x="100" y="28"/>
      <point x="44" y="28" type="curve"/>
      <point x="42" y="28" type="line"/>
      <point x="42" y="0" type="line"/>
      <point x="267" y="0" type="line"/>
      <point x="267" y="28" type="line"/>
      <point x="264" y="28" type="line" smooth="yes"/>
      <point x="232" y="28"/>
      <point x="180" y="31"/>
      <point x="180" y="38" type="curve" smooth="yes"/>
    </contour>
  </outline>
</glyph>
<glyph name="lira.altprop" format="2">
  <advance width="688"/>
  <outline>
    <contour>
      <point x="42" y="429" type="line"/>
      <point x="42" y="398" type="line"/>
      <point x="480" y="398" type="line"/>
      <point x="480" y="429" type="line"/>
    </contour>
    <contour>
      <point x="42" y="274" type="line"/>
      <point x="42" y="243" type="line"/>
      <point x="480" y="243" type="line"/>
      <point x="480" y="274" type="line"/>
    </contour>
    <contour>
      <point x="57" y="0" type="line"/>
      <point x="618" y="0" type="line"/>
      <point x="618" y="169" type="line"/>
      <point x="589" y="169" type="line"/>
      <point x="579" y="74" type="line" smooth="yes"/>
      <point x="576" y="38"/>
      <point x="534" y="31"/>
      <point x="433" y="31" type="curve"/>
      <point x="90" y="31" type="line"/>
      <point x="102" y="22" type="line"/>
      <point x="206" y="68"/>
      <point x="262" y="138"/>
      <point x="262" y="222" type="curve" smooth="yes"/>
      <point x="262" y="332"/>
      <point x="161" y="411"/>
      <point x="161" y="528" type="curve" smooth="yes"/>
      <point x="161" y="631"/>
      <point x="248" y="687"/>
      <point x="370" y="687" type="curve" smooth="yes"/>
      <point x="459" y="687"/>
      <point x="519" y="656"/>
      <point x="550" y="631" type="curve"/>
      <point x="550" y="641"/>
      <point x="536" y="657"/>
      <point x="525" y="671" type="curve"/>
      <point x="525" y="575" type="line"/>
      <point x="576" y="575" type="line"/>
      <point x="576" y="661" type="line"/>
      <point x="545" y="683"/>
      <point x="479" y="718"/>
      <point x="370" y="718" type="curve" smooth="yes"/>
      <point x="222" y="718"/>
      <point x="116" y="643"/>
      <point x="116" y="528" type="curve" smooth="yes"/>
      <point x="116" y="402"/>
      <point x="223" y="313"/>
      <point x="223" y="222" type="curve" smooth="yes"/>
      <point x="223" y="125"/>
      <point x="159" y="78"/>
      <point x="57" y="36" type="curve"/>
    </contour>
  </outline>
</glyph>
<glyph name="lira.proportional" format="2">
  <advance width="719"/>
  <outline>
    <contour>
      <point x="62" y="429" type="line"/>
      <point x="62" y="398" type="line"/>
      <point x="489" y="398" type="line"/>
      <point x="489" y="429" type="line"/>
    </contour>
    <contour>
      <point x="62" y="2" type="line"/>
      <point x="201" y="27"/>
      <point x="282" y="94"/>
      <point x="282" y="210" type="curve" smooth="yes"/>
      <point x="282" y="323"/>
      <point x="180" y="408"/>
      <point x="180" y="525" type="curve" smooth="yes"/>
      <point x="180" y="628"/>
      <point x="261" y="687"/>
      <point x="396" y="687" type="curve" smooth="yes"/>
      <point x="502" y="687"/>
      <point x="552" y="651"/>
      <point x="577" y="626" type="curve"/>
      <point x="582" y="624"/>
      <point x="578" y="661"/>
      <point x="558" y="662" type="curve"/>
      <point x="558" y="570" type="line"/>
      <point x="609" y="570" type="line"/>
      <point x="609" y="655" type="line"/>
      <point x="586" y="673"/>
      <point x="520" y="718"/>
      <point x="396" y="718" type="curve" smooth="yes"/>
      <point x="236" y="718"/>
      <point x="136" y="640"/>
      <point x="136" y="525" type="curve" smooth="yes"/>
      <point x="136" y="399"/>
      <point x="244" y="304"/>
      <point x="244" y="209" type="curve" smooth="yes"/>
      <point x="244" y="104"/>
      <point x="180" y="56"/>
      <point x="62" y="33" type="curve"/>
    </contour>
    <contour>
      <point x="495" y="-2" type="curve" smooth="yes"/>
      <point x="586" y="-2"/>
      <point x="636" y="47"/>
      <point x="664" y="128" type="curve"/>
      <point x="635" y="142" type="line"/>
      <point x="609" y="73"/>
      <point x="577" y="39"/>
      <point x="503" y="39" type="curve" smooth="yes"/>
      <point x="424" y="39"/>
      <point x="349" y="83"/>
      <point x="261" y="152" type="curve"/>
      <point x="259" y="154"/>
      <point x="259" y="133"/>
      <point x="243" y="120" type="curve"/>
      <point x="341" y="50"/>
      <point x="402" y="-2"/>
    </contour>
    <contour>
      <point x="62" y="273" type="line"/>
      <point x="62" y="243" type="line"/>
      <point x="489" y="243" type="line"/>
      <point x="489" y="273" type="line"/>
    </contour>
  </outline>
</glyph>
<glyph name="manat.proportional" format="2">
  <advance width="759"/>
  <outline>
    <contour>
      <point x="360" y="720" type="line"/>
      <point x="360" y="144" type="line"/>
      <point x="399" y="144" type="line"/>
      <point x="399" y="720" type="line"/>
    </contour>
    <contour>
      <point x="380" y="559" type="curve" smooth="yes"/>
      <point x="556" y="559"/>
      <point x="656" y="370"/>
      <point x="656" y="0" type="curve"/>
      <point x="700" y="0" type="line"/>
      <point x="700" y="363"/>
      <point x="581" y="590"/>
      <point x="380" y="590" type="curve" smooth="yes"/>
      <point x="179" y="590"/>
      <point x="60" y="363"/>
      <point x="60" y="0" type="curve"/>
      <point x="104" y="0" type="line"/>
      <point x="104" y="370"/>
      <point x="203" y="559"/>
    </contour>
  </outline>
</glyph>
<glyph name="minus.sub" format="2">
  <advance width="466"/>
  <outline>
    <contour>
      <point x="408" y="95" type="line"/>
      <point x="58" y="95" type="line"/>
      <point x="58" y="65" type="line"/>
      <point x="408" y="65" type="line"/>
    </contour>
  </outline>
</glyph>
<glyph name="nine.oldtab" format="2">
  <advance width="652"/>
  <outline>
    <contour>
      <point x="110" y="-121" type="line"/>
      <point x="373" y="-105"/>
      <point x="548" y="45"/>
      <point x="548" y="275" type="curve" smooth="yes"/>
      <point x="548" y="443"/>
      <point x="456" y="527"/>
      <point x="320" y="527" type="curve" smooth="yes"/>
      <point x="179" y="527"/>
      <point x="97" y="439"/>
      <point x="97" y="329" type="curve" smooth="yes"/>
      <point x="97" y="225"/>
      <point x="175" y="147"/>
      <point x="303" y="147" type="curve" smooth="yes"/>
      <point x="420" y="147"/>
      <point x="512" y="222"/>
      <point x="565" y="310" type="curve"/>
      <point x="578" y="286" type="line"/>
      <point x="530" y="199"/>
      <point x="428" y="116"/>
      <point x="301" y="116" type="curve" smooth="yes"/>
      <point x="151" y="116"/>
      <point x="53" y="204"/>
      <point x="53" y="329" type="curve" smooth="yes"/>
      <point x="53" y="453"/>
      <point x="163" y="558"/>
      <point x="320" y="558" type="curve" smooth="yes"/>
      <point x="476" y="558"/>
      <point x="593" y="454"/>
      <point x="593" y="275" type="curve" smooth="yes"/>
      <point x="593" y="36"/>
      <point x="399" y="-136"/>
      <point x="116" y="-152" type="curve"/>
    </contour>
  </outline>
</glyph>
<glyph name="one.lintab" format="2">
  <advance width="652"/>
  <outline>
    <contour>
      <point x="387" y="64" type="curve" smooth="yes"/>
      <point x="387" y="710" type="line"/>
      <point x="362" y="710" type="line"/>
      <point x="323" y="658"/>
      <point x="241" y="636"/>
      <point x="141" y="634" type="curve"/>
      <point x="141" y="603" type="line"/>
      <point x="233" y="601"/>
      <point x="331" y="627"/>
      <point x="353" y="673" type="curve"/>
      <point x="346" y="672" type="line"/>
      <point x="346" y="64" type="line" smooth="yes"/>
      <point x="346" y="35"/>
      <point x="300" y="28"/>
      <point x="224" y="28" type="curve" smooth="yes"/>
      <point x="152" y="28" type="line"/>
      <point x="152" y="0" type="line"/>
      <point x="574" y="0" type="line"/>
      <point x="574" y="28" type="line"/>
      <point x="521" y="28" type="line" smooth="yes"/>
      <point x="438" y="28"/>
      <point x="387" y="35"/>
    </contour>
  </outline>
</glyph>
<glyph name="parenleft.uc" format="2">
  <advance width="332"/>
  <outline>
    <contour>
      <point x="112" y="355" type="curve" smooth="yes"/>
      <point x="112" y="170"/>
      <point x="219" y="31"/>
      <point x="303" y="-32" type="curve"/>
      <point x="303" y="-35" type="line"/>
      <point x="268" y="-35" type="line"/>
      <point x="175" y="27"/>
      <point x="71" y="173"/>
      <point x="71" y="355" type="curve" smooth="yes"/>
      <point x="71" y="537"/>
      <point x="174" y="683"/>
      <point x="268" y="745" type="curve"/>
      <point x="303" y="745" type="line"/>
      <point x="303" y="742" type="line"/>
      <point x="217" y="679"/>
      <point x="112" y="540"/>
    </contour>
  </outline>
</glyph>
<glyph name="peseta.proportional" format="2">
  <advance width="917"/>
  <outline>
    <contour>
      <point x="52" y="0" type="line"/>
      <point x="327" y="0" type="line"/>
      <point x="327" y="31" type="line"/>
      <point x="296" y="31" type="line" smooth="yes"/>
      <point x="256" y="31"/>
      <point x="206" y="34"/>
      <point x="206" y="41" type="curve" smooth="yes"/>
      <point x="206" y="279" type="line"/>
      <point x="258" y="279" type="line" smooth="yes"/>
      <point x="455" y="279"/>
      <point x="549" y="368"/>
      <point x="549" y="498" type="curve" smooth="yes"/>
      <point x="549" y="628"/>
      <point x="459" y="710"/>
      <point x="264" y="710" type="curve" smooth="yes"/>
      <point x="52" y="710" type="line"/>
      <point x="52" y="679" type="line"/>
      <point x="66" y="679" type="line" smooth="yes"/>
      <point x="123" y="679"/>
      <point x="165" y="672"/>
      <point x="165" y="643" type="curve" smooth="yes"/>
      <point x="165" y="67" type="line" smooth="yes"/>
      <point x="165" y="38"/>
      <point x="123" y="31"/>
      <point x="66" y="31" type="curve" smooth="yes"/>
      <point x="52" y="31" type="line"/>
    </contour>
    <contour>
      <point x="264" y="679" type="line" smooth="yes"/>
      <point x="433" y="679"/>
      <point x="506" y="612"/>
      <point x="506" y="497" type="curve" smooth="yes"/>
      <point x="506" y="383"/>
      <point x="434" y="310"/>
      <point x="258" y="310" type="curve" smooth="yes"/>
      <point x="206" y="310" type="line"/>
      <point x="206" y="679" type="line"/>
    </contour>
    <contour>
      <point x="684" y="508" type="line"/>
      <point x="653" y="492" type="line"/>
      <point x="653" y="133" type="line" smooth="yes"/>
      <point x="653" y="26"/>
      <point x="724" y="-11"/>
      <point x="803" y="-11" type="curve" smooth="yes"/>
      <point x="839" y="-11"/>
      <point x="867" y="-4"/>
      <point x="888" y="4" type="curve"/>
      <point x="888" y="35" type="line"/>
      <point x="868" y="30"/>
      <point x="845" y="23"/>
      <point x="813" y="23" type="curve" smooth="yes"/>
      <point x="744" y="23"/>
      <point x="694" y="55"/>
      <point x="694" y="133" type="curve" smooth="yes"/>
      <point x="694" y="648" type="line"/>
      <point x="661" y="648" type="line"/>
      <point x="661" y="553" type="line" smooth="yes"/>
      <point x="661" y="512"/>
      <point x="625" y="503"/>
      <point x="554" y="503" type="curve" smooth="yes"/>
      <point x="513" y="503" type="line"/>
      <point x="513" y="477" type="line"/>
      <point x="873" y="477" type="line"/>
      <point x="873" y="508" type="line"/>
    </contour>
  </outline>
</glyph>
<glyph name="ring.uc" format="2">
  <advance width="583"/>
  <anchor x="291" y="731" name="_top"/>
  <outline>
    <contour>
      <point x="217" y="855" type="curve" smooth="yes"/>
      <point x="217" y="898"/>
      <point x="250" y="920"/>
      <point x="291" y="920" type="curve" smooth="yes"/>
      <point x="332" y="920"/>
      <point x="365" y="898"/>
      <point x="365" y="855" type="curve" smooth="yes"/>
      <point x="365" y="812"/>
      <point x="332" y="790"/>
      <point x="291" y="790" type="curve" smooth="yes"/>
      <point x="250" y="790"/>
      <point x="217" y="812"/>
    </contour>
    <contour>
      <point x="407" y="855" type="curve" smooth="yes"/>
      <point x="407" y="913"/>
      <point x="356" y="946"/>
      <point x="291" y="946" type="curve" smooth="yes"/>
      <point x="227" y="946"/>
      <point x="175" y="913"/>
      <point x="175" y="855" type="curve" smooth="yes"/>
      <point x="175" y="797"/>
      <point x="228" y="764"/>
      <point x="291" y="764" type="curve" smooth="yes"/>
      <point x="354" y="764"/>
      <point x="407" y="797"/>
    </contour>
  </outline>
</glyph>
<glyph name="seven.midprop" format="2">
  <advance width="615"/>
  <outline>
    <contour>
      <point x="253" y="571" type="line" smooth="yes"/>
      <point x="153" y="571"/>
      <point x="112" y="564"/>
      <point x="107" y="528" type="curve" smooth="yes"/>
      <point x="97" y="438" type="line"/>
      <point x="70" y="438" type="line"/>
      <point x="70" y="609" type="line"/>
      <point x="580" y="609" type="line"/>
      <point x="580" y="571" type="line"/>
      <point x="432" y="403"/>
      <point x="305" y="240"/>
      <point x="272" y="-77" type="curve"/>
      <point x="227" y="-77" type="line"/>
      <point x="263" y="245"/>
      <point x="416" y="437"/>
      <point x="558" y="583" type="curve"/>
      <point x="567" y="571" type="line"/>
    </contour>
  </outline>
</glyph>
<glyph name="six.linprop" format="2">
  <advance width="673"/>
  <outline>
    <contour>
      <point x="527" y="709" type="line"/>
      <point x="288" y="673"/>
      <point x="111" y="507"/>
      <point x="111" y="287" type="curve" smooth="yes"/>
      <point x="111" y="112"/>
      <point x="205" y="21"/>
      <point x="352" y="21" type="curve" smooth="yes"/>
      <point x="490" y="21"/>
      <point x="575" y="116"/>
      <point x="575" y="234" type="curve" smooth="yes"/>
      <point x="575" y="345"/>
      <point x="497" y="428"/>
      <point x="366" y="428" type="curve" smooth="yes"/>
      <point x="248" y="428"/>
      <point x="150" y="354"/>
      <point x="94" y="266" type="curve"/>
      <point x="81" y="290" type="line"/>
      <point x="132" y="377"/>
      <point x="240" y="459"/>
      <point x="367" y="459" type="curve" smooth="yes"/>
      <point x="521" y="459"/>
      <point x="619" y="366"/>
      <point x="619" y="234" type="curve" smooth="yes"/>
      <point x="619" y="102"/>
      <point x="506" y="-10"/>
      <point x="352" y="-10" type="curve" smooth="yes"/>
      <point x="185" y="-10"/>
      <point x="66" y="102"/>
      <point x="66" y="287" type="curve" smooth="yes"/>
      <point x="66" y="507"/>
      <point x="251" y="704"/>
      <point x="522" y="740" type="curve"/>
    </contour>
  </outline>
</glyph>
<glyph name="six.midprop" format="2">
  <advance width="652"/>
  <outline>
    <contour>
      <point x="513" y="709" type="line"/>
      <point x="279" y="673"/>
      <point x="110" y="507"/>
      <point x="110" y="287" type="curve" smooth="yes"/>
      <point x="110" y="112"/>
      <point x="197" y="21"/>
      <point x="341" y="21" type="curve" smooth="yes"/>
      <point x="476" y="21"/>
      <point x="554" y="116"/>
      <point x="554" y="234" type="curve" smooth="yes"/>
      <point x="554" y="345"/>
      <point x="483" y="428"/>
      <point x="355" y="428" type="curve" smooth="yes"/>
      <point x="239" y="428"/>
      <point x="148" y="354"/>
      <point x="94" y="266" type="curve"/>
      <point x="81" y="290" type="line"/>
      <point x="130" y="377"/>
      <point x="233" y="459"/>
      <point x="357" y="459" type="curve" smooth="yes"/>
      <point x="508" y="459"/>
      <point x="598" y="366"/>
      <point x="598" y="234" type="curve" smooth="yes"/>
      <point x="598" y="102"/>
      <point x="493" y="-10"/>
      <point x="341" y="-10" type="curve" smooth="yes"/>
      <point x="177" y="-10"/>
      <point x="66" y="102"/>
      <point x="66" y="287" type="curve" smooth="yes"/>
      <point x="66" y="507"/>
      <point x="242" y="704"/>
      <point x="507" y="740" type="curve"/>
    </contour>
  </outline>
</glyph>
<glyph name="sterling.proportional" format="2">
  <advance width="719"/>
  <outline>
    <contour>
      <point x="61" y="354" type="line"/>
      <point x="61" y="324" type="line"/>
      <point x="524" y="324" type="line"/>
      <point x="524" y="354" type="line"/>
    </contour>
    <contour>
      <point x="62" y="2" type="line"/>
      <point x="201" y="27"/>
      <point x="282" y="94"/>
      <point x="282" y="210" type="curve" smooth="yes"/>
      <point x="282" y="323"/>
      <point x="180" y="408"/>
      <point x="180" y="525" type="curve" smooth="yes"/>
      <point x="180" y="628"/>
      <point x="261" y="687"/>
      <point x="395" y="687" type="curve" smooth="yes"/>
      <point x="488" y="687"/>
      <point x="549" y="657"/>
      <point x="582" y="631" type="curve"/>
      <point x="582" y="641"/>
      <point x="569" y="657"/>
      <point x="558" y="671" type="curve"/>
      <point x="558" y="573" type="line"/>
      <point x="609" y="573" type="line"/>
      <point x="609" y="661" type="line"/>
      <point x="577" y="684"/>
      <point x="504" y="718"/>
      <point x="395" y="718" type="curve" smooth="yes"/>
      <point x="236" y="718"/>
      <point x="136" y="640"/>
      <point x="136" y="525" type="curve" smooth="yes"/>
      <point x="136" y="399"/>
      <point x="244" y="304"/>
      <point x="244" y="209" type="curve" smooth="yes"/>
      <point x="244" y="104"/>
      <point x="180" y="56"/>
      <point x="62" y="33" type="curve"/>
    </contour>
    <contour>
      <point x="483" y="-2" type="curve" smooth="yes"/>
      <point x="578" y="-2"/>
      <point x="637" y="48"/>
      <point x="667" y="136" type="curve"/>
      <point x="637" y="150" type="line"/>
      <point x="611" y="74"/>
      <point x="568" y="39"/>
      <point x="492" y="39" type="curve" smooth="yes"/>
      <point x="405" y="39"/>
      <point x="334" y="84"/>
      <point x="261" y="152" type="curve"/>
      <point x="259" y="154"/>
      <point x="259" y="133"/>
      <point x="243" y="120" type="curve"/>
      <point x="324" y="50"/>
      <point x="388" y="-2"/>
    </contour>
  </outline>
</glyph>
<glyph name="thai:baht.proportional" format="2">
  <advance width="701"/>
  <outline>
    <contour>
      <point x="345" y="790" type="line"/>
      <point x="345" y="698" type="line"/>
      <point x="345" y="690" type="line"/>
      <point x="345" y="22" type="line"/>
      <point x="345" y="12" type="line"/>
      <point x="345" y="-120" type="line"/>
      <point x="382" y="-120" type="line"/>
      <point x="382" y="12" type="line"/>
      <point x="383" y="22" type="line"/>
      <point x="383" y="690" type="line"/>
      <point x="382" y="698" type="line"/>
      <point x="382" y="790" type="line"/>
    </contour>
    <contour>
      <point x="361" y="386" type="curve"/>
      <point x="190" y="386" type="line"/>
      <point x="190" y="679" type="line"/>
      <point x="388" y="679" type="line"/>
      <point x="506" y="679"/>
      <point x="564" y="629"/>
      <point x="564" y="540" type="curve" smooth="yes"/>
      <point x="564" y="450"/>
      <point x="499" y="386"/>
    </contour>
    <contour>
      <point x="365" y="358" type="line"/>
      <point x="515" y="358"/>
      <point x="592" y="290"/>
      <point x="592" y="193" type="curve" smooth="yes"/>
      <point x="592" y="89"/>
      <point x="524" y="31"/>
      <point x="395" y="31" type="curve" smooth="yes"/>
      <point x="190" y="31" type="line"/>
      <point x="190" y="358" type="line"/>
    </contour>
    <contour>
      <point x="322" y="363" type="line"/>
      <point x="520" y="363"/>
      <point x="608" y="435"/>
      <point x="608" y="542" type="curve" smooth="yes"/>
      <point x="608" y="645"/>
      <point x="529" y="710"/>
      <point x="389" y="710" type="curve"/>
      <point x="37" y="710" type="line"/>
      <point x="37" y="679" type="line"/>
      <point x="50" y="679" type="line" smooth="yes"/>
      <point x="107" y="679"/>
      <point x="149" y="672"/>
      <point x="149" y="643" type="curve" smooth="yes"/>
      <point x="149" y="67" type="line" smooth="yes"/>
      <point x="149" y="38"/>
      <point x="107" y="31"/>
      <point x="50" y="31" type="curve" smooth="yes"/>
      <point x="37" y="31" type="line"/>
      <point x="37" y="0" type="line"/>
      <point x="395" y="0" type="line" smooth="yes"/>
      <point x="548" y="0"/>
      <point x="639" y="73"/>
      <point x="639" y="192" type="curve" smooth="yes"/>
      <point x="639" y="309"/>
      <point x="536" y="384"/>
      <point x="327" y="384" type="curve"/>
      <point x="450" y="364" type="line"/>
      <point x="450" y="382" type="line"/>
    </contour>
  </outline>
</glyph>
<glyph name="two.linprop" format="2">
  <advance width="655"/>
  <outline>
    <contour>
      <point x="325" y="720" type="curve" smooth="yes"/>
      <point x="474" y="720"/>
      <point x="560" y="655"/>
      <point x="560" y="525" type="curve"/>
      <point x="560" y="346"/>
      <point x="317" y="182"/>
      <point x="96" y="28" type="curve"/>
      <point x="97" y="30"/>
      <point x="96" y="33"/>
      <point x="93" y="36" type="curve"/>
      <point x="391" y="36" type="line" smooth="yes"/>
      <point x="492" y="36"/>
      <point x="533" y="46"/>
      <point x="538" y="82" type="curve" smooth="yes"/>
      <point x="548" y="171" type="line"/>
      <point x="576" y="171" type="line"/>
      <point x="576" y="0" type="line"/>
      <point x="61" y="0" type="line"/>
      <point x="61" y="41" type="line"/>
      <point x="314" y="217"/>
      <point x="516" y="353"/>
      <point x="516" y="530" type="curve"/>
      <point x="516" y="648"/>
      <point x="447" y="689"/>
      <point x="326" y="689" type="curve" smooth="yes"/>
      <point x="228" y="689"/>
      <point x="158" y="659"/>
      <point x="107" y="615" type="curve"/>
      <point x="126" y="647"/>
      <point x="114" y="651"/>
      <point x="140" y="655" type="curve"/>
      <point x="140" y="556" type="line"/>
      <point x="89" y="556" type="line"/>
      <point x="89" y="646" type="line"/>
      <point x="133" y="679"/>
      <point x="211" y="720"/>
    </contour>
  </outline>
</glyph>
<glyph name="two.lintab" format="2">
  <advance width="652"/>
  <outline>
    <contour>
      <point x="400" y="31" type="line" smooth="yes"/>
      <point x="501" y="31"/>
      <point x="543" y="38"/>
      <point x="547" y="74" type="curve" smooth="yes"/>
      <point x="557" y="169" type="line"/>
      <point x="585" y="169" type="line"/>
      <point x="585" y="0" type="line"/>
      <point x="61" y="0" type="line"/>
      <point x="61" y="37" type="line"/>
      <point x="316" y="212"/>
      <point x="530" y="362"/>
      <point x="530" y="527" type="curve" smooth="yes"/>
      <point x="530" y="647"/>
      <point x="433" y="689"/>
      <point x="329" y="689" type="curve" smooth="yes"/>
      <point x="221" y="689"/>
      <point x="148" y="646"/>
      <point x="98" y="602" type="curve"/>
      <point x="116" y="635"/>
      <point x="104" y="641"/>
      <point x="132" y="644" type="curve"/>
      <point x="132" y="546" type="line"/>
      <point x="80" y="546" type="line"/>
      <point x="80" y="637" type="line"/>
      <point x="122" y="670"/>
      <point x="204" y="720"/>
      <point x="329" y="720" type="curve" smooth="yes"/>
      <point x="461" y="720"/>
      <point x="574" y="654"/>
      <point x="574" y="527" type="curve" smooth="yes"/>
      <point x="574" y="356"/>
      <point x="327" y="180"/>
      <point x="97" y="24" type="curve"/>
      <point x="94" y="26"/>
      <point x="91" y="28"/>
      <point x="94" y="31" type="curve"/>
    </contour>
  </outline>
</glyph>
<glyph name="two.midprop" format="2">
  <advance width="654"/>
  <outline>
    <contour>
      <point x="391" y="36" type="line" smooth="yes"/>
      <point x="491" y="36"/>
      <point x="533" y="46"/>
      <point x="537" y="82" type="curve" smooth="yes"/>
      <point x="548" y="171" type="line"/>
      <point x="576" y="171" type="line"/>
      <point x="576" y="0" type="line"/>
      <point x="71" y="0" type="line"/>
      <point x="71" y="41" type="line"/>
      <point x="310" y="189"/>
      <point x="501" y="279"/>
      <point x="501" y="444" type="curve" smooth="yes"/>
      <point x="501" y="545"/>
      <point x="434" y="587"/>
      <point x="327" y="587" type="curve" smooth="yes"/>
      <point x="235" y="587"/>
      <point x="170" y="555"/>
      <point x="121" y="511" type="curve"/>
      <point x="140" y="543"/>
      <point x="128" y="548"/>
      <point x="154" y="552" type="curve"/>
      <point x="154" y="453" type="line"/>
      <point x="103" y="453" type="line"/>
      <point x="103" y="543" type="line"/>
      <point x="146" y="575"/>
      <point x="219" y="618"/>
      <point x="327" y="618" type="curve" smooth="yes"/>
      <point x="462" y="618"/>
      <point x="545" y="554"/>
      <point x="545" y="442" type="curve" smooth="yes"/>
      <point x="545" y="275"/>
      <point x="320" y="158"/>
      <point x="106" y="28" type="curve"/>
      <point x="106" y="30"/>
      <point x="104" y="33"/>
      <point x="103" y="36" type="curve"/>
    </contour>
  </outline>
</glyph>
<glyph name="whitediamond" format="2">
  <advance width="724"/>
  <outline>
    <contour>
      <point x="667" y="313" type="line"/>
      <point x="362" y="574" type="line"/>
      <point x="58" y="313" type="line"/>
      <point x="362" y="52" type="line"/>
    </contour>
    <contour>
      <point x="574" y="313" type="line"/>
      <point x="362" y="131" type="line"/>
      <point x="150" y="313" type="line"/>
      <point x="362" y="495" type="line"/>
    </contour>
  </outline>
</glyph>
<glyph name="won.proportional" format="2">
  <advance width="1056"/>
  <outline>
    <contour>
      <point x="22" y="710" type="line"/>
      <point x="22" y="679" type="line"/>
      <point x="28" y="679" type="line" smooth="yes"/>
      <point x="71" y="679"/>
      <point x="99" y="676"/>
      <point x="108" y="642" type="curve" smooth="yes"/>
      <point x="284" y="0" type="line"/>
      <point x="334" y="0" type="line"/>
      <point x="536" y="685" type="line"/>
      <point x="523" y="688" type="line"/>
      <point x="736" y="0" type="line"/>
      <point x="789" y="0" type="line"/>
      <point x="947" y="636" type="line" smooth="yes"/>
      <point x="956" y="670"/>
      <point x="987" y="679"/>
      <point x="1028" y="679" type="curve" smooth="yes"/>
      <point x="1033" y="679" type="line"/>
      <point x="1033" y="710" type="line"/>
      <point x="807" y="710" type="line"/>
      <point x="807" y="679" type="line"/>
      <point x="824" y="679" type="line" smooth="yes"/>
      <point x="868" y="679"/>
      <point x="921" y="672"/>
      <point x="921" y="661" type="curve"/>
      <point x="761" y="15" type="line"/>
      <point x="770" y="13" type="line"/>
      <point x="553" y="710" type="line"/>
      <point x="510" y="710" type="line"/>
      <point x="306" y="19" type="line"/>
      <point x="316" y="19" type="line"/>
      <point x="139" y="669" type="line"/>
      <point x="139" y="676"/>
      <point x="195" y="679"/>
      <point x="239" y="679" type="curve" smooth="yes"/>
      <point x="259" y="679" type="line"/>
      <point x="259" y="710" type="line"/>
    </contour>
    <contour>
      <point x="450" y="439" type="line"/>
      <point x="22" y="439" type="line"/>
      <point x="22" y="408" type="line"/>
      <point x="187" y="408" type="line"/>
      <point x="195" y="408" type="line"/>
      <point x="438" y="408" type="line"/>
    </contour>
    <contour>
      <point x="1033" y="439" type="line"/>
      <point x="619" y="439" type="line"/>
      <point x="632" y="408" type="line"/>
      <point x="866" y="408" type="line"/>
      <point x="886" y="408" type="line"/>
      <point x="1033" y="408" type="line"/>
    </contour>
    <contour>
      <point x="384" y="252" type="line"/>
      <point x="678" y="252" type="line"/>
      <point x="666" y="283" type="line"/>
      <point x="530" y="283" type="line"/>
      <point x="402" y="283" type="line"/>
    </contour>
    <contour>
      <point x="222" y="283" type="line"/>
      <point x="22" y="283" type="line"/>
      <point x="22" y="252" type="line"/>
      <point x="229" y="252" type="line"/>
    </contour>
    <contour>
      <point x="848" y="252" type="line"/>
      <point x="1033" y="252" type="line"/>
      <point x="1033" y="283" type="line"/>
      <point x="847" y="283" type="line"/>
    </contour>
  </outline>
</glyph>
<glyph name="yen.proportional" format="2">
  <advance width="723"/>
  <outline>
    <contour>
      <point x="100" y="344" type="line"/>
      <point x="100" y="314" type="line"/>
      <point x="622" y="314" type="line"/>
      <point x="622" y="344" type="line"/>
    </contour>
    <contour>
      <point x="100" y="208" type="line"/>
      <point x="100" y="177" type="line"/>
      <point x="622" y="177" type="line"/>
      <point x="622" y="208" type="line"/>
    </contour>
    <contour>
      <point x="342" y="351" type="line"/>
      <point x="342" y="67" type="line" smooth="yes"/>
      <point x="342" y="38"/>
      <point x="300" y="31"/>
      <point x="243" y="31" type="curve" smooth="yes"/>
      <point x="225" y="31" type="line"/>
      <point x="225" y="0" type="line"/>
      <point x="501" y="0" type="line"/>
      <point x="501" y="31" type="line"/>
      <point x="482" y="31" type="line" smooth="yes"/>
      <point x="425" y="31"/>
      <point x="383" y="38"/>
      <point x="383" y="67" type="curve" smooth="yes"/>
      <point x="383" y="351" type="line"/>
    </contour>
    <contour>
      <point x="371" y="318" type="line"/>
      <point x="599" y="638" type="line" smooth="yes"/>
      <point x="625" y="675"/>
      <point x="659" y="679"/>
      <point x="699" y="679" type="curve" smooth="yes"/>
      <point x="705" y="679" type="line"/>
      <point x="705" y="710" type="line"/>
      <point x="459" y="710" type="line"/>
      <point x="459" y="679" type="line"/>
      <point x="477" y="679" type="line" smooth="yes"/>
      <point x="522" y="679"/>
      <point x="574" y="672"/>
      <point x="574" y="661" type="curve"/>
      <point x="344" y="339" type="line"/>
      <point x="377" y="348" type="line"/>
      <point x="150" y="669" type="line"/>
      <point x="150" y="676"/>
      <point x="205" y="679"/>
      <point x="247" y="679" type="curve" smooth="yes"/>
      <point x="268" y="679" type="line"/>
      <point x="268" y="710" type="line"/>
      <point x="17" y="710" type="line"/>
      <point x="17" y="679" type="line"/>
      <point x="24" y="679" type="line" smooth="yes"/>
      <point x="64" y="679"/>
      <point x="94" y="680"/>
      <point x="113" y="653" type="curve" smooth="yes"/>
      <point x="352" y="318" type="line"/>
    </contour>
  </outline>
</glyph>
